<svg width="150" height="150" viewBox="0 0 150 150" fill="none" xmlns="http://www.w3.org/2000/svg">
<path fill-rule="evenodd" clip-rule="evenodd" d="M47.7203 54.7114C39.9302 69.0325 40.799 86.406 53.1758 97.4353C50.9624 95.5793 48.9796 93.4708 47.3179 91.1349C40.3726 81.3779 39.9648 64.4378 47.7203 54.7114ZM48.4452 54.7433C48.5878 54.9733 48.9156 55.1089 49.1368 54.863C63.218 39.1832 85.0199 39.5461 100.799 53.0389C114.587 64.83 109.751 87.8658 97.602 98.7674C96.921 99.3776 96.2134 99.936 95.4965 100.468C83.9885 105.552 72.5978 106.42 60.269 100.681C41.8957 92.1307 40.9656 70.9243 48.4452 54.7433ZM94.172 102.813C96.5053 101.727 98.7066 100.411 100.676 98.814C101.047 98.5108 100.574 97.9671 100.183 98.1771C100.104 98.2197 100.025 98.2556 99.9446 98.2994C112.156 86.2159 114.624 64.6 101.744 52.095C89.2961 40.0101 66.6959 37.294 53.4397 48.6424C53.3384 48.6291 53.2318 48.6317 53.1185 48.6836C37.8114 55.6274 38.3511 79.5552 46.1599 91.809C55.9022 107.105 78.6903 112.149 94.172 102.813Z" fill="#39180E"/>
<path fill-rule="evenodd" clip-rule="evenodd" d="M59.7967 65.4584C59.7833 65.5009 59.7687 65.5448 59.754 65.59C59.7114 64.0452 60.2017 62.8167 61.0586 61.9473C60.6268 63.1145 60.1818 64.2738 59.7967 65.4584ZM66.7419 60.6617C69.9401 61.2958 72.5199 63.3485 74.1923 66.0221C73.1675 68.6292 72.1015 71.2722 71.1341 73.9457C71.7737 71.3373 72.2414 68.6691 72.9117 66.2694C73.0529 65.7655 72.2907 65.5634 72.1348 66.0553C70.633 70.7696 68.9766 75.5783 67.6428 80.3564C67.3043 79.9483 66.9591 79.5428 66.6273 79.132C69.423 74.7235 70.1373 68.8578 70.9142 63.8019C71.0075 63.1943 70.0907 62.9204 69.9734 63.5426C69.0153 68.6425 67.3989 73.4578 66.081 78.4433C65.7532 78.0285 65.4254 77.6124 65.1109 77.1923C67.3629 72.9087 67.8573 67.4938 69.2698 62.9763C69.4644 62.3514 68.4943 62.0922 68.2917 62.7077C66.8605 67.0484 65.48 71.4849 64.1794 75.8934C63.9036 75.4972 63.6198 75.109 63.3586 74.7049C65.3441 71.0727 66.029 66.4954 67.1364 62.5482C67.2936 61.9845 66.4421 61.7571 66.2649 62.3075C65.0882 65.9729 63.3066 69.8882 62.8016 73.7649C62.5444 73.3315 62.2672 72.9087 62.0327 72.4647C62.9668 71.324 63.4292 69.7193 63.8476 68.358C64.5592 66.0367 64.859 63.637 65.3348 61.2639C65.412 60.8784 64.8337 60.7122 64.7404 61.1017C64.2927 62.9656 63.761 64.8083 63.232 66.6509C62.7856 68.2024 61.9634 69.6821 61.4077 71.2017C61.2678 70.8933 61.1212 70.5862 60.992 70.2697C61.0479 70.2511 61.1039 70.2378 61.1545 70.1714C62.9815 67.8142 63.4305 64.1754 63.8196 61.3051C63.8956 60.7321 63.0308 60.4676 62.9282 61.0592C62.6776 62.5282 62.3125 63.9601 61.8834 65.3866C61.4983 66.6722 60.8947 67.9551 60.6148 69.2713C60.4909 68.9203 60.3617 68.5747 60.2564 68.2144C60.5869 67.4486 60.7041 66.5605 60.928 65.7682C61.3118 64.4121 61.7662 63.0746 62.1833 61.7266C62.2566 61.4952 62.1659 61.3184 62.014 61.2187C63.2466 60.5114 64.8924 60.2921 66.7419 60.6617ZM74.9039 67.301C75.0038 67.5071 75.185 67.5683 75.3716 67.5762C74.0657 72.7319 72.392 77.6789 70.5624 82.6777C70.4385 83.0141 70.9502 83.2028 71.1261 82.9143C72.1535 81.2326 72.9263 79.4338 73.5593 77.5792C72.8997 79.83 72.292 82.0861 71.8217 84.3409C71.759 84.652 72.2161 84.8873 72.3627 84.5682C75.1477 78.4739 76.4256 71.7229 78.8442 65.4704C79.0854 64.8468 78.0887 64.5849 77.8475 65.1951C76.6495 68.2396 75.4928 71.3772 74.4641 74.5546C75.1184 72.0765 75.6141 69.5452 76.1511 67.0737C76.1565 67.0524 76.1405 67.0405 76.1418 67.0205C76.3497 66.8822 76.4176 66.6868 76.379 66.506C76.6295 66.1723 76.9946 65.7017 77.5596 65.001C78.3032 64.0757 79.1187 63.2076 79.9343 62.3421C81.9171 60.2415 86.9675 57.1332 89.1143 62.854C90.0417 65.3268 88.913 68.4816 88.1055 70.8401C87.2234 73.4246 85.9947 75.9692 84.5596 78.4393C85.4564 75.4666 86.4411 72.5272 87.5059 69.597C87.7004 69.0639 86.8462 68.8352 86.653 69.3644C85.2672 73.1706 83.816 76.9862 83.0151 80.96C82.3355 82.0037 81.6239 83.034 80.8897 84.0404C82.9965 79.3367 84.1811 74.0933 85.4857 69.1995C85.6536 68.5747 84.6835 68.3088 84.5143 68.9336C82.9152 74.8431 80.7165 80.5625 79.0668 86.4414C77.9301 87.8839 76.7614 89.2772 75.5901 90.6053C75.4689 90.4684 75.3436 90.3301 75.2197 90.1919C73.2808 87.0184 70.7996 84.1268 68.357 81.2166C68.7821 80.5319 69.1379 79.802 69.4684 79.0536C69.2445 79.8419 69.0366 80.629 68.8527 81.42C68.7634 81.8029 69.3071 82.0622 69.5057 81.6939C71.9589 77.1511 73.0876 71.8784 74.7066 66.9407C74.7706 67.0631 74.8439 67.1787 74.9039 67.301ZM59.5315 61.2732C58.672 62.3288 58.3388 63.5998 58.3242 64.9359C56.6798 75.468 67.4549 84.2026 74.1843 91.1743C74.3042 91.3764 74.4428 91.5705 74.5587 91.7766C74.5481 91.7872 74.5387 91.7992 74.5281 91.8098C73.9271 92.4732 74.9119 93.461 75.5102 92.7936C75.6368 92.6527 75.7753 92.4945 75.9059 92.3496C75.9313 92.323 75.9539 92.2964 75.9766 92.2698C82.4834 84.971 93.7942 71.546 89.9578 61.2932C87.4712 54.6445 77.5117 60.651 75.4022 65.473C75.3663 65.4079 75.3183 65.3467 75.281 65.2816C75.313 65.1952 75.3409 65.1021 75.3729 65.0143C75.4995 64.674 75.1197 64.4919 74.8572 64.6168C71.5711 59.9225 63.5451 56.3329 59.5315 61.2732Z" fill="#39180E"/>
<path fill-rule="evenodd" clip-rule="evenodd" d="M76.4464 79.1296C76.7902 78.4636 76.9914 77.7483 77.3112 77.0743C77.4458 76.7898 77.0207 76.5385 76.8848 76.8257C76.5623 77.505 76.3838 78.2296 76.0866 78.9196C75.984 79.1589 76.3198 79.3716 76.4464 79.1296Z" fill="#39180E"/>
<path fill-rule="evenodd" clip-rule="evenodd" d="M75.2793 86.2317C79.137 79.587 80.4629 71.8203 82.8335 64.5933C82.9721 64.1718 82.3232 64.003 82.1766 64.4111C79.5968 71.581 77.4727 78.8824 74.7276 85.9991C74.6023 86.3248 75.1127 86.5202 75.2793 86.2317Z" fill="#39180E"/>
<path fill-rule="evenodd" clip-rule="evenodd" d="M82.5509 69.794C80.7786 76.3178 78.0269 82.4745 76.076 88.9318C76.0121 89.1432 76.3359 89.2828 76.4385 89.0833C79.4807 83.0648 81.6621 76.5238 83.2905 69.9961C83.4104 69.5188 82.6802 69.3168 82.5509 69.794Z" fill="#39180E"/>
<path fill-rule="evenodd" clip-rule="evenodd" d="M90.2152 100.471C96.4623 97.2426 103.73 92.1573 104.871 84.6458C104.921 84.3068 104.42 84.0103 104.259 84.3879C102.783 87.8166 101.394 90.7175 98.7609 93.4456C96.2064 96.0912 93.0922 98.1493 90.0447 100.178C89.8634 100.3 90.0207 100.57 90.2152 100.471Z" fill="#39180E"/>
<path fill-rule="evenodd" clip-rule="evenodd" d="M46.6194 66.936C48.8954 60.06 52.1522 54.5227 58.3899 50.5077C58.6524 50.3375 58.4845 49.851 58.1673 49.9786C51.9336 52.458 46.5194 60.1889 46.0131 66.8536C45.9864 67.2165 46.5154 67.2497 46.6194 66.936Z" fill="#39180E"/>
<path fill-rule="evenodd" clip-rule="evenodd" d="M105.858 79.9729C106.475 79.0237 106.614 77.7248 106.879 76.6413C107.003 76.1348 106.225 75.9207 106.097 76.4272C105.82 77.5081 105.327 78.7272 105.421 79.8533C105.441 80.0833 105.726 80.1737 105.858 79.9729Z" fill="#39180E"/>
<path fill-rule="evenodd" clip-rule="evenodd" d="M60.1507 49.2881C60.9569 48.8121 62.0522 48.4678 62.6999 47.7844C62.969 47.5012 62.7585 47.1104 62.4027 47.0718C61.3793 46.9615 60.4292 47.8921 59.6656 48.4571C59.1792 48.8174 59.6043 49.6098 60.1507 49.2881Z" fill="#39180E"/>
<path fill-rule="evenodd" clip-rule="evenodd" d="M90.1521 111.538C91.025 113.433 91.6099 115.694 92.8626 117.383C93.1131 117.719 93.6061 117.521 93.5342 117.102C93.165 114.991 91.8405 112.985 90.6625 111.24C90.4466 110.921 89.9936 111.195 90.1521 111.538Z" fill="#39180E"/>
<path fill-rule="evenodd" clip-rule="evenodd" d="M115.757 104.993C100.255 124.549 72.101 126.989 50.9213 116.232C51.4037 116.341 51.7155 115.738 51.2745 115.409C51.0493 115.24 50.8254 115.074 50.6002 114.905C52.3152 115.889 54.0795 116.768 55.8918 117.53C55.9531 117.859 56.3142 118.034 56.578 117.81C74.1145 124.854 95.4754 121.472 109.497 108.886C109.822 109.142 110.164 109.373 110.548 109.533C110.796 109.634 111.106 109.326 111.004 109.077C110.852 108.709 110.635 108.372 110.387 108.052C112.892 105.678 115.173 103.033 117.1 100.05C118.251 98.2697 119.187 96.3726 119.968 94.405C120.281 94.4741 120.594 94.5233 120.906 94.5073C121.143 94.4954 121.26 94.2242 121.096 94.05C120.881 93.8173 120.627 93.6192 120.36 93.4398C124.039 83.3624 123.455 71.4064 122.081 61.2586C120.368 48.61 113.979 39.4606 103.04 32.9661C100.522 31.4704 97.8287 30.1742 95.0263 29.0774C94.933 28.8168 94.6132 28.6812 94.3454 28.8142C73.6561 21.0314 47.0955 24.5439 36.8722 46.2063C36.6843 46.6078 37.2333 46.9442 37.4731 46.5573C38.6072 44.7346 39.8278 43.0541 41.1084 41.492C41.6747 41.968 42.2424 42.4426 42.7887 42.9358C43.4923 43.57 44.1679 44.3437 45.0154 44.7864C45.3686 44.9712 45.739 44.603 45.5525 44.2507C45.1114 43.4091 44.3305 42.7231 43.6389 42.0863C43.0592 41.5545 42.4463 41.0945 41.8066 40.6691C45.8749 35.9428 50.5948 32.4489 55.7385 30.0958C56.6433 32.3346 57.4162 35.2023 59.2431 36.8123C59.3604 36.9133 59.5416 36.8176 59.5043 36.6594C58.9433 34.3368 57.8333 31.8374 56.6766 29.6943C62.0562 27.3983 67.8675 26.3187 73.8373 26.2908C73.7307 27.4169 73.74 28.5496 73.736 29.6836C73.7307 31.0344 73.6414 32.433 74.0572 33.7332C74.1425 33.9991 74.5103 33.9991 74.5955 33.7332C74.9567 32.6005 74.9234 31.412 74.918 30.234C74.914 28.9179 74.938 27.599 74.8128 26.2895C81.0145 26.3799 87.3721 27.623 93.5858 29.8458C92.3319 31.8041 91.2792 34.1905 90.6702 36.3443C90.5862 36.6394 90.9594 36.8415 91.1752 36.6381C92.8702 35.0254 93.6818 32.409 94.6479 30.2287C96.6867 30.9985 98.7108 31.8666 100.706 32.8451C104.278 34.6013 107.356 36.8256 109.991 39.4034C109.293 39.8528 108.71 40.5255 108.103 41.0945C107.173 41.9626 105.727 42.8773 105.131 44.0273C105.042 44.1975 105.148 44.4807 105.379 44.4554C106.581 44.3211 107.711 43.09 108.55 42.3189C109.27 41.6569 110.156 40.9629 110.7 40.1253C114.078 43.6258 116.648 47.7418 118.522 52.2182C118.259 51.7236 117.986 51.2304 117.7 50.7385C117.623 50.6069 117.385 50.6959 117.444 50.8448C118.166 52.6622 118.759 54.5341 119.298 56.426C116.996 56.8634 114.644 57.9136 112.499 58.7844C112.11 58.944 112.248 59.5396 112.677 59.4306C114.912 58.8655 117.521 58.4587 119.501 57.1731C119.968 58.8629 120.401 60.5619 120.835 62.245C120.921 62.5774 121.367 62.5561 121.492 62.2956C122.205 66.1763 122.509 70.1767 122.437 74.1744C121.278 74.0547 120.062 74.2621 118.911 74.3751C117.808 74.4842 116.74 74.6543 115.716 75.0851C115.357 75.2366 115.534 75.8681 115.915 75.8243C117.065 75.694 118.213 75.5438 119.367 75.448C120.384 75.3643 121.447 75.3722 122.426 75.0678C122.23 81.182 121.176 87.267 119.381 92.884C118.737 92.5756 118.056 92.319 117.448 92.0279C115.993 91.3312 114.523 90.7011 113.043 90.0629C112.639 89.8887 112.286 90.4352 112.688 90.6691C114.074 91.4708 115.421 92.3177 116.85 93.0462C117.511 93.3826 118.239 93.7907 118.99 94.0965C117.069 99.6285 114.037 104.197 110.236 107.879C109.59 107.1 108.757 106.426 108.04 105.771C106.871 104.706 105.58 103.78 104.244 102.939C103.691 102.591 103.236 103.425 103.741 103.795C105.068 104.764 106.28 105.86 107.482 106.975C108.088 107.535 108.664 108.185 109.307 108.727C100.526 116.659 88.049 120.174 75.6989 119.999C75.8322 117.804 75.6909 115.506 75.567 113.326C75.5377 112.797 74.7848 112.801 74.7488 113.326C74.5982 115.44 74.1185 117.942 74.93 119.988C68.7763 119.824 62.6811 118.758 57.1217 116.873C57.4815 116.19 57.8453 115.509 58.1544 114.799C58.5062 113.995 58.926 113.112 58.8341 112.219C58.8087 111.966 58.5062 111.784 58.301 111.999C57.7587 112.568 57.5388 113.307 57.2443 114.021C56.8992 114.864 56.5487 115.707 56.1929 116.543C55.1868 116.183 54.1914 115.804 53.2267 115.389C49.1597 113.641 45.4685 111.103 42.2077 108C43.6589 106.661 45.186 105.237 46.1135 103.568C46.2907 103.247 45.9029 102.766 45.5658 103.024C44.0347 104.191 42.7061 105.739 41.3829 107.198C37.196 103 33.766 97.8536 31.2501 92.2299C31.2488 92.222 31.2461 92.2127 31.2434 92.2034C31.9497 92.0026 32.6573 91.8005 33.3609 91.5838C34.3963 91.2608 35.4383 91.0082 36.2752 90.2996C36.4804 90.1267 36.3098 89.7917 36.0646 89.7917C35.0186 89.789 34.0498 90.1998 33.0637 90.5109C32.3601 90.733 31.6819 91.0082 30.9969 91.2674C29.5151 85.6118 28.4757 80.1783 28.0493 74.6543C28.3798 74.5732 28.7116 74.4881 29.0447 74.3991C30.2973 74.068 31.6872 73.9643 32.8705 73.4432C33.101 73.3382 32.9944 73.0324 32.8065 72.9619C31.7925 72.5804 30.7184 72.8463 29.691 73.0856C29.1127 73.2225 28.5344 73.3767 27.956 73.5283C27.8694 72.1164 27.8228 70.6965 27.8214 69.2633C28.8382 64.799 29.791 60.4835 31.0529 56.1946L31.0662 56.1999C31.1395 56.3342 31.3194 56.3994 31.4646 56.3462C31.991 56.535 32.5187 56.7158 33.0397 56.9112C34.1178 57.3194 35.1732 57.802 36.3405 57.8472C36.7336 57.8618 36.8935 57.2874 36.543 57.104C35.5263 56.5722 34.4056 56.2465 33.3342 55.841C32.9118 55.6814 32.4721 55.5259 32.027 55.3983C33.8872 51.6984 35.4863 47.815 37.6597 44.2945C37.8289 44.0207 37.4212 43.8013 37.24 44.0459C34.6921 47.5012 32.8372 51.14 31.378 55.131C32.1429 52.6409 33.0117 50.1508 34.0925 47.6328C34.2364 47.3005 33.8113 47.0359 33.5981 47.347C31.1275 50.9499 29.3206 55.3451 28.1639 59.9012C27.9747 59.8387 27.7322 59.8919 27.6722 60.1166C27.3084 61.5032 27.0139 62.9124 26.7874 64.3363C27.6469 57.3579 30.0815 50.7465 34.4283 45.3049C34.7721 44.8742 34.1617 44.2586 33.8166 44.696C32.4987 46.3645 31.366 48.1327 30.3853 49.9687C31.1688 48.1965 32.0257 46.4562 32.9744 44.7559C33.1277 44.7745 33.2903 44.7332 33.4342 44.5883C44.561 33.6375 54.4699 25.4333 70.5899 23.919C82.984 22.7558 95.3768 26.9476 105.46 33.9366C128.422 49.8491 132.922 83.3358 115.757 104.993ZM46.328 113.632C42.4849 111.198 39.2175 108.364 36.4644 105.243C37.7143 106.39 38.9829 107.556 40.2782 108.703C40.3275 108.931 40.5287 109.121 40.7646 109.137C43.0273 111.122 45.3925 113.011 47.9137 114.589C47.3821 114.275 46.8504 113.963 46.328 113.632ZM35.5529 104.179C28.6356 95.8089 25.3455 85.4736 25.191 74.8325C25.2616 74.9455 25.3642 75.0372 25.5281 75.0359C25.6907 75.0332 25.8506 75.0146 26.0118 75.0013C26.2037 76.8081 26.5235 78.6029 26.8993 80.3923C27.379 83.3384 28.1039 86.242 29.0474 89.0445C28.7196 88.4117 28.3904 87.7815 28.0626 87.1381C27.8761 86.7725 27.2431 87.0304 27.3924 87.4199C27.9654 88.9103 28.577 90.4365 29.2233 91.9627C28.8608 92.2246 29.0247 92.8681 29.5231 92.7112C29.5271 92.7099 29.5324 92.7086 29.5364 92.7072C31.2354 96.6212 33.2743 100.483 35.946 103.743C35.7395 103.803 35.5729 103.977 35.5529 104.179ZM25.9838 64.5597C25.6454 67.6813 25.648 70.864 25.9279 74.0454C25.756 74.0906 25.5827 74.1305 25.4108 74.1757C25.3096 74.2023 25.2496 74.2661 25.1976 74.3339C25.1803 71.0834 25.4362 67.8102 25.9838 64.5597ZM107.808 34.1028C97.9193 26.0927 85.1867 22.3742 72.5781 22.5537C55.6492 22.7956 43.6589 31.9437 32.5933 43.7508C32.3695 43.9901 32.3974 44.2719 32.5414 44.4807C17.0437 66.8131 22.1554 97.0573 43.9107 113.501C66.4816 130.561 100.411 126.435 117.86 104.38C134.963 82.7588 128.314 50.7066 107.808 34.1028Z" fill="#39180E"/>
<path fill-rule="evenodd" clip-rule="evenodd" d="M30.101 45.0795C33.1112 40.7029 36.7078 37.0535 40.3697 33.2525C40.5309 33.0863 40.3217 32.7979 40.1178 32.9255C35.6244 35.7745 32.4583 40.4157 29.8265 44.9213C29.7212 45.0994 29.9864 45.2457 30.101 45.0795Z" fill="#39180E"/>
<path fill-rule="evenodd" clip-rule="evenodd" d="M120.046 103.465C116.847 108.525 113.188 112.91 108.28 116.392C107.969 116.612 108.232 117.063 108.58 116.9C114.015 114.356 118.006 109.037 120.656 103.822C120.863 103.416 120.291 103.077 120.046 103.465Z" fill="#39180E"/>
<path fill-rule="evenodd" clip-rule="evenodd" d="M15.9153 39.5797C14.744 44.5439 12.0722 48.9272 11.254 54.0164C11.2447 54.0722 11.2766 54.1108 11.2846 54.1587C10.8302 56.7059 10.5317 59.2745 10.3652 61.8643C10.2786 58.3452 9.95742 54.8487 9.08592 51.5104C7.89462 46.9596 5.4627 43.1892 5.22683 38.0747C4.96166 32.3327 4.25407 26.6878 4.49926 20.9392C6.77793 24.0834 5.43471 39.5956 6.7686 42.228C6.93917 42.563 7.29363 42.5298 7.53083 42.3383C10.0254 41.6576 9.65759 28.9027 9.71755 27.4722C9.78285 25.9021 9.84282 24.3373 10.0054 22.7752C10.2146 29.6233 9.27781 37.1348 11.17 43.7555C11.2247 43.9443 11.3406 44.0374 11.4725 44.0826C11.4059 44.2209 11.3566 44.3644 11.2886 44.504C11.0981 44.8976 11.4845 45.3057 11.8856 45.0983C14.9838 43.491 15.0425 37.4977 15.3543 34.5357C15.6314 31.8927 15.7447 29.2297 15.906 26.5801C15.9886 25.2227 15.8633 23.2338 16.391 21.79C17.2572 27.5865 17.2478 33.9268 15.9153 39.5797ZM12.9357 105.2C13.0996 109.58 12.6958 113.96 12.7958 118.34C12.8331 119.912 13.0836 132.676 10.709 126.988C8.4916 121.68 9.00597 114.689 9.0073 109.053C9.0113 97.433 9.94142 85.8107 10.2039 74.1911C10.2666 74.2071 10.3305 74.2164 10.3945 74.2284C10.9502 84.6315 12.5586 95.1117 12.9357 105.2ZM17.1119 20.2558C17.0066 19.7971 16.475 19.845 16.2737 20.1561C16.2617 20.1574 16.2498 20.1508 16.2391 20.1521C14.2589 20.523 14.6374 26.2305 14.5574 27.4948C14.2256 32.802 13.9804 37.8328 12.0722 42.696C11.1794 35.3187 11.6564 27.7421 10.3412 20.5629C10.2719 20.1787 9.77752 20.2797 9.66026 20.5629C8.7781 22.6754 9.00197 38.5294 7.63477 41.1551C7.10174 36.6243 8.17845 19.6456 3.62377 19.8304C3.26797 19.8437 3.26931 20.3622 3.62377 20.3808C3.69839 20.3848 3.76635 20.4087 3.83564 20.43C2.72029 27.2728 3.89694 34.1634 4.24607 41.0474C4.56455 47.3398 8.66217 51.7563 9.1179 58.1311C9.38708 61.8683 9.47103 65.648 9.45771 69.4436C9.32845 69.1883 9.2325 68.9118 9.16987 68.6366C9.00064 67.9041 7.94792 68.2285 8.05985 68.9424C8.21176 69.8969 8.62219 70.7292 9.44172 71.2756L9.45238 71.2809C9.44705 71.7276 9.42839 72.173 9.41906 72.6184C9.26582 72.5213 9.1179 72.4163 8.98065 72.298C8.48094 71.8699 7.77735 72.5492 8.25041 73.0278C8.57955 73.3615 8.96599 73.6633 9.38841 73.888C9.22584 80.5168 8.81142 87.1575 8.41565 93.6692C7.89728 102.2 7.57214 110.772 8.2011 119.308C8.44096 122.568 8.52492 129.122 12.3587 130.422C12.6239 130.51 12.9277 130.323 12.9956 130.061C15.5928 120.087 14.5947 106.839 13.2595 96.7297C12.3147 89.5784 11.5605 81.9353 11.3446 74.2922C12.0748 74.247 12.8451 74.0077 13.1036 73.307C13.1649 73.1395 13.0356 72.9241 12.8651 72.8883C12.3454 72.7779 11.8283 72.9946 11.306 73.0637C11.2966 72.5998 11.266 72.1344 11.262 71.6718C11.5765 71.6146 11.8483 71.4764 12.0042 71.2012C12.0908 71.0483 12.0695 70.8515 11.9429 70.7265C11.7484 70.5338 11.5045 70.4739 11.2487 70.438C11.2407 64.2626 11.6418 58.1391 12.7425 52.3373C12.7664 52.2123 12.7425 52.106 12.6998 52.0116C15.8167 41.2402 19.8024 31.9897 17.1119 20.2558Z" fill="#39180E"/>
<path fill-rule="evenodd" clip-rule="evenodd" d="M144.729 111.793C144.728 114.801 144.58 117.794 144.389 120.795C145.19 125.342 143.171 126.562 138.331 124.458C137.737 121.993 137.437 119.496 137.428 116.97C136.847 104.938 142.156 93.6234 143.097 81.8044C143.364 81.7818 143.626 81.7366 143.873 81.6528C144.039 85.6718 144.231 89.6961 144.485 93.755C144.86 99.7429 144.73 105.795 144.729 111.793ZM140.954 74.6305C139.641 73.0724 138.259 71.6033 136.864 70.117C134.504 67.6056 133.615 64.4787 133.422 61.2295C133.969 61.8596 134.432 62.6866 135.252 62.9604C135.448 63.0256 135.633 62.8208 135.58 62.632C135.34 61.7825 134.608 61.0433 134 60.4278C133.805 60.231 133.567 60.2603 133.398 60.3879C133.377 59.5583 133.386 58.7221 133.434 57.8885C133.495 57.9829 133.561 58.072 133.621 58.1663C133.994 58.7633 134.294 59.5211 134.899 59.9106C135.051 60.0103 135.292 59.9173 135.328 59.7391C135.578 58.5107 134.419 57.1626 133.571 56.1588C133.694 54.9317 133.859 53.7206 134.026 52.5586C134.115 51.9471 134.238 51.3448 134.346 50.7386C134.696 51.9205 134.773 53.2021 134.927 54.4053C134.939 54.5063 135.096 54.5901 135.15 54.4664C135.886 52.79 135.457 51.2185 134.518 49.7495C134.809 48.2272 135.132 46.7183 135.508 45.22C135.641 45.8408 135.835 46.4351 136.202 46.8884C136.362 47.0865 136.683 46.9602 136.746 46.7449C137.081 45.5935 136.426 44.1644 136.071 43.0423C136.344 42.0545 136.63 41.0707 136.928 40.0895C136.979 40.9364 137.125 41.762 137.666 42.3829C137.781 42.5158 137.974 42.4281 138.026 42.2898C138.505 40.975 138.027 39.2852 137.665 37.9743C137.657 37.9464 137.63 37.9358 137.617 37.9132C137.761 37.4625 137.897 37.0118 138.045 36.5611C138.29 35.8193 138.471 34.9099 138.631 33.8969C138.699 34.1109 138.744 34.3303 138.816 34.5443C139.114 35.4324 139.261 36.4162 139.85 37.1647C139.984 37.3322 140.232 37.2112 140.29 37.0477C140.874 35.4257 139.595 33.2866 138.936 31.6979C139.067 30.6689 139.201 29.5973 139.369 28.5258C139.573 29.4099 139.928 30.2408 140.675 30.6689C140.986 30.847 141.298 30.5572 141.238 30.2368C141.124 29.6279 140.782 29.0642 140.557 28.4872C140.286 27.7933 140.089 27.0687 139.896 26.3521C139.88 26.2936 139.83 26.2683 139.796 26.2271C140.463 23.1893 141.588 20.5064 143.925 19.4841C144.065 19.4229 144.14 19.3298 144.18 19.2235C143.482 23.4818 143.768 27.6178 144.044 31.9385C144.449 38.3001 143.777 44.7613 143.59 51.1228C143.312 60.4637 143.423 69.6437 143.763 78.8609C143.592 78.9181 143.42 78.9726 143.243 79.0125C143.247 78.8317 143.26 78.6522 143.26 78.4714C143.262 78.1523 143.03 78.0287 142.799 78.0513C142.48 76.8667 141.947 75.8071 140.954 74.6305ZM144.769 81.1436C144.923 81.0053 145.066 80.8471 145.182 80.6583C145.405 80.2981 145.082 79.9138 144.704 79.9311C144.693 79.7091 144.68 79.4884 144.669 79.2664C144.692 79.2092 144.741 79.1654 144.754 79.1015C144.781 78.9832 144.729 78.8915 144.65 78.821C144.509 75.73 144.405 72.635 144.378 69.5347C144.304 60.687 144.792 51.7357 145.166 42.8947C145.506 34.8514 144.32 26.7017 145.238 18.7209C145.299 18.1772 144.381 18.0575 144.28 18.592C144.252 18.7396 144.236 18.8871 144.211 19.0347C144.188 18.6757 143.797 18.3035 143.356 18.5095C140.479 19.851 139.733 22.8902 138.966 25.7645C137.116 32.683 135.594 40.0683 134.116 47.0839C133.502 50.0021 132.941 52.7993 132.635 55.6018C132.373 55.7294 132.184 56.0472 132.381 56.3264C132.437 56.4048 132.485 56.4832 132.54 56.563C132.295 59.3868 132.329 62.2332 132.889 65.2272C133.859 70.4294 138.764 73.313 141.276 77.7481C141.052 77.8359 140.872 78.0566 140.952 78.3238C141.162 79.0231 141.501 79.6998 142.114 80.0601C142.088 80.2396 142.053 80.419 142.024 80.5999C141.78 80.564 141.536 80.5108 141.292 80.4323C140.601 80.2116 140.363 81.2314 140.999 81.4893C141.256 81.5943 141.54 81.6701 141.835 81.7299C139.419 95.8143 133.794 110.63 137.084 124.802C138.794 132.169 144.935 128.499 145.475 122.811C146.798 108.867 145.479 95.0299 144.769 81.1436Z" fill="#39180E"/>
<path fill-rule="evenodd" clip-rule="evenodd" d="M147.11 115.538C146.662 121.192 145.4 126.583 143.223 131.818C143.159 131.974 143.412 132.074 143.491 131.931C146.346 126.845 148.18 121.423 147.936 115.538C147.915 115.003 147.151 115.011 147.11 115.538Z" fill="#39180E"/>
<path fill-rule="evenodd" clip-rule="evenodd" d="M4.3334 113.601C4.55194 116.395 4.63322 119.205 5.84718 121.784C6.00976 122.129 6.48015 121.869 6.42285 121.541C5.96445 118.898 5.45941 116.264 5.13293 113.601C5.07163 113.104 4.29342 113.082 4.3334 113.601Z" fill="#39180E"/>
<path fill-rule="evenodd" clip-rule="evenodd" d="M2.96315 118.58C2.89519 120.511 3.46819 122.597 4.80474 124.039C5.01795 124.268 5.33777 124.023 5.2898 123.76C4.96065 121.964 3.89328 120.435 3.7307 118.58C3.68673 118.094 2.98181 118.079 2.96315 118.58Z" fill="#39180E"/>
<path fill-rule="evenodd" clip-rule="evenodd" d="M18.5479 19.365C19.3155 21.8206 19.6379 24.2734 20.0723 26.7954C20.103 26.9789 20.4215 26.9856 20.4481 26.7954C20.8066 24.2203 20.019 21.6012 19.1995 19.1869C19.0609 18.7774 18.4173 18.9489 18.5479 19.365Z" fill="#39180E"/>
<path fill-rule="evenodd" clip-rule="evenodd" d="M136.156 26.0759C136.718 25.0721 136.91 23.8264 137.301 22.7402C137.822 21.2978 138.497 19.9138 139.518 18.7571C139.892 18.3344 139.301 17.7295 138.893 18.1336C137.047 19.9576 135.38 23.2601 135.556 25.915C135.576 26.2195 135.991 26.3697 136.156 26.0759Z" fill="#39180E"/>
</svg>
