<svg width="151" height="150" viewBox="0 0 151 150" fill="none" xmlns="http://www.w3.org/2000/svg">
<path fill-rule="evenodd" clip-rule="evenodd" d="M73.768 113.289C73.6516 112.967 73.5533 112.636 73.4609 112.301C73.4813 112.259 73.4969 112.215 73.5185 112.172C74.8042 108.753 77.7354 107.538 82.3072 108.527C86.3406 114.144 76.2314 120.059 73.768 113.289ZM85.5934 97.8826C85.3583 97.8096 85.0621 97.9053 85.0861 98.2126C85.3715 102.133 80.4842 99.4097 79.2201 98.2258C78.804 97.8359 78.4742 97.4257 78.2127 97.0036C81.0443 95.0172 84.2921 94.4181 85.5934 97.8826ZM102.811 76.0638C102.511 74.4051 102.912 73.2152 103.696 72.1557C104.738 73.757 104.952 75.4743 102.811 76.0638ZM83.479 109.151C82.8433 106.719 79.6759 104.866 77.3648 106.367C75.6845 107.458 74.2621 108.993 73.1143 110.773C72.6838 108.233 72.8277 105.48 73.4178 103.106C73.8711 101.292 75.5646 99.0665 77.5771 97.4736C78.2187 98.5427 79.1326 99.4862 80.2768 100.215C82.4811 101.62 85.549 101.395 85.8129 98.5702C85.8776 98.8165 85.9364 99.0772 85.9844 99.3571C86.0264 99.607 86.4341 99.546 86.4233 99.2961C86.1403 92.8707 81.8635 93.9338 78.0952 96.7907C76.3921 93.7197 78.305 89.9336 80.4411 87.3553C84.4097 82.5682 84.4324 89.802 87.7366 90.7551C92.1562 92.0288 94.1315 84.5725 92.047 80.4156C94.0883 79.9707 95.8741 77.396 96.9151 74.9361C97.5627 75.088 98.268 75.0976 98.9564 74.9373C99.2634 74.8656 99.1291 74.4207 98.8292 74.4745C96.6956 74.8572 95.0382 73.3025 95.4975 71.1524C95.9544 69.0189 98.3051 68.5059 100.109 69.0691C101.004 69.3502 102.18 70.2567 103.088 71.3353C101.918 72.8122 101.427 74.8165 102.174 76.6091C102.25 76.7897 102.408 76.9117 102.614 76.8579C105.827 76.0148 105.661 73.5967 104.23 71.5004C104.731 70.9407 105.312 70.3906 105.938 69.7974C106.092 69.6503 105.935 69.3621 105.725 69.4339C104.941 69.6994 104.243 70.1622 103.646 70.7386C102.449 69.3478 100.759 68.2296 99.2898 68.0395C96.8288 67.7202 94.6448 69.3669 94.5308 71.8866C94.4625 73.3611 95.2528 74.3059 96.3394 74.7531C95.8849 75.3331 95.4471 75.9227 95.0346 76.5314C94.556 77.1449 94.0763 77.7596 93.5954 78.3754C91.9798 78.2164 90.8369 78.2008 90.1437 78.3252C89.7611 78.1076 89.3389 77.9378 88.8688 77.8469C88.4982 77.7751 88.0196 78.1925 88.3111 78.5704C89.225 79.7543 90.1401 80.3187 91.0288 80.4491C91.1007 80.4969 91.1643 80.54 91.2423 80.5878C92.3912 82.3792 92.0878 84.9994 91.5649 86.9152C90.7397 89.9312 87.5123 90.8688 85.9532 88.0238C85.5178 87.2309 85.1904 86.3854 84.7299 85.6033C82.619 82.0372 78.5017 88.4112 77.607 89.9097C76.1331 92.3815 76.2302 95.0794 77.4691 97.2822C75.3787 99.0007 73.5281 101.188 72.7365 102.819C71.9294 104.479 71.7387 108.421 72.4175 111.917C68.63 118.87 68.9526 128.826 75.8284 132.935C76.3046 133.219 76.7195 132.497 76.2602 132.198C70.4926 128.46 70.3235 122.336 71.8922 116.335C72.1573 115.432 72.4895 114.554 72.8493 113.686C73.8999 117.147 75.9819 119.577 79.4084 117.71C82.8229 115.853 84.4816 112.989 83.479 109.151Z" fill="#39180E"/>
<path fill-rule="evenodd" clip-rule="evenodd" d="M62.1412 102.09C60.794 101.779 59.4445 101.472 58.0962 101.163C59.8892 98.0306 61.8336 97.1835 63.9223 98.5439C63.6588 99.732 63.1068 100.923 62.1412 102.09ZM54.0214 86.4079C53.7054 87.6355 52.8673 88.2409 51.5095 88.223C50.8323 87.602 50.154 86.9786 49.4768 86.3564C50.793 84.6203 52.3142 83.9527 54.0333 84.3224C54.1346 85.014 54.143 85.7163 54.0214 86.4079ZM43.5613 78.0085C42.9855 77.445 44.2778 76.9927 45.5713 76.7307C45.7942 78.103 45.1302 78.5338 43.5613 78.0085ZM65.0501 98.6013C66.0217 92.9048 60.44 86.4318 55.285 84.0951H55.2815C54.9465 79.8607 50.8192 75.9218 46.6061 75.7041C46.3426 68.8278 39.6618 65.1666 33.6151 64.0107C32.9976 63.8923 32.7341 64.7885 33.3528 64.9667C37.4193 66.1202 42.151 67.7294 44.4137 71.6073C45.1207 72.8193 45.3889 74.3197 45.4974 75.74C44.3636 75.868 43.2478 76.2604 42.2261 77.0501C41.9304 77.2786 41.8887 77.5957 42.1176 77.8924C44.6128 81.111 46.4523 79.832 46.6037 76.5584C47.1152 76.4926 47.5288 76.4686 47.6743 76.4937C50.576 77.0106 52.6063 80.1754 53.6065 82.6904C53.7472 83.0445 53.8509 83.4155 53.9331 83.7852C51.2532 83.2695 47.9234 84.0723 48.5243 87.5589C48.9463 90.0117 53.5373 89.5989 54.5137 87.803C55.0275 86.8578 55.2564 85.8742 55.291 84.8943C59.4922 87.4464 64.7317 92.6081 64.0319 97.9205C61.1851 96.1964 57.7051 95.4043 57.0554 98.8694C56.5619 101.509 58.8925 106.144 62.0339 103.55C63.5753 102.277 64.4754 100.836 64.8903 99.324C65.0632 99.4903 65.236 99.6327 65.4113 99.8277C67.0887 101.253 67.7741 103.606 68.3285 105.636C70.044 111.909 68.6051 119.225 67.7408 125.538C67.6764 125.996 68.3678 126.204 68.4465 125.733C69.771 117.779 71.4579 108.891 67.7312 101.343C67.3426 100.552 66.3161 99.5202 65.0501 98.6013Z" fill="#39180E"/>
<path fill-rule="evenodd" clip-rule="evenodd" d="M73.6845 67.2328C73.5359 66.7123 72.7963 66.7002 72.6536 67.2328C71.6027 71.1481 67.507 74.1734 65.3421 68.8608C63.6991 64.8271 68.1623 61.6871 71.2774 60.6437C71.9936 60.4045 73.2925 60.3743 73.7898 59.634C76.0612 56.2392 73.8261 49.516 72.2194 46.2818C71.9023 45.6417 70.9825 46.2057 71.2879 46.8434C72.7636 49.9302 73.2785 53.1524 73.3943 56.5665C73.5043 59.7669 71.378 59.2234 69.7058 60.0229C66.7908 61.4202 64.6879 63.3042 64.0619 66.6495C63.5142 69.5818 66.6925 74.5828 70.0253 73.0756C71.1639 72.5611 73.5546 70.6675 73.1708 69.333C74.0403 72.3643 75.2093 81.9884 69.6075 81.8169C68.7954 81.7915 67.9002 82.2649 67.1196 82.4871C61.5225 84.0765 69.7105 95.4348 71.4635 96.8961C71.8672 97.2354 72.4476 96.6666 72.0451 96.2946C71.5407 95.8321 63.1316 83.5378 67.8838 83.5378C69.0669 83.5378 70.6513 83.0729 71.8403 82.7516C76.9295 81.3749 74.5505 70.2496 73.6845 67.2328Z" fill="#39180E"/>
<path fill-rule="evenodd" clip-rule="evenodd" d="M127.704 86.7996C128.218 86.6313 128.009 85.9102 127.483 86.0093C104.18 90.505 86.4175 110.025 82.0089 132.507C81.9105 133 82.659 133.215 82.783 132.716C88.7422 108.871 104.401 94.3763 127.704 86.7996Z" fill="#39180E"/>
<path fill-rule="evenodd" clip-rule="evenodd" d="M91.0905 48.4878C90.8157 48.5819 90.7885 48.9093 91.0147 49.0736C91.3038 49.2832 91.6567 49.3785 92.0228 49.4332C84.7449 59.6613 79.9605 72.8876 77.0075 84.7493C76.9435 85.0124 77.3084 85.0994 77.4031 84.8588C80.1169 77.9052 82.4813 70.8515 85.4817 64.0097C87.7146 58.9219 90.5788 54.2365 93.3021 49.4392C93.5473 49.4059 93.7877 49.363 94.0069 49.3177C95.1867 49.0641 96.1485 48.2568 96.8853 47.334C97.262 46.8649 96.6247 46.1886 96.2125 46.6589C95.5918 47.3638 94.9 47.8413 94.0377 48.1306C94.3575 47.5591 94.675 46.9875 94.9865 46.4124C95.1263 46.1552 94.7697 45.8457 94.5707 46.0874C93.9666 46.8173 93.3826 47.571 92.8093 48.339C92.2265 48.3473 91.639 48.3009 91.0905 48.4878Z" fill="#39180E"/>
<path fill-rule="evenodd" clip-rule="evenodd" d="M61.9993 82.6192C61.4024 71.1807 52.8914 56.9867 43.6067 50.0786C43.2063 49.7832 42.8097 50.392 43.0995 50.7197C51.2642 59.9444 59.8869 69.9632 61.1875 82.6192C61.2379 83.1167 62.0263 83.1371 61.9993 82.6192Z" fill="#39180E"/>
<path fill-rule="evenodd" clip-rule="evenodd" d="M51.8692 49.1829C52.2641 48.9209 52.6308 48.6288 52.9999 48.3356C53.3562 48.124 53.7218 47.969 54.0944 47.8752C54.1072 48.0327 54.1318 48.1913 54.1481 48.3512C53.7264 49.0808 53.341 49.826 52.9941 50.588C52.8574 50.3753 52.7243 50.1553 52.5876 49.9438C52.3341 49.5543 51.7922 49.8885 51.9837 50.308C52.1788 50.7347 52.3867 51.1541 52.5911 51.5772C52.5864 51.7118 52.6425 51.8296 52.75 51.9114C55.6129 57.7925 59.0855 63.2841 60.5292 69.8191C60.6004 70.1388 61.0443 69.997 60.9964 69.6869C59.9907 63.2625 56.9771 57.0076 53.5618 51.4943C53.9379 50.9774 54.3058 50.4498 54.6562 49.9041C54.9494 49.9197 55.294 49.6601 55.2367 49.2623C55.2251 49.1793 55.218 49.094 55.2075 49.0087C55.4283 48.6481 55.6491 48.2887 55.8616 47.9209C56.3113 48.0699 56.7575 48.3308 57.1862 48.7178C57.5728 49.0664 58.3391 48.7418 58.1265 48.1541C57.8321 47.3368 57.4537 46.5783 57.0484 45.8331C57.275 45.4245 57.5016 45.0134 57.7305 44.6084C58.0249 44.0843 57.442 43.5158 56.9386 43.7958C56.6641 43.9497 56.4188 44.1396 56.1607 44.3139C55.7273 43.6204 55.28 42.9316 54.8303 42.2357C54.5721 41.8355 53.8946 41.9605 53.911 42.4929C53.9472 43.6696 53.9507 44.8343 53.9893 45.9978C53.4321 46.481 52.8656 46.9545 52.2839 47.4113C51.9031 47.6493 51.5293 47.9197 51.1719 48.2538C50.6895 48.7058 51.3191 49.5471 51.8692 49.1829Z" fill="#39180E"/>
<path fill-rule="evenodd" clip-rule="evenodd" d="M38.9688 40.5446C39.0332 38.8199 39.4416 37.1795 40.2232 35.6302C40.6011 34.8783 41.1195 34.2233 41.7186 33.6309C42.1796 33.1753 42.6874 32.9907 42.9671 32.4109C43.0619 32.2149 42.9425 32.035 42.7307 32.011C41.1944 31.8276 39.8909 33.9761 39.2719 35.088C38.3545 36.7398 38.0082 38.6843 38 40.5446C37.9977 41.1541 38.9454 41.1495 38.9688 40.5446Z" fill="#39180E"/>
<path fill-rule="evenodd" clip-rule="evenodd" d="M41.052 38.3909C40.7974 38.853 41.546 39.2565 41.8323 38.7986C42.3849 37.9121 43.0608 37.1252 43.9772 36.5164C44.4606 36.1926 45.0063 36.0029 45.6094 35.9746C46.04 35.9558 46.4038 36.0564 46.8273 35.9485C46.9822 35.9086 47.0409 35.7567 46.9705 35.6351C46.3979 34.6429 44.8479 35.0169 43.9526 35.3952C42.6173 35.9568 41.6762 37.252 41.052 38.3909Z" fill="#39180E"/>
<path fill-rule="evenodd" clip-rule="evenodd" d="M41.7898 41.916C42.9197 41.1086 44.1269 40.5667 45.5145 40.2695C47.1083 39.9285 48.2614 40.6312 49.5626 41.3583C49.7739 41.4776 50.0664 41.2815 49.9865 41.0514C48.7239 37.326 43.247 39.4974 41.1585 41.1427C40.7062 41.4995 41.3182 42.251 41.7898 41.916Z" fill="#39180E"/>
<path fill-rule="evenodd" clip-rule="evenodd" d="M46.5263 45.0417C47.264 45.5677 47.8095 46.3969 48.5258 46.9502C48.7446 47.1173 49.0824 46.8375 48.9817 46.5032C48.3152 44.3096 46.1386 43.3833 44.4749 43.0088C44.0028 42.9026 43.7911 43.7888 44.2734 43.9404C45.0671 44.1904 45.811 44.5299 46.5263 45.0417Z" fill="#39180E"/>
<path fill-rule="evenodd" clip-rule="evenodd" d="M41.6169 45.1188C41.2793 44.753 40.7815 45.3142 41.1046 45.6942C41.581 46.2523 42.0545 46.8124 42.4756 47.424C42.8103 47.9132 43.08 48.8272 43.6389 48.9899C43.7844 49.0325 43.9077 48.9364 43.9572 48.7857C44.1638 48.1621 43.5729 47.4949 43.2508 47.0341C42.7637 46.3396 42.1816 45.7292 41.6169 45.1188Z" fill="#39180E"/>
<path fill-rule="evenodd" clip-rule="evenodd" d="M38.4461 55.9266C40.381 54.0308 40.272 50.8386 39.3996 48.2296C39.2383 47.7488 38.5822 48.0986 38.73 48.5862C39.4943 51.1268 39.2158 53.2949 38.046 55.5358C37.8712 55.8697 38.2362 56.134 38.4461 55.9266Z" fill="#39180E"/>
<path fill-rule="evenodd" clip-rule="evenodd" d="M33.8517 50.6318C34.7742 50.2729 35.4705 49.6311 35.9297 48.8014C36.2649 48.1943 35.3124 47.6631 34.9581 48.2638C34.5357 48.9789 33.9512 49.4227 33.1309 49.6812C32.4946 49.8819 31.7179 49.8369 31.1579 50.2112C30.9508 50.3488 30.944 50.6086 31.1579 50.7449C31.9114 51.226 33.0819 50.9327 33.8517 50.6318Z" fill="#39180E"/>
<path fill-rule="evenodd" clip-rule="evenodd" d="M32.7517 45.6213C33.3134 45.4527 32.8221 44.9869 32.2668 45.1306C31.6053 45.3015 30.9579 45.3877 30.235 45.371C29.5454 45.3536 28.9837 45.0708 28.3209 45.0028C28.1315 44.9831 27.9588 45.0693 28.0087 45.188C28.5154 46.3865 31.4556 46.0099 32.7517 45.6213Z" fill="#39180E"/>
<path fill-rule="evenodd" clip-rule="evenodd" d="M30.4727 41.9774C31.0132 42.1355 31.2174 41.4177 30.7038 41.2433C28.577 40.5224 28.1883 38.9706 27.7412 37.2138C27.67 36.9344 27.1436 36.9232 27.0817 37.2138C26.6206 39.3774 28.1591 41.3045 30.4727 41.9774Z" fill="#39180E"/>
<path fill-rule="evenodd" clip-rule="evenodd" d="M33.928 40.3201C33.1351 39.011 32.6669 37.6358 32.384 36.1461C32.1315 34.8183 32.4512 33.5067 32.2571 32.1951C32.2178 31.931 31.8702 31.9621 31.7471 32.1278C29.995 34.4758 31.6875 38.6709 33.1161 40.7847C33.4497 41.2792 34.2414 40.8358 33.928 40.3201Z" fill="#39180E"/>
<path fill-rule="evenodd" clip-rule="evenodd" d="M34.99 36.4819C34.8489 35.7426 34.7968 35.0078 34.8016 34.253C34.8074 33.5472 34.9224 32.8591 34.8267 32.1555C34.7997 31.9496 34.56 31.9652 34.4769 32.1032C33.7339 33.3345 34.0112 35.3363 34.2943 36.7023C34.4025 37.2244 35.0905 37.0018 34.99 36.4819Z" fill="#39180E"/>
<path fill-rule="evenodd" clip-rule="evenodd" d="M97.4678 40.1186C96.2806 40.9056 96.4841 43.1543 96.8429 44.4784C96.879 44.6039 96.9549 44.7135 97.056 44.7939C94.8453 43.5843 94.401 40.132 97.4678 40.1186ZM97.7375 41.7169C97.8784 41.1358 98.5575 40.9348 99.0175 40.6534C99.445 41.0067 99.7616 41.4891 99.8206 42.0348C99.9447 43.1896 98.82 43.5843 97.8664 43.6866C97.7038 43.0398 97.5798 42.3722 97.7375 41.7169ZM96.9043 45.9646C97.4871 46.2009 97.9073 45.1874 97.333 44.9389C97.2378 44.8987 97.1512 44.8451 97.062 44.7976C97.1632 44.8755 97.2872 44.9206 97.4161 44.9182C99.1235 44.8707 100.902 44.1544 100.997 42.2005C101.075 40.5633 99.5846 39.2757 98.1241 38.9858C97.6557 38.892 97.1764 38.8932 96.7141 38.9748C96.7574 38.8883 96.7815 38.7884 96.7598 38.6703C96.4961 37.2523 96.5563 35.8368 96.8658 34.4323C97.1993 32.9218 98.1638 31.8389 98.7803 30.4819C98.9091 30.1956 98.6442 29.8837 98.3492 30.0433C95.4642 31.6172 95.1812 36.0975 95.8881 38.9151C95.9157 39.0284 95.976 39.1027 96.0446 39.1551C95.0295 39.5339 94.2131 40.3464 94.0386 41.5268C93.7448 43.5161 95.1716 45.2629 96.9043 45.9646Z" fill="#39180E"/>
<path fill-rule="evenodd" clip-rule="evenodd" d="M98.8653 37.6896C99.2579 36.3382 99.7953 35.0653 100.617 33.9112C101.485 32.6879 102.826 32.3706 103.923 31.4739C104.07 31.3539 103.992 31.0804 103.807 31.0457C102.303 30.748 100.891 31.9609 99.9904 33.0238C98.9249 34.2805 98.3863 35.8869 98.0136 37.4587C97.885 38.0034 98.7087 38.2331 98.8653 37.6896Z" fill="#39180E"/>
<path fill-rule="evenodd" clip-rule="evenodd" d="M102.835 37.8954C103.687 37.2892 104.61 36.9031 105.775 36.8764C106.933 36.8497 107.672 37.5303 108.678 37.8192C108.869 37.8754 109.037 37.7105 108.993 37.5732C108.69 36.619 107.286 36.0432 106.092 36.0032C104.545 35.9517 103.225 36.5284 102.148 37.3578C101.699 37.7029 102.374 38.2243 102.835 37.8954Z" fill="#39180E"/>
<path fill-rule="evenodd" clip-rule="evenodd" d="M104.426 39.9044C105.539 39.9723 106.554 40.3108 107.426 41.0356C108.301 41.7654 108.751 42.8638 109.323 43.8252C109.502 44.1284 110.017 44.0189 110 43.6377C109.861 40.6845 107.102 38.9532 104.426 39.001C103.854 39.011 103.862 39.8704 104.426 39.9044Z" fill="#39180E"/>
<path fill-rule="evenodd" clip-rule="evenodd" d="M107.112 47.8218C107.156 48.029 107.493 48.0642 107.596 47.8815C108.705 45.8838 107.343 43.5547 105.802 42.1331C105.366 41.728 104.721 42.338 105.131 42.7573C105.82 43.4587 106.331 44.2069 106.656 45.1121C106.969 45.9833 106.921 46.926 107.112 47.8218Z" fill="#39180E"/>
<path fill-rule="evenodd" clip-rule="evenodd" d="M100.059 52.6028C99.9428 52.7422 99.9986 53.0209 100.224 52.9988C103.39 52.699 104.643 48.8588 103.687 46.2982C103.495 45.7817 102.672 45.9863 102.841 46.5283C103.215 47.7251 103.185 48.8444 102.61 49.9704C102.027 51.1129 100.853 51.6593 100.059 52.6028Z" fill="#39180E"/>
<path fill-rule="evenodd" clip-rule="evenodd" d="M99.1655 47.3031C98.7436 48.5016 98.1261 49.515 97.3096 50.4573C96.64 51.2296 95.5366 51.672 95.0376 52.568C94.9286 52.7654 95.072 52.9791 95.2699 52.9954C96.4088 53.0866 97.5264 51.8044 98.2209 50.9847C99.047 50.0124 99.5922 48.769 99.9762 47.5381C100.147 46.9895 99.3516 46.7758 99.1655 47.3031Z" fill="#39180E"/>
<path fill-rule="evenodd" clip-rule="evenodd" d="M91.6528 45.9244C92.2655 45.8176 91.9957 44.9965 91.399 45.0803C90.7154 45.1756 90.0318 45.0615 89.5048 44.6353C89.0293 44.2509 88.9424 43.6415 88.6829 43.1419C88.5537 42.8927 88.204 43.0079 88.1148 43.21C87.7696 43.9965 88.2531 44.8636 88.899 45.3924C89.6546 46.0113 90.7005 46.0909 91.6528 45.9244Z" fill="#39180E"/>
<path fill-rule="evenodd" clip-rule="evenodd" d="M89.2371 37.1338C88.6744 38.0356 89.2221 39.293 89.7512 40.1036C90.3399 41.0101 91.3445 41.5868 92.3701 41.9704C92.8942 42.1669 93.2689 41.3283 92.7548 41.1107C91.917 40.7598 91.2337 40.2919 90.7096 39.5773C90.1619 38.8298 90.2478 37.8707 89.7449 37.1338C89.6267 36.9619 89.3528 36.949 89.2371 37.1338Z" fill="#39180E"/>
<path fill-rule="evenodd" clip-rule="evenodd" d="M33.0346 44.1317C33.3125 45.7308 34.8924 46.6618 36.4202 46.9864C37.049 47.121 37.3139 46.2164 36.6863 46.0529C35.6922 45.7887 34.6928 45.2565 34.2884 44.2865C33.9113 43.3857 34.565 42.6975 35.4012 42.3867C36.3602 42.0256 38.0184 41.8357 38.6864 42.7918C39.3113 43.6889 38.0158 44.2827 37.46 44.7306C37.1756 44.9596 37.43 45.3546 37.7366 45.3747C39.2304 45.4767 40.3211 43.9543 39.9141 42.6321C39.3726 40.8594 37.0608 40.8443 35.5617 41.15C34.1057 41.4444 32.7658 42.5905 33.0346 44.1317Z" fill="#39180E"/>
<path fill-rule="evenodd" clip-rule="evenodd" d="M6.69943 81.9967C7.1589 82.052 7.6195 82.1072 8.07897 82.1576C8.03689 82.2681 8.02097 82.3971 8.06532 82.5482C8.23706 83.1328 8.31894 83.7027 8.35192 84.2579C7.79351 83.5074 7.24419 82.7545 6.69943 81.9967ZM11.5398 82.4745C12.2074 82.5224 12.8772 82.5568 13.546 82.5838C13.5073 82.6255 13.4743 82.6722 13.4357 82.7115C12.7658 83.1082 12.13 83.5688 11.533 84.1006C11.5239 83.6229 11.5091 83.1463 11.4886 82.6722C11.5159 82.6145 11.5307 82.5482 11.5398 82.4745ZM13.6984 91.642C13.9031 92.0031 14.1158 92.3556 14.3114 92.7204C14.6196 93.2964 15.5749 92.9034 15.3315 92.2573C15.3133 92.207 15.2917 92.1628 15.2713 92.1136C15.2735 92.1136 15.2735 92.1124 15.2758 92.1124C15.2713 92.1038 15.2644 92.0952 15.2599 92.0866C14.4535 89.9876 13.4095 88.1071 12.1187 86.309C12.0083 86.1592 11.9037 86.0142 11.8036 85.8791C12.6521 85.1631 13.4743 84.4126 14.2363 83.5823C14.6765 83.3416 15.1336 83.123 15.625 82.9473C16.28 82.7177 16.0082 81.6159 15.3384 81.8284C15.3293 81.8309 15.3202 81.837 15.3111 81.8395C15.2519 81.6024 15.0802 81.4084 14.7936 81.4059C13.6984 81.3936 12.6066 81.3371 11.5148 81.2634C11.4704 80.3447 11.376 79.4616 11.144 78.5319C11.1201 78.4348 11.0667 78.3636 11.0052 78.3046C10.9438 78.0074 10.9018 77.7114 10.8324 77.4092C10.713 76.8909 9.89524 76.8369 9.81336 77.4092C9.66096 78.4852 9.43805 79.792 9.31977 81.0915C8.0494 80.9736 6.77904 80.8409 5.50867 80.6948C4.9821 80.6346 4.88088 81.3396 5.12882 81.6835C6.14784 83.0996 7.16117 84.5588 8.23023 85.9639C8.06532 86.718 7.75484 87.4144 7.3022 88.0384C6.66531 88.5837 6.03979 89.1438 5.44953 89.753C4.97642 90.2406 5.58487 91.0696 6.13988 90.7196C6.9303 90.2197 7.57287 89.6142 8.08693 88.9337C8.58507 88.5088 9.09003 88.0887 9.59954 87.6785C10.8369 89.1573 12.1744 90.5194 13.6984 91.642Z" fill="#39180E"/>
<path fill-rule="evenodd" clip-rule="evenodd" d="M137.849 83.0935C137.849 82.6538 137.865 82.2141 137.902 81.7709C138.5 81.6424 139.098 81.5163 139.698 81.396C139.108 81.9901 138.486 82.5512 137.849 83.0935ZM135.809 84.726C135.731 84.6376 135.645 84.5551 135.568 84.4679C135.931 84.1496 136.194 83.7312 136.362 83.275C136.365 83.2691 136.37 83.2632 136.374 83.2573C136.373 83.2573 136.372 83.2561 136.37 83.2561C136.389 83.2066 136.422 83.1654 136.436 83.117C136.645 82.431 135.706 82.1493 135.315 82.6609C135.27 82.721 135.235 82.787 135.19 82.8471C135.059 82.82 134.923 82.8424 134.812 82.9155C134.941 82.7316 135.067 82.5477 135.191 82.3614C135.673 82.2577 136.153 82.154 136.633 82.0479C136.59 82.7269 136.603 83.4035 136.648 84.0754C136.369 84.2946 136.091 84.5127 135.809 84.726ZM132.772 86.8631C132.617 86.9692 132.463 87.0788 132.306 87.1861C132.728 86.3857 133.181 85.6042 133.642 84.8286C133.661 84.9076 133.708 84.9747 133.77 85.0266C133.422 85.629 133.089 86.2407 132.772 86.8631ZM141.226 79.8837C140.164 80.0711 139.105 80.2809 138.051 80.5025C138.195 79.589 138.403 78.6778 138.667 77.7714C138.827 77.2174 138.042 76.7176 137.62 77.1855C136.463 78.4845 135.429 79.8601 134.449 81.2746C133.826 81.4055 133.203 81.5281 132.578 81.6518C130.953 80.4377 129.083 79.5383 126.758 79.1894C125.998 79.0763 125.67 80.1937 126.439 80.3128C128.166 80.5768 129.624 81.1662 130.915 81.9677C129.974 82.1363 129.031 82.2943 128.078 82.4133C127.373 82.5005 127.336 83.5602 128.078 83.506C129.493 83.3988 130.891 83.1901 132.28 82.939C132.516 83.1288 132.744 83.3221 132.97 83.5237C131.938 85.2046 130.984 86.9327 130.128 88.7138C129.888 89.2077 130.418 89.9208 130.983 89.5401C132.534 88.4969 134.106 87.4584 135.633 86.3633C136.52 87.4407 137.377 88.5664 138.267 89.6756C138.3 89.7157 138.333 89.7581 138.364 89.7982C138.812 90.3534 139.66 89.6473 139.34 89.0733C138.536 87.6364 138.106 86.1429 137.932 84.6223C139.34 83.4848 140.664 82.2648 141.834 80.888C142.236 80.4141 141.859 79.7764 141.226 79.8837Z" fill="#39180E"/>
<path fill-rule="evenodd" clip-rule="evenodd" d="M80.1166 51.9851C80.3968 52.5843 80.6966 53.1753 81.0184 53.7558C80.6917 54.0232 80.3528 54.2753 80.0016 54.504C80.0236 53.6655 80.0713 52.8259 80.1166 51.9851ZM76.7345 60.8436C77.4981 60.0356 78.3069 59.2382 79.112 58.4255C79.1181 58.4478 79.1206 58.4677 79.1242 58.4888C79.2992 59.1866 80.3528 58.8828 80.2292 58.198C80.1802 57.9318 80.1484 57.6656 80.1166 57.3994C80.3833 57.1226 80.6476 56.8435 80.9071 56.5597C81.6351 56.6336 82.357 56.7884 83.0667 57.0769C83.5966 57.2927 84.2451 56.8295 83.9061 56.2736C83.5158 55.6357 83.1255 55.0012 82.7376 54.3668C83.1585 53.8004 83.5599 53.2211 83.9049 52.6113C84.2267 52.0449 83.413 51.3764 82.9432 51.8995C82.6091 52.2712 82.2616 52.6254 81.9043 52.969C81.2411 51.8056 80.6354 50.6154 80.1704 49.3477C79.9796 48.8235 79.1915 48.9126 79.1646 49.4767C79.068 51.3905 78.7792 53.3008 78.7682 55.2041C78.5479 55.3073 78.3154 55.3882 78.0854 55.4726C77.2032 55.5864 76.3209 55.767 75.4411 55.9957C74.7718 56.1669 74.8942 57.2 75.6051 57.1648C76.5975 57.1179 77.5115 56.9186 78.3717 56.6195C78.5234 56.5996 78.674 56.5855 78.8245 56.5691C78.8306 56.6489 78.8404 56.7263 78.8477 56.8048C77.7856 57.8814 76.7333 58.9661 75.8719 60.2056C75.5256 60.704 76.3173 61.2845 76.7345 60.8436Z" fill="#39180E"/>
<path fill-rule="evenodd" clip-rule="evenodd" d="M46.0664 64.3436C46.5764 64.6221 47.2518 64.0585 46.9048 63.5947C46.4508 62.9878 45.998 62.3787 45.5427 61.774C45.7778 61.2903 46.0017 60.8065 46.2219 60.3283C46.4545 59.8169 45.5726 59.3786 45.1845 59.7902C44.9731 60.0166 44.7342 60.2118 44.5066 60.4204C43.9071 59.6504 43.2914 58.8882 42.6271 58.1559C42.2739 57.7621 41.5524 58.1859 41.7054 58.6352C42.0649 59.6859 42.412 60.74 42.7279 61.8018C42.2652 62.0958 41.7813 62.3598 41.2751 62.5995C40.6146 62.767 39.9516 63.0255 39.2886 63.3906C38.7028 63.7134 39.0821 64.631 39.7712 64.4113C39.8222 64.3936 39.8695 64.3692 39.9205 64.3547C39.923 64.3536 39.9255 64.3525 39.9255 64.3525C40.535 64.1506 41.1233 63.9198 41.693 63.658C42.1818 63.5404 42.6657 63.486 43.1508 63.4982C42.8087 64.0973 42.4704 64.6987 42.1619 65.3133C41.8833 65.8681 42.6607 66.2642 43.0662 65.786C43.254 65.5619 43.4157 65.3189 43.5886 65.0837C43.7964 65.644 44.7939 65.3644 44.6795 64.7408C44.6198 64.4124 44.5402 64.0873 44.4681 63.7623C44.4805 63.7401 44.4929 63.7201 44.5054 63.699C45.0191 63.8421 45.5365 64.0552 46.0664 64.3436Z" fill="#39180E"/>
<path fill-rule="evenodd" clip-rule="evenodd" d="M16.4339 85.0031C15.9225 84.944 15.8385 85.7504 16.3146 85.877C38.2793 91.6626 62.0949 107.063 60.7994 132.467C60.7604 133.183 61.8648 133.172 61.9147 132.467C63.6316 108.598 39.1146 87.5825 16.4339 85.0031Z" fill="#39180E"/>
<path fill-rule="evenodd" clip-rule="evenodd" d="M29.1734 82.6521C35.097 85.887 40.4635 89.0685 45.3454 93.6785C49.6946 97.7852 53.3465 102.477 57.3452 106.873C57.6871 107.247 58.2148 106.712 57.9073 106.34C50.2592 97.0262 41.8017 85.9393 29.455 82.0186C29.0553 81.8907 28.8191 82.458 29.1734 82.6521Z" fill="#39180E"/>
<path fill-rule="evenodd" clip-rule="evenodd" d="M26.6987 84.8818C27.1846 84.3096 27.5531 83.6298 27.8387 82.8958C28.2307 83.4171 28.6053 83.9501 28.9528 84.4922C29.2904 85.0112 30.1522 84.5431 29.8258 84.0125C29.3349 83.2148 28.7834 82.4623 28.2022 81.7329C28.3284 81.2254 28.4211 80.7052 28.4829 80.1815C28.8378 80.0891 29.1865 79.9781 29.555 79.918C30.2202 79.8105 30.0718 78.9781 29.555 78.7978C29.2397 78.6903 28.9182 78.599 28.5967 78.5042C28.6041 77.8268 28.5757 77.1667 28.5126 76.5621C28.4434 75.9044 27.5494 75.7865 27.2996 76.4084C27.0869 76.9332 26.8693 77.4684 26.6356 77.999C25.6192 77.7794 24.5904 77.6037 23.5604 77.4395C22.9211 77.3366 22.5502 78.0765 23.1153 78.4279C23.9116 78.918 24.63 79.5076 25.315 80.1318C24.0785 80.8266 22.9916 81.7571 22.1174 82.9074C21.7057 83.4484 22.4698 83.9107 22.9756 83.7108C24.4408 83.1328 25.4795 82.1849 26.2943 81.0624C26.4786 81.2578 26.6443 81.4635 26.8198 81.667C26.5243 82.6438 26.0977 83.5871 25.9753 84.602C25.9357 84.9338 26.4761 85.1442 26.6987 84.8818Z" fill="#39180E"/>
<path fill-rule="evenodd" clip-rule="evenodd" d="M120.162 110.17C120.762 110.828 121.546 111.342 122.373 111.629C123.013 111.855 123.26 110.843 122.648 110.602C122.235 110.441 121.861 110.229 121.526 109.969C121.833 109.925 121.832 109.379 121.526 109.334C121.298 109.301 121.066 109.281 120.835 109.254C120.746 109.138 120.655 109.025 120.577 108.894C120.115 108.119 120.111 107.134 119.994 106.26C119.955 105.959 119.475 105.905 119.358 106.175C118.905 107.23 119.029 108.251 119.468 109.137C105.534 108.331 88.5091 119.003 86.0097 133.318C85.8907 134 86.8982 134.298 87.0302 133.607C90.1447 117.37 106.278 112.282 120.162 110.17Z" fill="#39180E"/>
<path fill-rule="evenodd" clip-rule="evenodd" d="M26.0458 107.42C25.0065 106.68 23.7454 106.192 22.6086 106.008C22.0043 105.91 21.7325 106.79 22.3491 106.922C23.3543 107.138 24.2218 107.544 25.0576 108.124C25.9593 108.746 26.5441 109.647 27.3483 110.36C27.6419 110.619 28.1464 110.372 28.0282 109.973C27.8442 109.345 27.4872 108.791 27.0388 108.297C42.2315 108.59 53.636 117.673 56.9709 132.625C57.1195 133.29 58.0906 132.991 57.9931 132.346C55.8426 118.208 41.3201 104.41 26.0458 107.42Z" fill="#39180E"/>
<path fill-rule="evenodd" clip-rule="evenodd" d="M21.9846 97.4374C22.0548 97.2079 21.8726 97.0336 21.6793 97.0087C20.6218 96.8763 19.7084 98.2909 19.3279 99.1928C18.8564 100.306 18.9229 101.526 19.339 102.642C19.5692 103.26 20.5012 103.021 20.298 102.36C20.0026 101.399 20.0014 100.474 20.4261 99.5599C20.8163 98.7261 21.72 98.3013 21.9846 97.4374Z" fill="#39180E"/>
<path fill-rule="evenodd" clip-rule="evenodd" d="M21.8783 102.618C21.9319 101.816 22.2342 101.115 22.8632 100.54C23.4141 100.037 24.1575 100.043 24.8122 99.7336C25.0514 99.6188 25.0736 99.2396 24.8122 99.1311C23.875 98.7435 22.7955 99.2839 22.1058 99.859C21.2737 100.552 20.9843 101.633 21.0007 102.618C21.0112 103.132 21.8444 103.123 21.8783 102.618Z" fill="#39180E"/>
<path fill-rule="evenodd" clip-rule="evenodd" d="M22.7709 104.916C23.5243 104.47 24.3077 104.15 25.2202 104.082C26.1117 104.013 26.7804 104.477 27.6264 104.506C27.9483 104.515 28.0709 104.214 27.9601 103.993C27.5664 103.206 26.422 103.042 25.533 103.003C24.3442 102.951 23.1503 103.503 22.2313 104.106C21.6917 104.46 22.1896 105.261 22.7709 104.916Z" fill="#39180E"/>
<path fill-rule="evenodd" clip-rule="evenodd" d="M22.6246 110.088C22.1559 109.719 21.7458 110.605 22.1919 110.987C24.4561 112.92 24.3215 115.96 23.1919 118.693C23.1015 118.911 23.3122 119.096 23.4622 118.945C26.0019 116.42 25.1673 112.092 22.6246 110.088Z" fill="#39180E"/>
<path fill-rule="evenodd" clip-rule="evenodd" d="M20.0676 114.366C19.9672 115.345 19.4061 116.142 18.363 116.641C17.3622 117.122 16.261 116.749 15.251 117.026C15.0001 117.094 14.9156 117.336 15.0978 117.497C16.0788 118.37 18.1227 117.947 19.2041 117.428C20.5152 116.794 21.0327 115.55 20.9984 114.366C20.9826 113.871 20.1177 113.885 20.0676 114.366Z" fill="#39180E"/>
<path fill-rule="evenodd" clip-rule="evenodd" d="M14.5131 113.411C13.7897 113.398 13.0758 113.381 12.3592 113.316C11.7275 113.259 11.1739 113.066 10.5529 113.004C10.2297 112.97 9.8323 113.167 10.0748 113.355C11.0257 114.101 13.0853 114.008 14.5131 113.982C15.1623 113.97 15.1623 113.424 14.5131 113.411Z" fill="#39180E"/>
<path fill-rule="evenodd" clip-rule="evenodd" d="M11.5538 109.022C10.7783 108.99 10.0616 108.818 9.51482 108.203C8.98611 107.61 9.17631 106.626 8.64194 106.074C8.5491 105.978 8.394 105.972 8.30117 106.074C7.65019 106.791 8.18229 108.216 8.69515 108.868C9.40047 109.768 10.4941 110.008 11.5538 110C12.1504 109.994 12.147 109.047 11.5538 109.022Z" fill="#39180E"/>
<path fill-rule="evenodd" clip-rule="evenodd" d="M13.4949 106.196C13.0348 105.496 12.6572 104.773 12.4003 103.957C12.1206 103.068 12.3214 102.096 12.0047 101.247C11.927 101.041 11.6426 100.891 11.4765 101.102C10.2145 102.684 11.7514 105.515 12.7134 106.86C12.8532 107.056 13.0611 107.109 13.2452 107.072C12.797 109.567 15.3831 111.378 17.3514 111.976C17.9608 112.162 18.2022 111.204 17.6119 110.994C15.9998 110.426 13.9682 108.973 14.4247 106.935C14.7282 105.579 16.0165 104.682 17.2856 104.76C18.2094 104.819 19.1511 105.441 19.6434 106.24C20.241 107.212 19.5514 107.961 18.7723 108.443C18.4843 107.809 18.5201 107.039 18.0839 106.45C17.9106 106.216 17.5975 106.3 17.5629 106.598C17.4374 107.708 17.4505 108.768 18.1628 109.649C18.3373 109.865 18.6348 109.847 18.8535 109.742C20.2493 109.077 21.4444 107.79 20.8385 106.097C20.2995 104.596 18.734 103.75 17.2856 103.574C15.6006 103.371 14.1295 104.642 13.4949 106.196Z" fill="#39180E"/>
<path fill-rule="evenodd" clip-rule="evenodd" d="M15 99.2505C15 99.0443 14.8669 98.9482 14.7581 99.0279C13.7277 99.8144 13.9246 102.39 14.317 103.724C14.4997 104.346 15.0528 103.805 14.8858 103.189C14.6754 102.412 14.6494 101.652 14.7676 100.832C14.8464 100.29 15.0016 99.822 15 99.2505Z" fill="#39180E"/>
<path fill-rule="evenodd" clip-rule="evenodd" d="M127.028 102.349C126.829 102.911 127.75 103.265 128.046 102.75C128.534 101.908 129.09 101.172 129.96 100.636C130.757 100.143 131.83 100.027 132.754 99.8676C133.035 99.8193 133.093 99.4086 132.836 99.2951C130.436 98.2285 127.774 100.24 127.028 102.349Z" fill="#39180E"/>
<path fill-rule="evenodd" clip-rule="evenodd" d="M137.648 103C137.904 103.003 138.095 102.84 137.95 102.722C136.69 101.7 133.201 101.956 131.388 102.322C130.709 102.459 130.992 103.039 131.691 102.905C132.646 102.725 133.578 102.642 134.594 102.657C135.672 102.673 136.599 102.988 137.648 103Z" fill="#39180E"/>
<path fill-rule="evenodd" clip-rule="evenodd" d="M136.717 105.079C136.175 104.734 135.706 105.606 136.225 105.969C137.129 106.594 137.798 107.39 138.325 108.384C138.766 109.217 138.894 110.161 139.454 110.918C139.581 111.086 139.831 110.971 139.882 110.796C140.536 108.606 138.325 106.106 136.717 105.079Z" fill="#39180E"/>
<path fill-rule="evenodd" clip-rule="evenodd" d="M136.076 109.664C136.501 110.347 136.771 111.06 136.935 111.863C137.068 112.507 136.93 113.2 137.148 113.821C137.205 113.991 137.392 114.066 137.52 113.929C138.637 112.736 137.554 110.283 136.809 109.199C136.489 108.734 135.764 109.164 136.076 109.664Z" fill="#39180E"/>
<path fill-rule="evenodd" clip-rule="evenodd" d="M133.962 113.54C134.218 114.527 134.134 115.377 133.681 116.286C133.267 117.116 132.531 117.685 132.045 118.463C131.894 118.705 132.148 119.096 132.432 118.979C134.545 118.101 135.453 115.44 134.783 113.307C134.616 112.773 133.818 112.99 133.962 113.54Z" fill="#39180E"/>
<path fill-rule="evenodd" clip-rule="evenodd" d="M130.27 116.166C129.593 117.024 128.847 117.727 127.934 118.255C127.072 118.756 126.118 118.62 125.22 118.936C124.962 119.027 124.922 119.396 125.147 119.559C127.168 121.02 129.74 118.522 130.898 116.865C131.238 116.376 130.654 115.677 130.27 116.166Z" fill="#39180E"/>
<path fill-rule="evenodd" clip-rule="evenodd" d="M126.31 116.513C125.319 116.776 124.346 116.929 123.31 116.891C122.206 116.849 121.468 116.161 120.455 116.006C120.191 115.964 119.938 116.146 120.014 116.401C120.28 117.322 121.473 117.69 122.415 117.886C123.799 118.173 125.29 117.873 126.607 117.484C127.292 117.283 127.011 116.327 126.31 116.513Z" fill="#39180E"/>
<path fill-rule="evenodd" clip-rule="evenodd" d="M120.598 111.015C120.481 110.976 120.296 111.015 120.217 111.115C119.584 111.919 120.478 112.999 121.102 113.549C121.96 114.302 123.099 114.707 124.193 114.977C125.006 115.182 125.346 113.96 124.54 113.743C123.651 113.504 122.778 113.19 122.059 112.603C121.503 112.151 121.281 111.252 120.598 111.015Z" fill="#39180E"/>
<path fill-rule="evenodd" clip-rule="evenodd" d="M123.573 104.031C122.929 104.34 122.999 105.102 123.005 105.66C123.009 106.113 123.786 106.113 123.792 105.66C123.8 105.197 123.844 104.762 123.988 104.316C124.06 104.095 123.786 103.928 123.573 104.031Z" fill="#39180E"/>
<path fill-rule="evenodd" clip-rule="evenodd" d="M129.353 109.598C129.67 109.278 129.354 108.786 128.913 108.881C127.738 109.13 126.417 110.146 126.404 111.376C126.39 112.381 127.42 112.991 128.294 113.294C130.412 114.03 133.598 113.339 133.953 110.905C134.472 107.361 130.585 104.989 127.318 106.427C125.791 107.097 124.561 108.322 124.127 109.883C123.62 111.705 124.701 113.37 126.158 114.467C126.367 114.626 126.588 114.766 126.809 114.906C127.414 115.292 127.947 114.384 127.373 113.992C126.136 113.153 125.007 111.917 125.256 110.375C125.445 109.217 126.358 108.284 127.373 107.695C129.859 106.248 132.862 107.762 132.751 110.599C132.685 112.314 130.348 112.537 129.012 112.232C128.536 112.124 127.834 111.894 127.695 111.387C127.522 110.754 129.004 109.95 129.353 109.598Z" fill="#39180E"/>
<path fill-rule="evenodd" clip-rule="evenodd" d="M61.5785 21.1958C60.9992 23.4527 60.4054 26.2677 60.7041 28.729C60.6981 28.7192 60.6921 28.7118 60.686 28.6996C58.6543 25.302 58.7982 19.5704 64.1242 20.6157C64.4846 20.6879 64.8426 20.8029 65.1982 20.9253C65.0204 20.9608 64.8523 21.071 64.8293 21.301C64.6056 23.4539 64.3528 25.597 64.0444 27.7388C63.8219 29.2761 63.4216 30.7913 63.2317 32.3285C62.6295 31.5611 62.0465 30.779 61.5035 29.9602C61.7744 28.9211 61.7527 27.8478 61.7865 26.7683C61.8434 24.9642 61.974 23.1736 62.3295 21.4051C62.4275 20.9143 61.7055 20.7026 61.5785 21.1958ZM69.5833 23.8688C68.5674 26.7303 67.4464 29.5478 66.4632 32.424C66.2733 32.9857 65.7714 34.0946 66.1221 34.7029C66.4414 35.2512 66.9638 34.7629 67.0654 34.3553C67.0799 34.2966 67.063 34.2525 67.0557 34.2048C67.0654 34.1901 67.0787 34.1815 67.0872 34.1656C67.2263 33.9074 67.2928 33.605 67.3762 33.3248C67.6919 32.2587 68.0414 31.205 68.3933 30.1499C69.0101 28.2982 69.6123 26.4366 70.2001 24.5713C70.4214 24.8418 70.6282 25.1184 70.8253 25.4036C70.1408 27.745 69.3729 30.0545 68.588 32.3652C68.1901 33.5377 67.3291 35.0591 66.9167 36.4568C66.1681 35.6918 65.4352 34.9134 64.7313 34.1105C65.3034 32.7385 65.7762 31.331 66.2007 29.9076C66.2056 29.8978 66.2092 29.8905 66.214 29.8807C66.2152 29.8758 66.2128 29.8733 66.214 29.8684C66.6155 28.5246 67.0025 27.1771 67.4621 25.8516C67.6362 25.351 66.8671 25.149 66.6857 25.6337C65.896 27.7462 65.2284 29.899 64.4363 32.0078C64.2403 32.3848 64.0613 32.7691 63.8908 33.1595L63.886 33.1559C65.4449 29.6396 65.3747 25.0426 65.6626 21.301C65.6698 21.1958 65.6263 21.1322 65.5827 21.0685C67.0485 21.656 68.4356 22.6608 69.5833 23.8688ZM71.5364 26.5724C71.7094 26.8968 71.8581 27.2248 71.99 27.5528C70.8411 30.7007 69.1298 34.7041 68.865 38.3538C68.5674 38.0687 68.2603 37.7896 67.9676 37.4995C68.7307 36.316 69.0814 34.5071 69.4793 33.3639C70.2557 31.1352 70.916 28.8563 71.5364 26.5724ZM72.4423 40.694C72.8897 40.0477 73.29 39.3685 73.6553 38.6659C73.7738 38.6733 73.8935 38.6414 73.9673 38.5093C76.3255 34.3321 77.1261 29.2259 78.8846 24.7623C79.1216 24.1662 78.1734 23.9166 77.9364 24.5004C77.8518 24.7109 77.7707 24.9324 77.6849 25.1466C77.9292 24.0536 78.1807 22.979 78.4552 21.9436C79.592 20.7625 80.874 19.3146 81.192 17.6611C81.1944 17.6477 81.1872 17.6367 81.1872 17.6207C81.3323 17.573 81.4762 17.5143 81.625 17.4727C84.906 16.5547 84.75 20.5777 84.4319 22.6253C83.7256 27.1868 81.267 31.2613 78.4492 35.0713C78.9704 33.8094 79.4336 32.5194 79.8605 31.2135C79.9681 31.216 80.0782 31.189 80.1471 31.0862C81.5125 29.0447 82.4594 26.6863 83.5285 24.4759C83.7643 23.9875 83.0496 23.5579 82.8029 24.0475C82.1861 25.2714 81.5198 26.4904 80.903 27.7327C81.7362 24.7525 82.4486 21.7392 83.2177 18.8263C83.364 18.278 82.5393 18.0516 82.3808 18.5938C80.2608 25.8356 78.2484 32.8817 74.9227 39.6132C74.2515 40.4602 73.5899 41.2973 72.9587 42.1272C72.5644 41.7771 72.1786 41.4197 71.7892 41.0623C71.8436 40.94 71.8835 40.8078 71.9343 40.6842C72.0287 40.8531 72.308 40.8898 72.4423 40.694ZM73.3977 26.6141C74.012 23.6938 75.6265 21.4442 77.8324 19.519C78.5979 18.8496 79.4771 18.3123 80.4096 17.9108C79.4796 19.0246 78.7249 20.2766 77.7042 21.3243C77.6099 21.4234 77.576 21.5299 77.5724 21.6352C76.2772 26.0217 74.8961 30.4045 73.5779 34.7922C74.1426 31.6505 74.3905 28.4083 74.7558 25.3718C74.8066 24.9557 74.0979 24.859 74.0326 25.2726C73.9177 25.9923 73.7871 26.7022 73.6637 27.4145C73.5488 27.1893 73.2114 27.1159 73.0155 27.2933C72.9986 27.2737 72.9937 27.2444 72.9756 27.2285C72.9466 27.1403 72.9224 27.0522 72.8909 26.9616C73.1122 26.9788 73.3457 26.8723 73.3977 26.6141ZM70.2714 39.6806C70.2001 39.6132 70.1251 39.5496 70.055 39.4823C70.4311 37.9255 70.5943 36.2658 70.9656 34.7323C71.0551 34.3639 71.1724 34.0028 71.2704 33.6356C70.8169 35.6453 70.4601 37.6843 70.2714 39.6806ZM63.3829 34.5107C63.3466 34.627 63.2982 34.7335 63.2656 34.851C63.1132 35.3687 63.7917 35.7371 64.1339 35.4164C65.5864 37.1458 67.196 38.8348 68.894 40.3672C68.9145 40.5789 68.9121 40.8004 68.9484 41.0073C69.0125 41.3671 69.4817 41.2802 69.5882 41.0073C69.5894 41.0024 69.5906 40.9963 69.5918 40.9926C69.7768 41.1505 69.9667 41.2998 70.1529 41.4565C70.136 41.8946 70.1154 42.3352 70.1191 42.7673C70.1215 42.9961 70.4734 43.1295 70.5774 42.8933C70.6935 42.6228 70.7794 42.3352 70.8822 42.0586C71.3333 42.4148 71.788 42.7538 72.25 43.072C72.2076 43.132 72.1629 43.1907 72.1206 43.2483C71.7614 43.739 72.5124 44.2433 72.9187 43.8712C72.9949 43.8002 73.0687 43.7195 73.1449 43.6485C73.5295 43.766 73.8995 43.3584 73.8064 42.9961C77.7719 39.049 80.9997 33.7091 83.4705 28.8085C84.825 26.122 87.4783 20.1151 84.9459 17.3331C80.6164 12.5794 73.3082 21.7368 72.4955 26.0596C72.3334 25.7377 72.146 25.4158 71.938 25.0976C71.9996 24.7843 71.7807 24.575 71.5304 24.5334C68.1405 19.9217 60.6026 16.1888 58.277 22.875C57.0313 26.4549 60.2772 30.4963 62.257 33.0824C62.6198 33.5561 62.9971 34.0334 63.3829 34.5107Z" fill="#39180E"/>
<path fill-rule="evenodd" clip-rule="evenodd" d="M62.8518 30.8404C63.5407 29.67 63.5604 28.2897 63.7375 27.0094C63.9479 25.4992 64.013 23.9705 63.9979 22.4542C63.9919 21.8474 62.867 21.8498 62.8443 22.4542C62.8004 23.7851 62.6581 25.1037 62.4688 26.4261C62.2644 27.8411 61.7739 29.3512 62.1206 30.7637C62.1857 31.0319 62.7035 31.0912 62.8518 30.8404Z" fill="#39180E"/>
<path fill-rule="evenodd" clip-rule="evenodd" d="M11.232 60.6945C11.8681 61.3809 12.4854 62.0835 13.1085 62.7839C13.6371 63.3722 14.2449 64.2932 15.0004 64.7029C14.8751 64.6877 14.7545 64.69 14.6303 64.6713C13.1109 64.4589 11.6387 63.2975 11.1043 61.8653C10.947 61.4474 11.0321 61.0575 11.232 60.6945ZM12.1957 59.658C12.2004 59.7607 12.2359 59.8669 12.3293 59.9627C13.2953 60.949 14.2638 61.9341 15.2594 62.8925C15.9145 63.5239 16.6783 64.3655 17.5486 64.7647C16.9657 64.7962 16.3792 64.8032 15.7832 64.7659C15.8447 64.69 15.8802 64.5896 15.8554 64.4752C15.6721 63.6068 14.7048 62.8983 14.1219 62.2563C13.3958 61.4532 12.6438 60.6747 11.8705 59.916C11.9745 59.8261 12.0857 59.742 12.1957 59.658ZM13.6702 58.716C13.7045 58.695 13.7435 58.681 13.7801 58.6623C14.6043 59.686 15.4143 60.719 16.2538 61.731C17.0319 62.6695 17.9731 63.95 19.1118 64.5838C18.8682 64.6165 18.6294 64.6737 18.3846 64.697C18.4248 64.5931 18.4367 64.4799 18.3787 64.3667C17.9045 63.4644 16.8049 62.7967 16.0493 62.1139C15.0253 61.1824 14.0202 60.2346 13.021 59.2798C12.9749 59.2343 12.9241 59.2086 12.8732 59.1864C13.1688 58.9997 13.4514 58.8398 13.6702 58.716ZM15.8234 57.7519C15.8045 57.8172 15.7998 57.8919 15.8341 57.9702C16.3555 59.2168 16.9562 60.412 17.674 61.5606C17.7165 61.6295 17.7709 61.7077 17.8147 61.7801C17.5309 61.5104 17.2589 61.2443 17.0201 60.9758C16.2136 60.0712 15.4155 59.1607 14.6138 58.2503C15.0111 58.0694 15.4155 57.906 15.8234 57.7519ZM16.942 57.3387C17.7485 58.6868 18.5123 60.0584 19.3081 61.4135C19.6191 61.947 19.9265 62.5166 20.2659 63.0605C19.7255 62.3707 19.0716 61.7299 18.5809 61.0365C17.8218 59.9627 17.1844 58.8257 16.6251 57.6422C16.5932 57.5768 16.5495 57.5336 16.4986 57.4997C16.6464 57.4461 16.7942 57.39 16.942 57.3387ZM18.5726 56.7084C19.1887 58.0238 19.9088 59.2786 20.6999 60.5019C21.4153 61.6108 22.1342 62.8819 23.2114 63.685C22.8354 63.7842 22.4582 63.8928 22.081 63.9838C21.6376 62.8855 20.8394 61.8863 20.2328 60.8813C19.45 59.5821 18.6625 58.2853 17.8584 56.9978C18.0997 56.9068 18.335 56.8064 18.5726 56.7084ZM17.2909 50.2429C17.3086 50.2955 17.3322 50.3468 17.3724 50.397C19.035 52.4362 20.6904 54.4824 22.3045 56.5601C22.8614 57.2791 23.3888 58.0355 23.9232 58.7896C23.6229 58.4429 23.3237 58.0962 23.0411 57.7437C21.9533 56.3874 20.9033 55.003 19.7575 53.6898C19.411 53.293 18.8493 53.8626 19.1804 54.2571C19.4784 54.6155 19.7716 54.9972 20.0625 55.3894C19.6995 55.1839 19.1579 55.5563 19.4441 55.959C21.0558 58.2211 22.8247 61.4019 25.38 62.729C25.6484 62.8691 26.0469 62.5633 25.8341 62.2796C25.6508 62.0357 25.4356 61.8197 25.2346 61.5921C25.4084 61.7229 25.5775 61.8676 25.7596 61.9855C25.9819 62.1291 26.2338 61.8851 26.1664 61.6598C26.3626 61.8793 26.5459 62.1092 26.754 62.3135C27.0272 62.582 27.3831 62.2423 27.2495 61.9341C26.5731 60.3595 25.4876 58.9343 24.3844 57.5628C24.6907 57.8616 24.9945 58.1651 25.3162 58.4371C25.594 58.674 26.0115 58.381 25.8294 58.046C24.7108 55.9998 23.0482 54.1754 21.6825 52.2763C20.1382 50.1286 18.7015 47.9038 17.3133 45.6556C17.2329 45.5296 17.1206 45.4782 17.0059 45.4712C17.7556 44.4254 20.0968 46.4821 20.6124 47.1544C23.9102 51.4627 26.0434 57.3165 27.6905 62.4711C26.3331 62.8259 24.9945 63.2053 23.656 63.566C23.6678 63.5239 23.6737 63.4796 23.6607 63.4341C23.2682 62.1641 22.282 61.1077 21.5323 60.0222C20.6762 58.7826 19.9171 57.4904 19.2726 56.1341C19.2691 56.0757 19.2585 56.0173 19.236 55.9601C19.3093 55.8201 19.3282 55.6497 19.2265 55.4664C18.3208 53.8311 17.7579 52.0405 17.2909 50.2429ZM17.1797 49.8239C16.8924 48.6765 16.7268 47.5081 16.7718 46.3245C18.0299 48.5259 19.3601 50.9666 20.882 53.2428C19.9242 52.0849 18.9569 50.9351 17.9885 49.7865C17.6763 49.4177 17.1903 49.8216 17.2838 50.2138C17.2495 50.083 17.2128 49.9546 17.1797 49.8239ZM19.923 65.6997C22.418 65.381 26.3697 64.9632 28.5005 63.3395C28.815 63.2905 29.0917 63.0314 28.9711 62.645C27.6941 58.5935 25.9393 54.647 24.0486 50.8417C22.7325 48.1874 21.1031 44.7487 17.8525 44.0612C13.3639 43.1122 16.9811 53.4844 18.1245 55.722C17.7993 55.8026 17.4552 55.8983 17.0969 56.0057C16.9101 55.959 16.7055 56.0337 16.5849 56.1761C15.6673 56.4796 14.7001 56.8554 13.7908 57.3177C13.7577 57.2803 13.7246 57.2441 13.6926 57.2068C13.3438 56.8181 12.8247 57.3177 13.0447 57.7227C10.3227 59.3102 8.57735 61.6283 11.556 64.4367C13.7388 66.4958 17.1986 66.051 19.923 65.6997Z" fill="#39180E"/>
<path fill-rule="evenodd" clip-rule="evenodd" d="M20.0537 47.6543C21.4083 50.4002 22.8097 53.5258 24.5913 55.9167C24.7463 56.1256 25.0651 55.9063 24.9882 55.6479C24.0963 52.6384 22.065 49.9577 20.6992 47.2132C20.4573 46.7238 19.8107 47.1649 20.0537 47.6543Z" fill="#39180E"/>
<path fill-rule="evenodd" clip-rule="evenodd" d="M117.075 61.252C117.251 61.1632 117.326 61.0263 117.341 60.8822C118.291 60.5017 119.217 60.0778 120.076 59.552C120.032 59.6756 119.975 59.7945 119.934 59.9194C119.84 60.2015 119.974 60.3888 120.168 60.4812C117.1 61.623 114.138 63.4575 111.447 65.0819C110.903 65.4097 111.393 66.2489 111.945 65.9296C115.585 63.8225 119.547 62.4226 123.205 60.408C123.626 60.1775 123.33 59.5808 122.894 59.672C122.734 59.7045 122.577 59.7561 122.418 59.7933C124.035 59.0573 125.747 58.774 127.6 58.7956C128.31 58.804 129.001 58.8953 129.623 59.0585C129.148 59.3467 128.682 59.6504 128.213 59.9482C128.178 59.9086 128.131 59.8809 128.065 59.905C127.117 60.2315 126.191 60.6109 125.273 61.0095C125.234 60.9843 125.189 60.9711 125.144 60.9783C120.373 61.9376 115.722 64.6966 111.194 66.4602C110.579 66.7004 110.842 67.6932 111.47 67.4555C112.841 66.9345 114.312 66.4266 115.799 65.8947C115.509 66.0508 115.22 66.2033 114.929 66.3594C113.883 66.8912 112.839 67.4219 111.798 67.9646C111.199 68.2779 111.725 69.1364 112.323 68.8578C116.291 66.9981 120.203 64.9187 124.01 62.706C123.991 62.718 123.971 62.73 123.953 62.7432C121.794 64.2067 119.421 65.4421 117.358 67.0281C117.074 67.2454 117.22 67.7713 117.622 67.6488C118.446 67.4003 119.246 67.0509 120.033 66.6619C119.232 67.1794 118.457 67.7245 117.755 68.3452C114.899 68.8422 112.033 69.1976 109.344 69.6322C109.309 69.6382 109.288 69.6562 109.257 69.6658C109.891 68.0822 110.282 66.3366 110.611 64.5561C112.808 63.5344 114.923 62.3614 117.075 61.252ZM111.224 61.0767C112.426 60.3264 113.518 59.3479 114.588 58.4618C116.355 57.0007 118.047 55.4579 119.665 53.8347C120.065 53.4337 119.453 52.8238 119.046 53.2164C117.555 54.6499 115.989 55.9874 114.385 57.2913C113.46 58.0404 112.457 58.756 111.522 59.5328C111.716 58.5819 111.936 57.6526 112.217 56.7726C112.218 56.7666 112.221 56.7606 112.223 56.7534C112.388 56.6561 112.548 56.5421 112.71 56.4328C112.492 56.727 112.29 57.0283 112.142 57.3537C112.016 57.6298 112.288 57.9876 112.59 57.8003C113.842 57.0211 114.833 55.8001 115.923 54.8168C117.197 53.669 118.485 52.5369 119.69 51.3183C119.81 51.197 119.839 51.0613 119.819 50.9317C119.978 50.8308 120.133 50.7216 120.297 50.6219C120.768 50.3398 120.353 49.6314 119.871 49.8932C118.209 50.7888 116.672 51.8477 115.184 53.0027C114.5 53.5346 113.746 54.0664 113.027 54.6343C114.185 52.0254 116.068 49.3973 118.933 49.0563C123.759 48.4825 121.9 54.7088 121.266 56.5013C121.005 57.2372 120.703 57.9576 120.411 58.6803C120.394 58.6803 120.383 58.6719 120.366 58.6743C118.621 58.9169 116.782 59.5604 115.008 60.3948C115.091 60.3264 115.176 60.2567 115.261 60.1895C117.32 58.5495 119.315 56.8386 121.184 54.9825C121.665 54.5083 120.929 53.7771 120.443 54.2453C118.737 55.889 116.929 57.4101 115.079 58.888C113.799 59.9098 112.328 60.8714 111.067 61.988C111.12 61.6854 111.17 61.3781 111.224 61.0767ZM130.308 59.2806C130.739 59.4439 131.117 59.6456 131.431 59.8773C130.336 60.7418 129.2 61.5534 128.095 62.4058C126.935 63.2991 125.451 64.2956 124.808 65.6462C124.631 66.0136 125.013 66.5191 125.414 66.2513C126.557 65.4913 127.5 64.3988 128.579 63.5404C129.767 62.5931 130.994 61.6915 132.178 60.7334C132.503 61.4009 132.367 62.1969 131.544 63.0565C131.602 62.6267 131.184 62.1621 130.744 62.4814C129.166 63.6304 127.387 64.5549 126.086 66.034C126.041 66.0844 126.026 66.1385 126.019 66.1913C124.296 66.854 122.493 67.3655 120.648 67.7725C121.501 67.1986 122.319 66.5647 123.126 65.98C124.948 64.6701 126.697 63.251 128.454 61.8559C128.76 61.6122 128.552 61.1668 128.249 61.0467C128.879 60.5713 129.51 60.1055 130.133 59.6768C130.284 59.5748 130.33 59.4211 130.308 59.2806ZM108 70.5879C108.001 70.9829 108.579 71.1726 108.768 70.7968C108.837 70.6623 108.885 70.5171 108.949 70.3814C109.051 70.6515 109.31 70.8784 109.671 70.8184C115.58 69.8663 121.804 69.2672 127.339 66.8384C129.632 65.8323 134.118 64.1779 133.998 60.9927C133.819 56.2155 124.911 57.4605 121.458 59.0934C122.634 56.5253 124.276 53.1684 122.778 50.688C121.225 48.1175 119.178 47.2662 116.41 48.6781C113.576 50.1261 112.083 53.5682 111.083 56.5097C111.059 56.5421 111.025 56.5709 111.002 56.6021C110.941 56.6825 110.942 56.775 110.966 56.8662C110.9 57.0643 110.83 57.2684 110.768 57.4593C109.508 61.3913 107.989 66.4422 108 70.5879Z" fill="#39180E"/>
<path fill-rule="evenodd" clip-rule="evenodd" d="M110.791 84.3718C109.621 84.7222 109.878 83.0946 109.403 82.5193C109.287 82.3773 109.061 82.4033 108.942 82.5193C108.299 83.1301 108.566 84.4203 109.131 85.0264C109.659 85.5922 110.38 85.7047 111.112 85.5401C112.477 85.2347 113.668 83.6284 112.568 82.4175C111.004 80.6893 108.013 80.507 106.307 82.06C105.509 82.7845 105.315 83.8557 105.458 84.8725C105.517 85.2998 105.752 85.9828 106.1 86.5096C98.8135 91.2574 91.5898 100.228 89.0205 108.396C88.8618 108.903 89.6705 109.258 89.8907 108.761C93.8442 99.8145 100.161 93.9812 106.735 87.1346C107.001 87.2766 107.295 87.3062 107.612 87.1192C107.786 87.0186 107.907 86.8197 107.901 86.6185C107.882 86.1012 107.346 85.7863 107.082 85.3697C107.015 85.2643 106.925 85.2075 106.835 85.1767C106.474 84.2629 106.5 83.3053 107.501 82.627C108.784 81.7594 110.518 82.2565 111.61 83.1763C112.204 83.6746 111.237 84.2392 110.791 84.3718Z" fill="#39180E"/>
<path fill-rule="evenodd" clip-rule="evenodd" d="M54.0469 118.763C54.396 119.306 55.2519 118.821 54.9282 118.256C51.9775 113.13 46.9757 108.398 41.444 106.032C41.0852 105.879 40.8282 106.309 41.1398 106.54C46.0774 110.201 50.6986 113.532 54.0469 118.763Z" fill="#39180E"/>
<path fill-rule="evenodd" clip-rule="evenodd" d="M40.5349 123.006C40.1041 122.931 39.7602 123.559 40.2148 123.785C44.3623 125.83 49.5177 125.539 52.374 129.844C52.6108 130.203 53.1713 129.881 52.9488 129.502C50.3877 125.147 45.1549 123.812 40.5349 123.006Z" fill="#39180E"/>
<path fill-rule="evenodd" clip-rule="evenodd" d="M102.727 123.054C100.405 122.662 97.5169 124.482 95.5992 125.798C93.417 127.299 91.6385 129.487 91.0173 132.311C90.8631 133.009 91.7857 133.291 91.9698 132.609C92.7129 129.863 94.5443 128.004 96.6713 126.562C98.6028 125.254 100.919 125.039 102.819 123.836C103.082 123.668 103.064 123.11 102.727 123.054Z" fill="#39180E"/>
<path fill-rule="evenodd" clip-rule="evenodd" d="M32.1628 120.243C31.2888 122.695 34.1095 124.989 36.423 125C36.9638 125.003 36.9537 124.235 36.423 124.201C34.7198 124.089 32.8506 122.45 33.1334 120.698C33.3768 119.182 36.1605 118.514 37.3038 119.47C38.0319 120.078 38.0791 121.314 37.7054 122.112C37.1792 123.235 36.368 121.564 35.9731 121.121C35.7958 120.925 35.393 121.076 35.4211 121.342C35.5703 122.788 37.1983 124.498 38.4527 122.895C39.3839 121.705 39.0709 119.618 37.9366 118.669C36.2233 117.236 32.8686 118.265 32.1628 120.243Z" fill="#39180E"/>
<path fill-rule="evenodd" clip-rule="evenodd" d="M39.5656 82.0427C40.8693 83.2985 42.161 84.5736 43.4104 85.8849C43.7363 86.2263 44.189 85.7329 43.9162 85.3807C42.7863 83.9439 41.6214 82.5699 40.3418 81.267C39.2276 80.1306 37.9964 78.7144 36.5381 78.034C36.246 77.8977 35.8488 78.1944 36.0589 78.5129C36.9461 79.8652 38.4044 80.9196 39.5656 82.0427Z" fill="#39180E"/>
<path fill-rule="evenodd" clip-rule="evenodd" d="M84.0242 76.4952C83.8613 76.9184 84.5668 77.2136 84.7603 76.8038C87.4782 70.9889 91.8435 66.6902 95.8696 61.8232C96.2701 61.3377 95.665 60.7265 95.1775 61.1327C90.3933 65.1362 86.2534 70.6851 84.0242 76.4952Z" fill="#39180E"/>
<path fill-rule="evenodd" clip-rule="evenodd" d="M99.9517 59.5557C98.9311 60.4837 98.5378 62.3116 99.7322 63.2688C100.757 64.092 102.254 63.3078 102.985 62.4224C104.457 60.6371 104.432 57.3552 102.223 56.3505C100.485 55.5602 98.2001 56.163 96.882 57.5914C94.9778 59.6556 96.5065 62.3481 98.1745 63.8704C98.6358 64.2905 99.301 63.594 98.8442 63.1361C97.7344 62.0242 96.3806 60.2876 97.4347 58.6424C98.1901 57.4636 99.8124 57.058 101.044 57.1762C102.514 57.3174 103.165 58.5669 102.927 60.0806C102.735 61.2765 102.064 62.4602 100.845 62.4979C99.4358 62.5442 100.317 60.653 100.524 59.9199C100.633 59.535 100.198 59.3329 99.9517 59.5557Z" fill="#39180E"/>
<path fill-rule="evenodd" clip-rule="evenodd" d="M64.8395 59.7487C65.4353 54.7612 64.3708 49.3692 61.6709 45.1693C61.4525 44.8324 60.8888 45.034 61.0194 45.4598C62.5111 50.3209 64.2153 54.5145 64.3458 59.7487C64.3541 60.0931 64.8004 60.0743 64.8395 59.7487Z" fill="#39180E"/>
<path fill-rule="evenodd" clip-rule="evenodd" d="M82.0001 47.541C82.0037 48.1567 82.8897 48.1493 82.9194 47.541C83.1365 43.1373 84.8422 39.5306 85.9856 35.3881C86.0877 35.0202 85.6191 34.8632 85.4234 35.1428C83.0273 38.5631 81.9871 43.3776 82.0001 47.541Z" fill="#39180E"/>
<path fill-rule="evenodd" clip-rule="evenodd" d="M32 70C30.6667 70 30.6667 72 32 72C33.3333 72 33.3333 70 32 70Z" fill="#39180E"/>
<path fill-rule="evenodd" clip-rule="evenodd" d="M24.9996 69C23.6668 69 23.6668 71 24.9996 71C26.3335 71 26.3335 69 24.9996 69Z" fill="#39180E"/>
<path fill-rule="evenodd" clip-rule="evenodd" d="M24.9991 126C23.667 126 23.667 128 24.9991 128C26.3336 128 26.3336 126 24.9991 126Z" fill="#39180E"/>
<path fill-rule="evenodd" clip-rule="evenodd" d="M16.5 127C15.8333 127 15.8333 129 16.5 129C17.1667 129 17.1667 127 16.5 127Z" fill="#39180E"/>
<path fill-rule="evenodd" clip-rule="evenodd" d="M20.5 72C21.1667 72 21.1667 71 20.5 71C19.8333 71 19.8333 72 20.5 72Z" fill="#39180E"/>
<path fill-rule="evenodd" clip-rule="evenodd" d="M77.4891 67.71C78.5294 68.602 79.4007 67.2924 78.8069 65.7335C78.0168 63.6579 76.1052 66.525 77.4891 67.71Z" fill="#39180E"/>
<path fill-rule="evenodd" clip-rule="evenodd" d="M80.4996 63C79.8335 63 79.8335 64 80.4996 64C81.1668 64 81.1668 63 80.4996 63Z" fill="#39180E"/>
<path fill-rule="evenodd" clip-rule="evenodd" d="M106 53C107.333 53 107.333 51 106 51C104.667 51 104.667 53 106 53Z" fill="#39180E"/>
<path fill-rule="evenodd" clip-rule="evenodd" d="M117.24 80.0045C115.587 80.0702 115.587 81.9298 117.24 81.9954C117.673 82.0131 118.003 81.9846 118.398 81.824C119.201 81.4977 119.201 80.5022 118.398 80.176C118.003 80.0163 117.673 79.9869 117.24 80.0045Z" fill="#39180E"/>
<path fill-rule="evenodd" clip-rule="evenodd" d="M114 79C115.333 79 115.333 77 114 77C112.667 77 112.667 79 114 79Z" fill="#39180E"/>
<path fill-rule="evenodd" clip-rule="evenodd" d="M105.751 119.522C105.774 119.501 105.793 119.48 105.815 119.46C106.062 119.223 106.062 118.778 105.815 118.541C105.793 118.52 105.774 118.5 105.751 118.477C104.932 117.679 103 117.901 103 119C103 120.1 104.932 120.321 105.751 119.522Z" fill="#39180E"/>
<path fill-rule="evenodd" clip-rule="evenodd" d="M105.5 124C104.833 124 104.833 126 105.5 126C106.167 126 106.167 124 105.5 124Z" fill="#39180E"/>
<path fill-rule="evenodd" clip-rule="evenodd" d="M109 121C107.667 121 107.667 123 109 123C110.333 123 110.333 121 109 121Z" fill="#39180E"/>
<path fill-rule="evenodd" clip-rule="evenodd" d="M114.999 124C113.667 124 113.667 126 114.999 126C116.334 126 116.334 124 114.999 124Z" fill="#39180E"/>
<path fill-rule="evenodd" clip-rule="evenodd" d="M54 38C55.3333 38 55.3333 35 54 35C52.6667 35 52.6667 38 54 38Z" fill="#39180E"/>
<path fill-rule="evenodd" clip-rule="evenodd" d="M49.5 33C50.1667 33 50.1667 31 49.5 31C48.8333 31 48.8333 33 49.5 33Z" fill="#39180E"/>
<path fill-rule="evenodd" clip-rule="evenodd" d="M89.0005 33C90.3332 33 90.3332 32 89.0005 32C87.6665 32 87.6665 33 89.0005 33Z" fill="#39180E"/>
<path fill-rule="evenodd" clip-rule="evenodd" d="M121 74C119.667 74 119.667 76 121 76C122.333 76 122.333 74 121 74Z" fill="#39180E"/>
<path fill-rule="evenodd" clip-rule="evenodd" d="M118 76C116.667 76 116.667 78 118 78C119.333 78 119.333 76 118 76Z" fill="#39180E"/>
<path fill-rule="evenodd" clip-rule="evenodd" d="M122.5 82C123.167 82 123.167 80 122.5 80C121.833 80 121.833 82 122.5 82Z" fill="#39180E"/>
<path fill-rule="evenodd" clip-rule="evenodd" d="M126.5 75C127.167 75 127.167 73 126.5 73C125.833 73 125.833 75 126.5 75Z" fill="#39180E"/>
<path fill-rule="evenodd" clip-rule="evenodd" d="M118 102C119.333 102 119.333 99 118 99C116.667 99 116.667 102 118 102Z" fill="#39180E"/>
<path fill-rule="evenodd" clip-rule="evenodd" d="M113 104C111.667 104 111.667 106 113 106C114.333 106 114.333 104 113 104Z" fill="#39180E"/>
<path fill-rule="evenodd" clip-rule="evenodd" d="M113.5 98C112.833 98 112.833 100 113.5 100C114.167 100 114.167 98 113.5 98Z" fill="#39180E"/>
<path fill-rule="evenodd" clip-rule="evenodd" d="M30.5005 99C29.8332 99 29.8332 101 30.5005 101C31.1665 101 31.1665 99 30.5005 99Z" fill="#39180E"/>
<path fill-rule="evenodd" clip-rule="evenodd" d="M14.5004 97C13.8332 97 13.8332 98 14.5004 98C15.1665 98 15.1665 97 14.5004 97Z" fill="#39180E"/>
<path fill-rule="evenodd" clip-rule="evenodd" d="M10.0006 123C8.66647 123 8.66647 125 10.0006 125C11.3331 125 11.3331 123 10.0006 123Z" fill="#39180E"/>
<path fill-rule="evenodd" clip-rule="evenodd" d="M12.9995 120C11.6668 120 11.6668 121 12.9995 121C14.3335 121 14.3335 120 12.9995 120Z" fill="#39180E"/>
<path fill-rule="evenodd" clip-rule="evenodd" d="M53 72C51.6667 72 51.6667 74 53 74C54.3333 74 54.3333 72 53 72Z" fill="#39180E"/>
<path fill-rule="evenodd" clip-rule="evenodd" d="M62.7339 111.038C62.1087 111.21 61.8058 111.952 62.1341 112.511C62.5112 113.157 63.4922 113.169 63.8673 112.511C64.2983 111.757 63.6162 110.796 62.7339 111.038Z" fill="#39180E"/>
<path fill-rule="evenodd" clip-rule="evenodd" d="M64 107C62.6667 107 62.6667 108 64 108C65.3333 108 65.3333 107 64 107Z" fill="#39180E"/>
<path fill-rule="evenodd" clip-rule="evenodd" d="M77 122C75.6667 122 75.6667 124 77 124C78.3333 124 78.3333 122 77 122Z" fill="#39180E"/>
<path fill-rule="evenodd" clip-rule="evenodd" d="M77.0005 127C75.6665 127 75.6665 128 77.0005 128C78.3332 128 78.3332 127 77.0005 127Z" fill="#39180E"/>
<path fill-rule="evenodd" clip-rule="evenodd" d="M90.5003 95C89.8332 95 89.8332 97 90.5003 97C91.1666 97 91.1666 95 90.5003 95Z" fill="#39180E"/>
<path fill-rule="evenodd" clip-rule="evenodd" d="M74.0006 91C75.3331 91 75.3331 90 74.0006 90C72.6665 90 72.6665 91 74.0006 91Z" fill="#39180E"/>
<path fill-rule="evenodd" clip-rule="evenodd" d="M83 104.32V104.679C83 106.44 86 106.44 86 104.679V104.32C86 102.56 83 102.56 83 104.32Z" fill="#39180E"/>
<path fill-rule="evenodd" clip-rule="evenodd" d="M67.0008 78C65.6664 78 65.6664 80 67.0008 80C68.3331 80 68.3331 78 67.0008 78Z" fill="#39180E"/>
<path fill-rule="evenodd" clip-rule="evenodd" d="M64 78C65.3333 78 65.3333 76 64 76C62.6667 76 62.6667 78 64 78Z" fill="#39180E"/>
<path fill-rule="evenodd" clip-rule="evenodd" d="M53.9993 78C55.3336 78 55.3336 77 53.9993 77C52.6669 77 52.6669 78 53.9993 78Z" fill="#39180E"/>
<path fill-rule="evenodd" clip-rule="evenodd" d="M53.5004 22C54.1665 22 54.1665 21 53.5004 21C52.8332 21 52.8332 22 53.5004 22Z" fill="#39180E"/>
<path fill-rule="evenodd" clip-rule="evenodd" d="M49.0005 25C50.3332 25 50.3332 23 49.0005 23C47.6665 23 47.6665 25 49.0005 25Z" fill="#39180E"/>
<path fill-rule="evenodd" clip-rule="evenodd" d="M8.50029 74C9.16657 74 9.16657 72 8.50029 72C7.83323 72 7.83323 74 8.50029 74Z" fill="#39180E"/>
<path fill-rule="evenodd" clip-rule="evenodd" d="M5.50068 68C6.16644 68 6.16644 67 5.50068 67C4.83311 67 4.83311 68 5.50068 68Z" fill="#39180E"/>
<path fill-rule="evenodd" clip-rule="evenodd" d="M116 43C117.333 43 117.333 41 116 41C114.667 41 114.667 43 116 43Z" fill="#39180E"/>
<path fill-rule="evenodd" clip-rule="evenodd" d="M112.501 38C113.166 38 113.166 37 112.501 37C111.833 37 111.833 38 112.501 38Z" fill="#39180E"/>
<path fill-rule="evenodd" clip-rule="evenodd" d="M112 30C113.333 30 113.333 29 112 29C110.667 29 110.667 30 112 30Z" fill="#39180E"/>
<path fill-rule="evenodd" clip-rule="evenodd" d="M1 100C-0.333333 100 -0.333333 102 1 102C2.33333 102 2.33333 100 1 100Z" fill="#39180E"/>
<path fill-rule="evenodd" clip-rule="evenodd" d="M142 96C140.667 96 140.667 97 142 97C143.333 97 143.333 96 142 96Z" fill="#39180E"/>
<path fill-rule="evenodd" clip-rule="evenodd" d="M144 101C142.667 101 142.667 103 144 103C145.333 103 145.333 101 144 101Z" fill="#39180E"/>
<path fill-rule="evenodd" clip-rule="evenodd" d="M149 101C147.667 101 147.667 103 149 103C150.333 103 150.333 101 149 101Z" fill="#39180E"/>
</svg>
