<svg width="150" height="150" viewBox="0 0 150 150" fill="none" xmlns="http://www.w3.org/2000/svg">
<path fill-rule="evenodd" clip-rule="evenodd" d="M85.5039 26.5707C86.7025 26.836 87.8332 27.3653 88.8799 27.992C89.4265 28.3213 89.8892 27.5 89.3732 27.152C88.2572 26.3907 87.0945 25.876 85.7919 25.5253C84.7679 25.2507 83.3439 24.8813 82.3919 25.4453C82.2065 25.5573 82.2159 25.816 82.3919 25.928C83.2745 26.488 84.4905 26.344 85.5039 26.5707Z" fill="#39180E"/>
<path fill-rule="evenodd" clip-rule="evenodd" d="M80.8555 28.8925C81.5168 29.1591 82.2915 29.0965 82.9941 29.1938C83.8475 29.3085 84.6955 29.4591 85.5421 29.6138C86.1541 29.7245 86.4221 28.8071 85.8021 28.6711C84.9621 28.4898 84.1235 28.3125 83.2755 28.1751C82.5035 28.0511 81.6021 27.8591 80.8555 28.1351C80.4741 28.2765 80.4915 28.7458 80.8555 28.8925Z" fill="#39180E"/>
<path fill-rule="evenodd" clip-rule="evenodd" d="M102.097 23.2499C101.781 22.7499 101.492 22.2339 101.265 21.6872C101.06 21.1846 101.008 20.6419 100.736 20.1699C100.616 19.9566 100.25 19.9299 100.136 20.1699C99.6089 21.2792 100.685 22.8286 101.289 23.7232C101.624 24.2219 102.424 23.7659 102.097 23.2499Z" fill="#39180E"/>
<path fill-rule="evenodd" clip-rule="evenodd" d="M117.731 26.9607C118.416 26.1274 119.119 25.318 119.88 24.554C120.344 24.086 120.838 23.6554 121.371 23.27C121.756 22.9914 122.112 22.7914 122.36 22.3754C122.476 22.1794 122.323 21.958 122.111 21.9434C121.151 21.882 120.259 22.818 119.596 23.4167C118.648 24.2714 117.852 25.294 117.068 26.2967C116.703 26.7647 117.342 27.4327 117.731 26.9607Z" fill="#39180E"/>
<path fill-rule="evenodd" clip-rule="evenodd" d="M121.41 28.9243C122.931 28.015 124.447 27.0603 125.803 25.9216C126.05 25.715 125.786 25.2363 125.478 25.3643C123.835 26.0483 122.442 27.1696 120.929 28.103C120.409 28.423 120.882 29.2416 121.41 28.9243Z" fill="#39180E"/>
<path fill-rule="evenodd" clip-rule="evenodd" d="M127.139 34.9905C127.833 34.9558 128.459 34.7171 129.067 34.3891C129.221 34.3065 129.312 34.1291 129.313 33.9585C129.316 33.6771 129.117 33.4585 128.815 33.4585C128.584 33.4585 128.337 33.6225 128.136 33.7145C127.816 33.8585 127.489 33.9531 127.139 33.9731C126.487 34.0118 126.481 35.0225 127.139 34.9905Z" fill="#39180E"/>
<path fill-rule="evenodd" clip-rule="evenodd" d="M86.2728 120.271C86.3781 120.372 86.4848 120.476 86.5914 120.577C86.6208 120.607 86.6648 120.563 86.6368 120.533C86.5341 120.427 86.4301 120.32 86.3288 120.216C86.2928 120.18 86.2354 120.235 86.2728 120.271Z" fill="#39180E"/>
<path fill-rule="evenodd" clip-rule="evenodd" d="M135.581 110.917C126.347 128.598 107.049 131.648 89.8726 123.866C87.1446 122.633 84.7099 121.008 82.5286 119.117C82.8019 118.901 83.0606 118.666 83.3259 118.442C83.4646 119.177 83.8099 119.934 84.4966 120.106C84.6766 120.15 84.8286 120.024 84.8406 119.846C84.8899 119.117 84.2673 118.516 84.0793 117.802C84.2059 117.69 84.3233 117.57 84.4473 117.458C84.7366 118.366 85.1833 119.64 86.0646 119.7C86.1633 119.708 86.2633 119.625 86.2873 119.53C86.3099 119.434 86.3086 119.352 86.3019 119.265C87.1206 120.24 87.9846 121.142 89.0606 121.926C89.1833 122.016 89.3299 121.82 89.2219 121.718C88.3353 120.906 87.5033 120.005 86.6966 119.085C86.8686 119.24 87.0366 119.401 87.2406 119.508C87.3859 119.585 87.5473 119.513 87.6073 119.382C87.6206 119.424 87.6206 119.469 87.6633 119.508C88.7873 120.508 89.9273 121.484 91.1193 122.401C92.1499 123.194 93.4513 124.38 94.7819 124.528C94.9286 124.544 95.0406 124.344 94.9553 124.224C94.3273 123.354 93.2019 122.846 92.3233 122.25C90.8646 121.257 89.4459 120.202 88.0766 119.093C87.9019 118.95 87.6979 119.049 87.6166 119.2C87.3299 118.085 86.4459 117.148 85.8299 116.156C85.8953 116.093 85.9633 116.036 86.0273 115.972C87.4033 117.292 88.8859 118.521 90.5313 119.585C90.8526 119.792 91.1899 119.33 90.9299 119.068C90.7219 118.857 90.5259 118.648 90.3193 118.437C92.2779 119.666 94.3726 120.62 96.5499 121.3C96.4193 121.377 96.3446 121.544 96.4859 121.68C98.0886 123.193 100.686 124.513 102.95 124.213C103.121 124.19 103.257 123.932 103.051 123.838C100.999 122.896 98.7526 122.976 96.9713 121.414C98.4526 121.854 99.9726 122.156 101.51 122.349C101.523 122.361 101.522 122.38 101.541 122.39C103.075 123.312 104.895 124.396 106.719 124.528C106.931 124.544 106.975 124.254 106.822 124.153C105.717 123.429 104.426 123.026 103.194 122.51C104.919 122.63 106.663 122.573 108.397 122.393C108.382 122.497 108.418 122.614 108.542 122.664C110.194 123.317 112.243 123.74 113.983 123.205C114.118 123.166 114.118 122.973 113.983 122.932C112.39 122.442 110.694 122.737 109.081 122.33C112.757 121.864 116.379 120.726 119.726 118.953C121.423 119.232 123.042 118.934 124.378 117.797C124.451 117.737 124.374 117.606 124.287 117.638C123.066 118.062 121.863 118.453 120.595 118.464C121.465 117.969 122.307 117.421 123.133 116.844C125.142 116.322 127.389 115.562 128.802 114.052C128.887 113.962 128.805 113.785 128.674 113.833C127.391 114.278 126.171 114.888 124.942 115.473C124.981 115.44 125.022 115.412 125.062 115.38C125.998 114.593 126.843 113.732 127.646 112.84C128.931 112.073 130.246 111.153 131.046 109.956C131.135 109.825 130.959 109.652 130.829 109.738C130.226 110.126 129.671 110.586 129.122 111.052C136.25 101.542 136.742 87.6129 130.741 77.4129C122.555 63.5063 99.1246 60.0996 87.2299 70.9356C87.1619 70.9356 87.0899 70.9543 87.0246 71.0183C79.5073 78.4929 76.1726 89.9449 78.1966 100.321C77.9846 99.6569 77.7619 99.0036 77.5873 98.3023C75.0313 88.1196 79.0353 78.5676 85.8913 71.1436C86.1659 70.8476 85.7473 70.4316 85.4513 70.7009C75.4446 79.8143 73.8166 94.2076 78.9953 105.853C78.7513 105.726 78.3419 105.868 78.3713 106.2C78.4486 107.076 78.4939 107.956 78.6099 108.829C78.6913 109.424 78.7086 110.16 78.9846 110.725C78.8539 110.853 78.7326 111 78.6006 111.125C78.1139 111.49 77.6566 111.904 77.2006 112.269C77.0659 112.376 76.9259 112.48 76.7913 112.586C75.5166 110.685 74.3953 108.67 73.4993 106.526C73.5273 106.433 73.5246 106.324 73.4686 106.208C73.2379 105.736 73.0246 105.26 72.8179 104.781C72.7726 104.652 72.7193 104.525 72.6726 104.394C69.6513 95.7316 71.0753 87.1329 74.3419 79.0649C74.4779 79.0876 74.6193 79.0383 74.6579 78.8569C74.7739 78.3249 74.9179 77.8129 75.0806 77.3143C75.6086 76.1169 76.1713 74.9343 76.7646 73.7636C81.7166 68.5716 86.7846 63.7529 93.5966 60.9623C96.2473 59.8769 99.0606 59.2423 101.933 58.9716C101.955 58.9836 101.977 58.9956 101.999 59.0076C102.001 59.0436 102.035 59.0769 102.051 59.1129C100.498 59.2996 99.0219 59.6223 97.7966 60.0929C97.2246 60.3116 97.4619 61.2289 98.0513 61.0196C102.842 59.3089 107.245 60.8236 112.059 61.1449C112.341 61.1649 112.422 60.7663 112.198 60.6329C111.371 60.1409 110.398 59.7836 109.362 59.5129C109.415 59.3729 109.414 59.2089 109.346 59.0703C109.447 59.0649 109.546 59.0596 109.647 59.0556C109.862 59.0756 110.079 59.0889 110.293 59.1143C110.398 59.4276 110.869 59.6223 111.165 59.3463C111.209 59.3183 111.253 59.2863 111.297 59.2556C114.399 59.6929 117.445 60.4289 120.301 61.3796C141.151 68.3263 144.77 93.3236 135.581 110.917ZM94.5326 67.7556C107.102 62.6796 123.437 67.0329 130.414 78.8969C136.953 90.0183 134.095 104.972 125.198 113.849C115.055 123.969 97.5859 124.112 87.2259 114.718C89.6766 112.018 91.7819 108.958 93.4286 105.55C99.6873 92.6009 99.6899 79.0423 94.5326 67.7556ZM86.8766 72.1796C90.9166 83.0836 89.0979 96.2889 82.9646 105.87C82.5886 106.453 82.1939 107.008 81.7913 107.55C75.9166 96.2423 78.9846 81.9303 86.8766 72.1796ZM79.8486 107.589C79.7646 107.649 79.6993 107.74 79.6966 107.882C79.6899 108.401 79.7059 109.154 79.9539 109.713C79.9006 109.769 79.8486 109.825 79.7953 109.88C79.7366 109.553 79.6539 109.222 79.6019 108.92C79.4539 108.057 79.3193 107.196 79.2006 106.332C79.3979 106.758 79.6353 107.168 79.8486 107.589ZM40.1486 113.262C36.2473 110.66 32.6659 107.188 29.4473 102.896C17.6086 87.1169 22.8966 70.2143 36.1326 57.5756C36.2859 57.4303 36.3059 57.2636 36.2579 57.1143C49.5419 48.4063 70.9819 51.2756 81.2339 62.6743C81.6019 63.0863 81.9326 63.5209 82.2673 63.9529C77.6739 67.4476 74.6526 73.6409 72.2273 78.3929C68.0219 86.6436 67.6086 98.0103 72.4259 106.086C73.3766 108.556 74.6153 110.912 76.0966 113.124C75.8579 113.305 75.6259 113.493 75.3899 113.68C65.1913 120.601 51.1739 119.494 40.1486 113.262ZM28.7606 63.7076C28.8099 63.7316 28.8633 63.7449 28.9193 63.7583C21.6753 73.1956 19.5739 84.3049 24.0233 95.5956C19.5539 85.0289 20.8993 72.9849 28.7606 63.7076ZM32.9233 109.724C34.7393 111.412 36.7459 112.906 38.8806 114.2C39.8926 114.888 40.9366 115.516 41.9993 116.096C38.0539 114.486 34.4899 112.414 31.1246 109.082C27.8739 105.866 25.5659 101.917 23.8606 97.7143C26.0073 102.045 29.0606 106.133 32.9233 109.724ZM82.2846 66.1609C80.2446 67.8436 78.3939 69.7636 76.9593 71.8729C78.6886 69.0396 80.7446 66.3596 83.2966 64.4756C82.9179 64.8623 82.5633 65.2503 82.2646 65.6303C82.1153 65.8236 82.1579 66.0369 82.2846 66.1609ZM77.8353 121.026C77.6766 121.12 77.5233 121.221 77.3633 121.314C77.2126 121.406 77.0579 121.489 76.9046 121.578C66.8926 127.237 54.3379 128.612 42.7739 125.593C42.7673 125.518 42.7366 125.445 42.6513 125.401C32.8499 120.434 25.2153 114.372 19.0246 105.17C10.4739 92.4676 14.3833 80.6449 17.3113 67.0076C17.3739 66.7143 16.9793 66.6169 16.8713 66.8863C11.9019 79.2396 10.4246 91.8329 16.9193 103.792C21.1593 111.6 28.2846 119.193 36.5046 123.476C35.7193 123.148 34.9419 122.805 34.1753 122.432C13.2526 112.272 6.24594 84.4223 17.2699 64.8023C17.3819 65.2969 18.0819 65.5783 18.3686 65.0129C27.4779 47.0183 46.8206 40.7689 65.7566 45.4876C74.8953 47.7636 83.0473 53.0876 89.1033 60.2263C88.2646 60.6823 87.4446 61.1649 86.6833 61.6823C86.5779 61.7143 86.4806 61.7596 86.3779 61.7916C86.1806 61.5023 85.9139 61.2503 85.6606 60.9956C85.3699 60.7063 84.9819 60.9009 84.8686 61.1956C84.6206 60.9823 84.3699 60.7809 84.1846 60.6023C83.8073 60.2343 83.2886 60.6103 83.3193 61.0183C82.8966 60.6556 82.4779 60.2836 82.0393 59.9436C81.8153 59.7689 81.5419 59.8703 81.4233 60.0529C80.8246 59.4476 80.2113 58.8623 79.5686 58.3023C79.2846 58.0556 78.9539 58.3543 79.0593 58.6489C66.7579 48.1383 43.4046 47.7116 31.7206 59.0743C21.4006 67.5929 18.3833 79.3609 21.1939 90.5076C20.9806 90.5303 20.7753 90.6996 20.8273 90.9769C23.3899 104.56 34.0699 118.445 48.8673 119.341C49.0619 119.354 49.1699 119.237 49.2286 119.096C53.5979 120.372 58.2046 120.794 62.8566 120.229C64.1713 120.976 65.7659 121.505 67.1846 121.344C67.3593 121.322 67.4606 121.09 67.2819 120.989C66.5393 120.57 65.6899 120.421 64.8686 120.218C64.6553 120.166 64.4579 120.081 64.2513 120.016C65.0073 119.89 65.7619 119.734 66.5179 119.562C66.4766 119.7 66.4979 119.861 66.6459 119.94C67.7966 120.544 70.3406 121.341 71.1566 119.794C71.2486 119.617 71.1353 119.385 70.9246 119.388C70.3526 119.396 69.8419 119.685 69.2686 119.745C68.5086 119.822 67.8139 119.685 67.1166 119.421C67.9046 119.226 68.6913 118.992 69.4793 118.734C69.5246 118.812 69.5873 118.885 69.6966 118.921C70.2846 119.117 70.8659 119.226 71.4846 119.257C72.2059 119.294 72.6779 119.09 73.2553 118.688C73.3953 118.59 73.3499 118.364 73.1673 118.36C72.3473 118.344 71.5313 118.401 70.7233 118.306C71.0753 118.156 71.1419 117.776 71.0086 117.51C72.1446 117.038 73.2379 116.466 74.3099 115.844C73.7846 116.286 73.2633 116.734 72.7379 117.172C72.4393 117.424 72.8299 117.918 73.1526 117.71C76.8259 115.336 80.7073 112.084 82.8633 108.166C87.2873 102.153 89.7366 94.9343 90.1539 87.6063C90.2206 87.7476 90.3993 87.8263 90.5379 87.6796C91.6526 86.5103 92.0499 84.6049 92.5793 83.1169C92.7366 82.6743 92.0526 82.5023 91.8859 82.9249C91.3379 84.3156 90.4446 85.7969 90.1673 87.2809C90.3139 84.2769 90.1326 81.2556 89.5939 78.2983C89.6566 78.3023 89.7259 78.2689 89.7539 78.1996C90.1446 77.2009 90.2033 76.0889 90.3646 75.0369C90.4033 74.7916 90.0313 74.6823 89.9886 74.9329C89.8193 75.8756 89.5686 76.8249 89.4993 77.7836C89.2179 76.3436 88.8579 74.9169 88.4113 73.5156C88.8033 72.8103 88.8086 71.7689 88.8019 71.0596C88.8019 71.0303 88.7899 71.0103 88.7846 70.9849C88.8753 70.9196 88.9633 70.8503 89.0526 70.7849C89.7833 72.3076 90.4419 73.8676 91.0659 75.4503C90.8846 75.3769 90.6406 75.4169 90.6006 75.6423C90.3673 76.9343 89.7339 78.3849 89.9939 79.7076C90.0246 79.8703 90.2659 79.8903 90.3393 79.7529C90.9486 78.6329 91.0846 77.1769 91.2379 75.9116C91.3499 76.1983 91.4526 76.4929 91.5633 76.7796C91.4099 76.7156 91.2246 76.7476 91.1953 76.9596C90.9913 78.3596 90.7059 79.7489 90.5393 81.1516C90.5153 81.3449 90.8299 81.4289 90.9086 81.2529C91.4593 80.0076 91.5766 78.6249 91.7539 77.2863C91.9659 77.8463 92.1846 78.3969 92.3846 78.9703C92.4646 79.2036 92.8633 79.1823 92.8366 78.9089C92.5433 75.7596 91.4539 72.8356 89.9726 70.1023C91.2646 69.2529 92.6393 68.5636 94.0513 67.9609C98.5766 78.1676 97.2793 90.3649 93.9299 100.786C92.3233 105.778 89.8286 110.053 86.7046 113.633C86.5873 113.513 86.4006 113.453 86.2539 113.548C84.6553 114.584 83.4646 116.354 82.1046 117.685C80.8033 118.958 79.3646 120.06 77.8353 121.026ZM97.9646 54.8623C98.0486 54.8543 98.1286 54.8183 98.1753 54.7343C98.4206 54.3049 98.1806 53.7889 98.1193 53.3263C98.0646 52.8889 98.0433 52.4449 98.0299 52.0023C98.1499 52.2143 98.2766 52.4369 98.4073 52.6649C98.2713 52.7089 98.1606 52.8263 98.1633 53.0156C98.1753 53.8516 98.3406 55.1249 99.0059 55.7036C99.1353 55.8156 99.3779 55.7889 99.4166 55.5956C99.4926 55.2156 99.3993 54.9263 99.2713 54.5596C99.1766 54.2849 99.0993 54.0169 99.0393 53.7423C99.6393 54.7383 100.334 55.7529 101.11 56.6356C100.915 56.6289 100.719 56.7503 100.639 56.9356C99.7193 56.2969 98.8273 55.5969 97.9646 54.8623ZM95.4393 52.6156C95.5246 52.6076 95.6073 52.5556 95.6433 52.4529C95.9859 51.5076 95.8033 50.3889 95.7379 49.4036C95.6833 48.5676 95.5433 47.7423 95.3993 46.9183C95.6699 47.4903 95.9553 48.0529 96.2366 48.6169C96.1046 48.6596 95.9886 48.7503 95.9846 48.9329C95.9699 49.6103 95.9566 50.2863 95.9419 50.9623C95.9246 51.5876 95.7939 52.2783 96.1313 52.8329C96.2326 52.9969 96.4726 52.9969 96.5726 52.8329C96.8686 52.3476 96.7846 51.8049 96.7726 51.2529C96.7579 50.7036 96.7473 50.1556 96.7353 49.6049C96.9459 50.0103 97.1673 50.4089 97.3846 50.8129C97.2833 50.8756 97.2099 50.9769 97.2059 51.1303C97.1926 51.8649 97.1806 52.5943 97.2326 53.3263C97.2566 53.6489 97.2766 54.0623 97.4126 54.3956C96.7406 53.8076 96.0793 53.2116 95.4393 52.6156ZM93.8206 51.1103C93.2366 50.5689 92.6259 49.9996 92.0153 49.4169C92.4699 48.1623 92.5966 46.7649 92.9446 45.4716C93.1566 44.6863 93.4099 43.9089 93.6859 43.1409C93.8553 43.5423 94.0339 43.9409 94.2073 44.3396C94.0086 46.6023 93.4739 49.0063 93.9886 51.1769C94.0259 51.3436 94.2779 51.3409 94.3179 51.1769C94.7686 49.3983 94.7619 47.4089 94.7113 45.4849C94.8233 45.7289 94.9473 45.9689 95.0619 46.2143C94.9579 46.2276 94.8646 46.3009 94.8806 46.4196C95.0086 47.4103 95.0019 48.4076 95.0033 49.4036C95.0033 50.3596 94.8566 51.4303 95.1513 52.3489C94.7019 51.9303 94.2553 51.5129 93.8206 51.1103ZM86.0099 41.6663C86.7139 41.9969 87.6059 42.0703 88.3406 42.1463C89.8766 42.3036 91.4166 42.3009 92.9566 42.3623C92.0619 44.3596 91.2393 46.6103 91.2726 48.6956C89.1579 46.6169 87.1046 44.2823 86.0099 41.6663ZM89.4873 36.4903C91.5473 33.8169 93.5206 31.0676 95.6686 28.4663C94.8259 32.6703 93.5366 36.7769 92.8499 41.0129C92.8486 41.0249 92.8433 41.0369 92.8433 41.0489C92.8353 41.1023 92.8233 41.1569 92.8126 41.2116C92.1873 41.2076 91.5619 41.2289 90.9899 41.2223C89.8499 41.2049 87.2126 41.4609 86.0806 40.6049C87.3859 39.8463 89.0339 37.0769 89.4873 36.4903ZM96.7673 27.4556C99.1459 27.5276 101.522 27.7036 103.901 27.8209C103.875 27.8436 103.854 27.8729 103.83 27.8956C103.811 27.8836 103.795 27.8716 103.775 27.8596C103.403 27.6436 102.981 28.1569 103.286 28.4609C101.77 30.0316 100.559 32.0009 99.2899 33.7436C97.6393 36.0049 95.9246 38.2036 94.1419 40.3569C94.0699 40.3556 93.9979 40.3729 93.9366 40.4089C94.7579 36.0623 96.1753 31.8463 96.7673 27.4556ZM109.223 34.3343C110.41 35.6663 111.709 37.5556 113.218 38.8329C113.205 38.9169 113.209 39.0049 113.257 39.0996C113.399 39.3796 113.546 39.6583 113.69 39.9396C113.679 39.9583 113.669 39.9796 113.659 39.9969C113.601 39.9996 113.553 40.0263 113.501 40.0463C113.35 39.9583 113.161 39.9583 112.995 40.1303C112.789 40.3489 112.595 40.5783 112.394 40.8049C106.855 41.6436 100.553 42.1743 95.2086 40.5196C96.5513 39.0049 97.7766 37.3943 98.9886 35.7689C100.59 33.6143 102.515 31.3836 103.889 29.0249C105.763 30.7089 107.538 32.4423 109.223 34.3343ZM112.318 27.3756C115.389 32.4436 120.101 36.4636 124.163 40.7196C124.145 40.7423 124.123 40.7636 124.105 40.7863C124.022 40.6503 123.891 40.5436 123.682 40.5436C120.763 40.5423 117.885 40.4516 114.994 40.1303C114.959 40.0396 114.929 39.9476 114.89 39.8569C115.155 39.8369 115.405 39.5916 115.214 39.3183C114.929 38.9116 114.601 38.5249 114.269 38.1383C113.166 34.6649 112.825 30.9903 112.318 27.3756ZM122.981 41.9236C122.911 41.7609 122.71 41.6663 122.542 41.8236C121.065 43.2169 119.765 44.8729 118.502 46.5423C117.499 44.7756 116.495 43.0076 115.478 41.2476C117.989 41.6049 120.557 41.6196 123.082 41.6169C123.055 41.7223 123.01 41.8196 122.981 41.9236ZM122.269 43.7569C122.102 44.0543 121.933 44.3489 121.765 44.6463C121.742 44.6863 121.734 44.7249 121.725 44.7636C121.335 45.2969 120.954 45.8329 120.551 46.3263C120.129 46.8463 119.69 47.3516 119.259 47.8676C119.213 47.7863 119.169 47.7103 119.125 47.6303C120.462 46.0529 121.815 44.4249 122.742 42.6249C122.607 43.0156 122.434 43.3836 122.269 43.7569ZM116.542 51.7529C115.562 52.8023 114.563 53.8383 113.597 54.8863C114.859 53.0049 116.217 51.1929 117.643 49.4089C117.895 49.0956 118.155 48.7809 118.419 48.4663C118.469 48.5449 118.513 48.6223 118.559 48.7009C117.867 49.5209 117.182 50.3449 116.49 51.1663C116.319 51.3703 116.387 51.6156 116.542 51.7529ZM105.045 57.8903C104.691 57.8983 104.338 57.8983 103.985 57.9143C101.842 55.5023 99.9086 53.2703 98.2753 50.4089C96.9499 48.0889 95.8033 45.6716 94.6526 43.2596C94.6486 43.2063 94.6273 43.1636 94.5953 43.1356C94.4846 42.9063 94.3753 42.6756 94.2659 42.4449C94.5406 42.4663 94.8193 42.4796 95.0966 42.5089C95.2326 42.5263 95.3353 42.4889 95.4126 42.4249C97.9699 45.3049 100.43 48.5129 103.638 50.6236C103.938 50.8223 104.281 50.5943 104.379 50.3103C104.394 50.3809 104.426 50.4449 104.463 50.5023C104.57 52.9489 104.559 55.4903 105.045 57.8903ZM104.417 49.5596C104.425 49.6823 104.43 49.8076 104.437 49.9303C104.415 49.9703 104.397 50.0116 104.386 50.0556C104.365 49.9743 104.327 49.8983 104.247 49.8329C101.25 47.4383 98.8086 44.5356 96.1313 41.8263C100.681 43.2343 106.469 42.9556 111.287 42.1223C109.313 44.5969 107.565 47.2556 105.119 49.3009C104.878 49.0623 104.391 49.1303 104.417 49.5596ZM108.315 56.3676C108.181 56.8863 108.046 57.4009 107.907 57.9063C107.313 57.8849 106.719 57.8756 106.126 57.8743C105.902 55.3889 105.647 52.8929 105.349 50.4169C108.293 48.0929 110.401 44.9449 112.678 41.9876C110.917 45.9436 109.822 50.4556 108.743 54.7076C108.569 55.1569 108.391 55.6103 108.251 56.0609C108.21 56.1916 108.25 56.2889 108.315 56.3676ZM111.047 55.6876C110.515 56.1143 109.957 56.5049 109.389 56.8836C109.941 55.6983 110.306 54.3929 110.629 53.1049C111.201 51.7609 111.71 50.3756 112.349 49.1023C112.539 48.7196 111.998 48.3956 111.773 48.7636C111.755 48.7876 111.742 48.8129 111.727 48.8356C112.398 46.3756 113.123 43.9543 114.051 41.5743C114.061 41.5703 114.069 41.5689 114.078 41.5676C114.257 41.5263 114.341 41.4183 114.386 41.2956C115.467 43.3796 116.61 45.4356 117.814 47.4476C117.278 48.1609 116.746 48.8649 116.206 49.5463C114.949 51.1356 113.749 52.7609 112.665 54.4609C112.057 54.7303 111.551 55.2809 111.047 55.6876ZM127.431 63.6183C122.954 60.6583 117.661 58.9356 112.223 58.2289C112.218 58.1689 112.203 58.1143 112.179 58.0623C114.653 54.9236 117.558 52.1249 120.111 49.0503C121.082 47.8809 122.118 46.5423 122.898 45.1009C123.485 44.3543 124.006 43.5649 124.271 42.7263C124.307 42.6116 124.247 42.5023 124.155 42.4356C124.407 42.0623 124.694 41.6903 124.911 41.2929C125.309 41.2983 125.667 40.7769 125.309 40.3943C120.997 35.7929 116.486 31.5236 112.758 26.4036C112.599 26.1836 112.345 26.1649 112.159 26.2583C112.155 26.2409 112.154 26.2223 112.15 26.2036C112.078 25.7369 111.277 25.8449 111.326 26.3156C111.675 29.7223 111.958 33.1689 112.758 36.4956C111.803 35.5263 110.811 34.5796 109.949 33.6103C108.246 31.7036 106.485 29.6369 104.326 28.2169C104.361 28.1489 104.399 28.0836 104.433 28.0169C104.462 27.9596 104.462 27.9036 104.455 27.8503C104.521 27.8543 104.585 27.8596 104.65 27.8623C106.137 27.9249 107.882 28.0623 109.426 27.7329C109.469 27.7449 109.501 27.7716 109.546 27.7716C109.819 27.7676 110.091 27.7623 110.363 27.7743L110.377 27.7836C110.405 27.8049 110.415 27.8236 110.491 27.8836C110.849 28.1769 111.499 27.7849 111.186 27.3489C111.133 27.2783 111.091 27.1889 111.034 27.1049C111.114 26.9929 111.091 26.8543 110.998 26.7569C111.07 26.4556 110.823 26.1049 110.489 26.1049C110.114 26.1049 109.739 26.0969 109.363 26.1103C109.193 26.1143 108.991 26.2023 108.914 26.3663C108.875 26.4529 108.862 26.5209 108.857 26.5916C107.145 26.6249 105.394 26.8329 103.695 26.7716C101.246 26.6796 98.8059 26.4503 96.3526 26.4503C96.0966 26.4503 95.9473 26.6103 95.8979 26.7983C95.8299 26.8209 95.7619 26.8543 95.6966 26.9156C93.6206 28.8383 92.0046 31.4929 90.3019 33.7343C89.1673 35.2263 88.0379 36.7236 86.8646 38.1849C86.5686 38.5556 85.7859 39.7263 85.3806 40.0463C85.1139 40.0369 84.8393 40.2503 84.9486 40.5636C84.9833 40.6636 85.0366 40.7423 85.0833 40.8276C84.9926 40.9063 84.9433 41.0263 84.9953 41.1796C86.3419 45.1716 90.3699 48.7969 93.2286 51.7036C95.2433 53.7476 97.5513 56.0076 100.082 57.7796C97.0513 57.0943 93.2219 58.1183 89.7779 59.8623C85.2139 53.9143 78.9286 49.0143 71.0579 45.8276C52.4873 38.3103 29.9259 43.5836 19.3473 60.6556C19.2606 60.6463 19.1739 60.6649 19.1059 60.7343C11.1739 68.8623 9.59394 82.2823 11.4619 93.0623C13.6579 105.729 20.7886 115.953 31.7579 122.606C47.3673 132.076 67.8846 130.306 81.8073 119.68C83.6299 121.317 85.6246 122.8 87.8366 124.046C104.247 133.292 124.002 130.174 134.659 114.5C145.391 98.7169 144.023 74.5943 127.431 63.6183Z" fill="#39180E"/>
<path fill-rule="evenodd" clip-rule="evenodd" d="M92.1372 119.616C91.7532 119.345 91.4012 119.971 91.7732 120.239C93.8119 121.72 96.0279 123.813 98.5186 124.441C98.6372 124.471 98.7212 124.327 98.6372 124.241C96.8399 122.373 94.2506 121.097 92.1372 119.616Z" fill="#39180E"/>
<path fill-rule="evenodd" clip-rule="evenodd" d="M107.898 123.325C107.084 123.132 106.292 122.888 105.506 122.593C105.33 122.528 105.204 122.825 105.378 122.901C106.798 123.505 108.614 124.672 110.208 124.132C110.332 124.09 110.322 123.937 110.208 123.89C109.481 123.598 108.661 123.51 107.898 123.325Z" fill="#39180E"/>
<path fill-rule="evenodd" clip-rule="evenodd" d="M113.67 121.981C113.482 121.945 113.402 122.218 113.588 122.27C114.748 122.593 116.044 122.866 117.155 122.244C117.279 122.174 117.218 121.994 117.086 121.989C115.919 121.937 114.843 122.213 113.67 121.981Z" fill="#39180E"/>
<path fill-rule="evenodd" clip-rule="evenodd" d="M119.43 120.504C118.756 120.575 118.076 120.586 117.4 120.603C117.056 120.611 117.056 121.13 117.4 121.138C118.599 121.166 120.188 121.376 121.243 120.682C121.371 120.595 121.31 120.428 121.17 120.411C120.59 120.335 120.008 120.444 119.43 120.504Z" fill="#39180E"/>
<path fill-rule="evenodd" clip-rule="evenodd" d="M129.337 73.8135C129.42 73.8135 129.42 73.6855 129.337 73.6855C129.254 73.6855 129.254 73.8135 129.337 73.8135Z" fill="#39180E"/>
<path fill-rule="evenodd" clip-rule="evenodd" d="M131.219 77.206H131.225V76.5754C131.225 76.5727 131.219 76.5727 131.219 76.5754V77.206Z" fill="#39180E"/>
<path fill-rule="evenodd" clip-rule="evenodd" d="M131.019 75.4388C132.775 78.3828 133.771 81.5522 134.659 84.8362C134.757 85.2028 135.385 85.1402 135.339 84.7442C134.913 81.2268 133.444 78.0802 131.425 75.2002C131.255 74.9562 130.86 75.1748 131.019 75.4388Z" fill="#39180E"/>
<path fill-rule="evenodd" clip-rule="evenodd" d="M34.5671 114.145C34.2857 113.8 33.6817 114.263 33.9471 114.621C36.1777 117.643 39.3924 120.651 43.1724 121.473C43.5257 121.552 43.779 121.044 43.4284 120.864C40.0071 119.124 37.0151 117.156 34.5671 114.145Z" fill="#39180E"/>
<path fill-rule="evenodd" clip-rule="evenodd" d="M43.1307 118.666C42.8054 118.361 42.3307 118.833 42.6427 119.153C44.3507 120.901 46.4041 122.622 48.7987 123.268C49.0307 123.333 49.2601 123.008 49.0507 122.838C47.1401 121.33 44.9334 120.354 43.1307 118.666Z" fill="#39180E"/>
<path fill-rule="evenodd" clip-rule="evenodd" d="M47.5474 119.357C47.1621 119.114 46.8408 119.701 47.1981 119.958C49.1594 121.37 51.2221 123.521 53.6408 124.086C53.9408 124.154 54.2181 123.766 53.9594 123.539C52.0954 121.895 49.6514 120.679 47.5474 119.357Z" fill="#39180E"/>
<path fill-rule="evenodd" clip-rule="evenodd" d="M54.1939 121.565C53.7646 121.425 53.5913 122.086 54.0086 122.237C55.0179 122.593 55.9686 123.07 57.0353 123.226C57.2606 123.259 57.4259 122.966 57.1993 122.838C56.2459 122.297 55.2339 121.909 54.1939 121.565Z" fill="#39180E"/>
<path fill-rule="evenodd" clip-rule="evenodd" d="M28.0858 59.9951C31.4485 56.3671 36.1138 52.7271 41.0298 51.6618C41.0858 51.6484 41.0605 51.5684 41.0058 51.5778C35.6978 52.5231 30.9712 55.4391 27.7458 59.7351C27.5978 59.9324 27.9205 60.1738 28.0858 59.9951Z" fill="#39180E"/>
<path fill-rule="evenodd" clip-rule="evenodd" d="M70.834 51.945C75.6673 53.5797 80.0033 55.4757 83.862 58.869C84.0313 59.0183 84.3193 58.825 84.1886 58.617C81.4273 54.2423 75.6953 52.6223 71.014 51.293C70.59 51.1717 70.4246 51.8063 70.834 51.945Z" fill="#39180E"/>
<path fill-rule="evenodd" clip-rule="evenodd" d="M89.3177 71.9931C89.3257 72.5597 89.2923 73.1011 89.1963 73.6624C89.187 73.7224 89.2643 73.7424 89.287 73.6877C89.5083 73.1331 89.527 72.5837 89.5403 71.9931C89.543 71.8504 89.3163 71.8504 89.3177 71.9931Z" fill="#39180E"/>
<path fill-rule="evenodd" clip-rule="evenodd" d="M89.7786 73.4297C89.6186 74.3204 89.6146 75.2124 89.508 76.1057C89.4933 76.2284 89.6906 76.2497 89.7213 76.1324C89.9373 75.2711 90.036 74.4204 90.2013 73.5471C90.2533 73.2711 89.8293 73.1537 89.7786 73.4297Z" fill="#39180E"/>
<path fill-rule="evenodd" clip-rule="evenodd" d="M91.5598 79.3881C91.1478 80.8201 90.5225 82.2188 90.2811 83.6934C90.2305 83.9974 90.6171 84.1974 90.7931 83.9121C91.5931 82.5934 91.8345 81.0361 92.1585 79.5521C92.2425 79.1641 91.6705 79.0028 91.5598 79.3881Z" fill="#39180E"/>
<path fill-rule="evenodd" clip-rule="evenodd" d="M91.5051 87.3198C91.5051 87.2572 91.5064 87.1958 91.5078 87.1318C91.5091 87.1025 91.4611 87.1025 91.4624 87.1318C91.4638 87.1958 91.4638 87.2572 91.4651 87.3198C91.4651 87.3465 91.5051 87.3465 91.5051 87.3198Z" fill="#39180E"/>
<path fill-rule="evenodd" clip-rule="evenodd" d="M75.8013 101.153C75.7759 100.889 75.4213 100.891 75.3933 101.153C75.2306 102.641 74.5893 104.881 75.6439 106.153C75.7426 106.274 75.9359 106.195 75.9746 106.066C76.1879 105.373 76.0293 104.635 75.9906 103.922C75.9413 102.995 75.8879 102.078 75.8013 101.153Z" fill="#39180E"/>
<path fill-rule="evenodd" clip-rule="evenodd" d="M76.5891 108.291C76.6411 108.419 76.7971 108.419 76.8478 108.291C77.3998 106.932 76.9825 105.177 76.8038 103.769C76.7598 103.429 76.2238 103.419 76.2598 103.769C76.4105 105.217 76.0345 106.929 76.5891 108.291Z" fill="#39180E"/>
<path fill-rule="evenodd" clip-rule="evenodd" d="M78.6985 110.497C78.7065 109.62 78.4519 108.765 78.3252 107.901C78.1719 106.847 78.0972 105.765 78.1505 104.703C78.1692 104.297 77.5772 104.319 77.5305 104.703C77.3052 106.557 77.0985 108.989 78.1439 110.648C78.2999 110.897 78.6959 110.8 78.6985 110.497Z" fill="#39180E"/>
<path fill-rule="evenodd" clip-rule="evenodd" d="M6.1822 88.8785C5.98754 93.1531 6.63154 97.6505 8.60754 101.49C8.76887 101.805 9.2302 101.58 9.1582 101.258C8.22087 97.1171 6.90354 93.1451 6.56754 88.8785C6.54887 88.6318 6.1942 88.6278 6.1822 88.8785Z" fill="#39180E"/>
<path fill-rule="evenodd" clip-rule="evenodd" d="M5.73235 101.242C5.57235 100.8 4.86435 100.988 5.02301 101.437C5.55101 102.937 6.54302 103.95 7.67768 105.021C7.93368 105.261 8.30302 104.892 8.06168 104.636C7.11635 103.633 6.20702 102.556 5.73235 101.242Z" fill="#39180E"/>
<path fill-rule="evenodd" clip-rule="evenodd" d="M140.171 75.0898C140.331 75.4405 140.875 75.1871 140.779 74.8338C139.524 70.1431 135.8 66.7605 132.661 63.2791C132.44 63.0311 132.096 63.3898 132.303 63.6378C135.303 67.2578 138.2 70.7911 140.171 75.0898Z" fill="#39180E"/>
<path fill-rule="evenodd" clip-rule="evenodd" d="M141.828 68.8372C141.643 68.3852 140.904 68.5678 141.08 69.0425C143.036 74.3798 144.059 79.7372 144.579 85.3892C144.621 85.8545 145.281 85.8652 145.308 85.3892C145.628 79.7212 143.956 74.0318 141.828 68.8372Z" fill="#39180E"/>
<path fill-rule="evenodd" clip-rule="evenodd" d="M23.5618 49.4143C25.4111 48.3824 27.3178 47.1277 28.9978 45.841C29.3165 45.597 29.1511 45.013 28.7045 45.149C26.6231 45.7757 24.6671 47.3237 22.9858 48.6664C22.5511 49.013 23.1058 49.669 23.5618 49.4143Z" fill="#39180E"/>
<path fill-rule="evenodd" clip-rule="evenodd" d="M137.656 116.705C136.448 119.877 134.284 122.366 132.202 124.983C131.883 125.382 132.364 125.877 132.763 125.546C135.435 123.319 137.218 120.145 138.275 116.877C138.406 116.478 137.799 116.325 137.656 116.705Z" fill="#39180E"/>
</svg>
