<svg width="151" height="150" viewBox="0 0 151 150" fill="none" xmlns="http://www.w3.org/2000/svg">
<path fill-rule="evenodd" clip-rule="evenodd" d="M141.364 76.7788C141.385 76.7659 141.405 76.7581 141.425 76.7451C142.9 77.5466 144.344 78.3013 145.609 79.499C147.15 80.9579 148.081 82.8415 148.604 84.829C144.953 83.6469 142.249 80.3707 141.364 76.7788ZM141.898 89.2899C142.609 89.1925 143.311 89.0249 144.015 88.8781C143.646 89.1925 143.29 89.5224 142.913 89.829C142.359 90.2785 141.462 90.7565 140.95 91.3541C140.924 91.3281 140.91 91.2839 140.878 91.2671C141.122 90.5993 141.272 89.868 141.353 89.1262C141.483 89.2457 141.664 89.3237 141.898 89.2899ZM147.709 104.91C144.743 102.627 143.079 99.0548 142.035 95.4552C142.225 95.6786 142.414 95.902 142.602 96.1255C143.572 97.2751 144.265 98.8028 145.388 99.8005C145.593 99.9836 145.961 99.8654 145.953 99.5757C145.916 98.2442 144.913 97.0244 144.09 96.0176C143.431 95.2083 142.725 94.4367 142.01 93.6716C145.621 96.6386 149.664 100.497 147.709 104.91ZM140.478 86.1254C140.42 87.3011 140.239 88.4364 139.997 89.5874C139.896 90.0589 139.761 90.5227 139.639 90.9878C139.41 91.093 139.299 91.4268 139.5 91.6178C139.487 91.6944 139.46 91.7672 139.45 91.8451C138.595 90.3291 137.205 88.9872 135.037 87.1998C130.902 83.7885 135.227 79.3561 136.418 76.0644C136.596 75.5746 136.657 75.0901 136.641 74.6146C137.272 75.294 137.893 75.9851 138.447 76.7347C138.505 76.8126 138.548 76.8906 138.604 76.9685C138.46 77.2517 138.675 77.618 139.021 77.6245C139.028 77.6245 139.034 77.6219 139.042 77.6219C140.739 80.3187 141.06 82.9194 140.813 85.7292C140.641 85.7838 140.49 85.8981 140.478 86.1254ZM137.412 102.065C141.065 104.107 140.38 107.302 138.826 110.23C138.455 109.647 137.99 109.081 137.456 108.534C135.187 106.216 132.666 104.785 133.525 101.038C133.781 99.9213 134.265 98.9392 134.743 97.961C134.761 98.8054 134.879 99.6692 135.33 100.28C135.934 101.101 136.509 101.562 137.412 102.065ZM138.085 115.993C138.019 116.411 137.946 116.835 137.873 117.274C137.814 117.223 137.779 117.162 137.714 117.115C137.236 116.771 136.758 116.502 136.229 116.236C135.951 116.096 135.723 115.931 135.536 115.746C135.571 115.683 135.615 115.61 135.646 115.551C135.909 115.043 135.368 114.599 134.939 114.738C134.533 113.495 134.945 111.923 135.171 110.727C135.333 109.86 135.348 109.105 135.233 108.375C136.345 109.482 137.379 110.515 137.856 111.885C137.736 112.074 137.615 112.263 137.493 112.448C137.229 112.847 137.756 113.168 138.106 112.955C138.19 113.699 138.123 114.542 137.847 115.534C137.794 115.725 137.918 115.906 138.085 115.993ZM132.502 99.1808C132.428 99.0912 132.335 99.0145 132.206 98.973C131.864 98.8664 131.515 98.769 131.166 98.6729C131.617 98.517 132.043 98.3234 132.37 98.0325C132.432 97.9779 132.452 97.9142 132.474 97.8532C132.861 97.7986 133.161 97.2686 132.801 96.9685C132.764 96.9374 132.729 96.9036 132.693 96.8724C132.734 96.8321 132.768 96.7841 132.795 96.736C132.992 97.1803 133.189 97.6246 133.404 98.0649C133.189 98.4923 132.977 98.9197 132.781 99.351C132.723 99.2575 132.62 99.2055 132.502 99.1808ZM130.458 97.5648C130.452 97.5661 130.449 97.5661 130.443 97.5674C130.433 97.5622 130.428 97.5531 130.416 97.5479C130.171 97.4297 129.926 97.3219 129.683 97.2193C129.665 97.2076 129.657 97.1907 129.637 97.179C128.886 96.7607 128.467 96.4035 127.591 96.7412C127.547 96.7581 127.535 96.7932 127.497 96.8153C127.343 96.814 127.192 96.8062 127.039 96.8036C126.949 96.7789 126.857 96.7633 126.768 96.7386C126.604 96.6905 126.464 96.7243 126.34 96.7815C90.8637 95.4357 74.9672 55.937 64.9453 28.8429C64.9337 28.8092 64.9117 28.7871 64.8949 28.7572C66.5445 28.5974 67.986 27.9661 69.3267 27.0152C69.4818 27.9297 69.9084 28.7143 70.5807 29.4431C70.7022 29.5743 70.8858 29.408 70.8186 29.2664C70.3907 28.387 69.9356 27.5777 69.8322 26.6151C70.0752 26.4254 70.3234 26.2488 70.5613 26.0357C71.2168 28.7741 72.1386 31.5125 73.4934 33.991C73.6835 34.3366 74.2148 34.0937 74.1269 33.7351C73.4249 30.8863 72.2329 28.1402 71.2827 25.3537C71.3305 25.3031 71.3797 25.2498 71.4301 25.2004C71.4417 25.2121 71.4456 25.2251 71.4585 25.2342C73.8813 27.084 76.2988 26.9437 78.9983 25.6603C79.6822 25.3342 80.3234 24.9731 80.9517 24.599C81.58 24.8744 82.1915 25.0757 82.7953 25.2082C82.6776 25.2888 82.5884 25.4174 82.5768 25.6044C81.8567 38.1051 90.7047 52.2322 97.9057 62.0386C98.2018 62.4413 98.8896 62.0711 98.6013 61.6476C91.2981 50.8916 84.5509 38.6156 83.6446 25.6044C83.6369 25.4901 83.5942 25.4031 83.5399 25.3277C85.1068 25.52 86.644 25.2472 88.2962 24.5457C88.494 24.4626 88.675 24.3716 88.8599 24.282C88.8793 26.8086 89.3421 29.8523 91.0564 31.7814C91.2658 32.0165 91.5981 31.7593 91.5477 31.5073C91.0965 29.2067 90.216 27.11 89.8954 24.8003C90.3466 25.0471 90.8095 25.216 91.2775 25.3368C91.1947 25.4369 91.1508 25.5681 91.1831 25.7291C91.4998 27.3361 91.7842 29.0456 92.4436 30.5603C92.5974 30.9123 93.2477 30.9201 93.2063 30.4615C93.0577 28.7949 92.631 27.0892 92.1281 25.4901C93.0628 25.5992 94.0195 25.5291 94.9853 25.3173C95.0021 25.4628 95.0796 25.6005 95.2516 25.6993C97.8398 27.1854 100.539 27.5569 103.431 27.3335C104.672 29.4431 106.74 30.3381 109.063 30.6616C109.562 33.8144 112.194 35.103 115.307 35.6135C115.412 38.3493 115.964 41.0513 116.945 43.6247C117.103 44.0352 117.672 43.8676 117.612 43.4481C117.241 40.8643 116.573 38.3493 116.306 35.7577C116.378 35.7642 116.449 35.7759 116.52 35.7837C116.396 36.8918 116.764 37.7427 117.42 38.4078C117.332 38.4701 117.266 38.5546 117.283 38.6806C117.62 41.4891 118.041 44.4821 119.373 47.0334C119.492 47.2594 119.904 47.1594 119.881 46.8996C119.642 44.221 118.69 41.6268 118.133 38.9936C119.229 39.7341 120.724 40.1875 122.134 40.5161C122.41 40.5798 122.686 40.6356 122.962 40.6954C120.708 43.7832 122.84 45.9643 125.67 47.3075C125.284 50.585 127.019 52.592 129.873 53.9534C129.871 53.9703 129.86 53.9807 129.859 53.9976C129.532 56.4268 130.692 58.1025 132.481 59.3392C131.959 61.38 132.535 63.0792 133.854 64.5237C133.85 64.5302 133.845 64.5341 133.842 64.5393C132.539 66.9217 132.009 69.3288 133.906 71.6217C134.173 71.9464 134.456 72.2556 134.739 72.5648C136.106 77.1608 131.342 80.863 132.473 85.8098C132.652 86.5944 133.241 87.3362 133.902 87.9623C135.36 90.1473 135.304 91.7867 135.07 93.7469C135.029 93.8106 134.997 93.8833 134.985 93.9717C134.857 94.8862 134.487 95.8124 134.045 96.7503C129.492 84.0691 130.158 71.7009 128.893 58.4806C128.852 58.0493 128.185 58.0324 128.185 58.4806C128.16 70.9812 127.519 84.3925 132.531 96.1618C131.97 95.8734 131.438 95.5487 130.891 95.2421C123.245 87.8506 119.891 77.8986 116.176 68.2078C111.546 56.1306 108.52 43.5663 105.226 31.1098C105.103 30.6447 104.372 30.8422 104.484 31.3072C107.771 45.142 111.343 58.6988 116.365 72.0555C118.918 78.8469 121.601 86.4619 126.33 92.3401C111.505 81.5333 104.005 62.9376 95.7299 47.5387C95.6136 47.3231 95.2257 47.4738 95.3201 47.7037C99.8463 58.7702 105.108 69.186 112.202 78.9534C116.683 85.1226 122.54 93.5066 130.287 96.371C130.674 96.6905 131.089 96.9841 131.497 97.2855C131.144 97.3479 130.794 97.47 130.458 97.5648ZM129.919 101.022C129.735 101.254 129.549 101.487 129.364 101.719C127.615 100.794 125.922 99.9862 125.317 97.9896C125.408 97.9883 125.5 97.9987 125.59 97.9961C126.097 98.8509 126.778 99.6056 127.655 100.103C127.907 100.28 128.185 100.43 128.487 100.544C128.948 100.716 129.474 100.798 130.001 100.82C129.974 100.889 129.946 100.955 129.919 101.022ZM74.9957 21.5436C76.8664 19.812 78.856 19.408 81.2891 18.9222C81.4417 18.8923 81.5205 18.7819 81.5658 18.6585C82.0971 18.6559 82.6298 18.674 83.1702 18.7182C84.2717 18.8065 85.3447 19.2443 86.4475 19.2066C81.6692 21.8281 77.5219 27.7037 72.1825 24.4249C73.1056 23.4532 74.0067 22.4608 74.9957 21.5436ZM91.0021 18.943C91.324 18.8468 91.377 18.5558 91.2671 18.3311C92.5832 18.2623 93.8877 18.3935 95.2296 18.7065C95.8049 18.8416 96.3505 19.0573 96.8922 19.2729C95.2438 19.3729 93.6446 20.0549 92.1708 20.8538C88.7267 22.7232 86.1462 24.8705 82.1631 23.8481C84.9788 22.0178 87.4998 19.9731 91.0021 18.943ZM99.4765 20.1134C99.9044 20.1394 100.331 20.1692 100.759 20.2472C101.638 20.4122 102.367 20.8266 103.134 21.2046C98.684 22.6374 93.7403 25.5265 90.2173 23.6143C93.0628 22.1074 95.2529 20.4719 99.0305 20.4784C99.302 20.4797 99.4442 20.3095 99.4765 20.1134ZM104.138 21.9814C107.568 20.9798 109.381 22.5984 111.336 24.9653C106.123 25.281 101.296 27.2594 96.2845 24.9731C96.8301 24.8003 97.377 24.6133 97.9187 24.4002C99.9962 23.5883 101.986 22.6114 104.138 21.9814ZM111.182 30.8188C116.515 30.8967 121.654 29.0313 123.981 35.0199C123.991 35.0433 124.01 35.0498 124.023 35.0692C122.045 34.812 119.85 34.851 117.791 34.7276C117.621 34.3795 117.061 34.295 116.815 34.6549C116.602 34.6354 116.398 34.6055 116.19 34.5808C116.19 34.5769 116.19 34.5743 116.19 34.5704C116.167 34.0521 115.458 34.0235 115.315 34.4483C112.999 34.0339 111.099 33.0986 110.281 30.7785C110.578 30.7967 110.879 30.8149 111.182 30.8188ZM128.465 38.8014C128.473 38.8417 128.477 38.8819 128.495 38.9235C128.87 39.7783 129.425 40.5759 130.102 41.3059C125.06 39.5886 117.664 39.56 117.717 35.8967C121.665 36.2098 125.524 36.0942 128.465 38.8014ZM129.484 37.7739C130.648 37.3634 131.822 36.9347 132.972 36.4592C136.508 37.2244 139.288 41.5073 140.781 44.7692C136.683 44.6276 132.759 42.3958 130.153 39.395C130.151 39.3652 130.169 39.3366 130.159 39.3067C130.127 39.1976 130.071 39.1171 130.032 39.0157C130.556 39.6302 131.12 40.1914 131.829 40.6317C132.56 41.0812 133.706 41.5917 134.544 41.2189C134.767 41.1202 134.755 40.8305 134.615 40.6772C134.105 40.1108 133.095 40.0186 132.419 39.6601C131.633 39.2444 131.021 38.613 130.468 37.9453C130.22 37.6452 129.783 37.8128 129.617 38.0947C129.549 37.9804 129.462 37.8934 129.39 37.7868C129.422 37.7816 129.451 37.7855 129.484 37.7739ZM134.021 32.1646C135.149 31.3111 136.397 30.6603 137.669 30.3472C138.739 30.0848 140.039 30.3329 138.948 31.4631C138.088 32.3542 137.013 33.0362 135.946 33.6715C135.653 33.8455 135.347 33.9936 135.046 34.1534C135.762 33.5922 136.461 33.0103 137.134 32.3802C137.631 31.9126 136.966 31.037 136.379 31.4371C135.465 32.0594 134.62 32.7647 133.713 33.3909C133.55 33.5052 133.485 33.6533 133.48 33.7988C133.255 33.9638 133.038 34.1391 132.811 34.2976C133.363 33.7156 133.759 32.9804 134.021 32.1646ZM126.92 47.8349C129.068 48.639 131.356 49.0469 133.523 49.8017C136.746 50.9227 136.805 53.4741 137.492 56.2449C136.736 55.5811 135.831 55.0368 134.926 54.6302C131.313 53.0129 126.758 52.2906 126.743 47.7648C126.803 47.7869 126.861 47.8128 126.92 47.8349ZM138.119 60.6668C136.681 59.9459 135.035 59.3795 133.696 58.5793C133.617 58.4572 133.48 58.3792 133.33 58.3481C132.027 57.4803 131.095 56.3345 131.094 54.4847C132.562 55.068 134.068 55.5616 135.471 56.2943C137.469 57.3439 137.814 58.7806 138.119 60.6668ZM139.533 63.1779C139.317 64.7237 139.44 66.2774 140.056 67.683C137.452 65.2096 133.023 63.9287 133.536 59.981C133.794 60.1212 134.054 60.2615 134.327 60.3888C135.728 61.0501 137.191 61.5697 138.529 62.353C138.968 62.6115 139.285 62.8882 139.533 63.1779ZM140.374 71.4762C139.651 72.7323 139.154 74.0678 138.911 75.3629C137.708 73.9911 136.374 72.6908 135.432 71.2956C135.357 71.1722 135.284 71.0475 135.206 70.9267C135.192 70.9046 135.171 70.8916 135.156 70.8734C134.191 69.273 133.803 67.5271 134.777 65.3876C134.981 65.559 135.187 65.7292 135.413 65.8929C136.776 66.8802 138.248 67.7388 139.465 68.9002C140.357 69.751 140.52 70.6097 140.374 71.4762ZM144.412 55.5889C144.849 55.0602 144.767 56.9087 144.83 57.4374C145.015 58.9885 144.703 60.5733 144.357 62.0802C144.046 63.4338 143.536 64.716 142.966 65.9799C143.185 64.5341 142.922 62.8544 142.675 61.697C142.527 61.0007 141.465 61.306 141.581 61.988C141.753 63.0012 141.8 64.0132 141.749 65.0368C141.704 65.9669 141.29 66.8789 141.343 67.796C141.238 67.5998 141.141 67.3985 141.06 67.1945C142.057 65.5798 141.75 64.0418 140.796 62.7895C141.329 60.1212 142.867 57.4543 144.412 55.5889ZM145.335 68.1C145.178 69.9511 144.352 71.6139 143.224 73.1584C142.761 73.7937 142.217 74.2769 141.643 74.7082C142.419 73.8664 143.101 72.9025 143.066 71.9295C143.047 71.4372 142.495 71.2709 142.128 71.5554C141.969 71.6801 141.832 71.8191 141.686 71.9516C142.58 70.3577 143.785 68.9482 145.335 68.1ZM55.8219 31.9022C55.9124 31.7255 56.0223 31.5514 56.105 31.3774C56.286 31.3358 56.4476 31.2189 56.5123 30.9877C57.2892 28.2129 58.8587 25.9539 60.9415 23.9157C63.3732 21.5358 66.0558 20.7772 69.1651 19.7081C64.5032 23.1207 61.4198 30.0095 55.8219 31.9022ZM57.8426 33.3142C57.7469 33.2506 57.6357 33.1986 57.4858 33.1986C57.2505 33.1986 56.9997 33.1869 56.7488 33.1752C57.8374 32.4127 59.1121 31.8996 60.4463 31.6372C59.5995 32.2347 58.7385 32.8024 57.8426 33.3142ZM53.16 33.7702C52.7864 34.2275 53.1936 34.8276 53.6344 34.8315C53.5905 34.903 53.5349 34.9627 53.4935 35.0381C53.4457 35.1238 53.425 35.2082 53.4224 35.2888C52.9712 35.2277 52.5136 35.1991 52.0507 35.2173C51.99 35.2199 51.9396 35.2368 51.8904 35.255C51.7392 35.1069 51.575 34.9757 51.416 34.8367C51.5103 34.7029 51.5491 34.5431 51.4884 34.3872C51.5827 34.347 51.6629 34.282 51.7327 34.2067C51.8297 34.3366 51.9098 34.473 52.0249 34.5964C52.5304 35.1472 53.3216 34.3522 52.8523 33.8001C50.1981 30.672 53.7767 24.7042 56.5213 21.7112C56.4243 26.1266 56.2149 30.0316 53.16 33.7702ZM58.7592 40.5187C59.3939 41.7151 59.5866 43.122 59.3125 44.4314C58.9466 46.1773 57.4508 46.7593 56.0998 47.6582C55.7766 47.8713 55.8503 48.4792 56.3209 48.4403C56.9182 48.3896 57.425 48.2194 57.8917 47.9973C58.202 49.182 58.8393 50.1485 58.2718 51.4203C57.8245 52.4257 56.8174 53.0921 55.7728 53.4325C52.9686 54.3483 51.1949 52.3608 51.0346 49.8757C51.6306 49.903 52.1813 49.8835 52.5097 49.8536C54.7424 49.6562 56.1477 48.1688 56.2123 46.0331C56.2615 44.3899 55.3061 43.1999 53.9796 42.4673C54.4916 41.3696 54.5252 40.0095 54.1826 38.8391C53.9641 38.0947 53.5788 37.3634 53.0927 36.6788C53.182 36.693 53.2789 36.6904 53.3849 36.6606C53.5801 36.6073 53.7598 36.5307 53.946 36.467C56.0507 37.062 57.7223 38.5663 58.7592 40.5187ZM55.3694 68.2688C51.5504 65.6461 50.873 59.2392 50.9648 54.8913C51.085 54.3171 51.1406 53.7456 51.1018 53.2142C51.2569 53.4078 51.4573 53.5559 51.6422 53.7183C51.5556 53.8157 51.5142 53.9508 51.5763 54.1236C51.9331 55.1238 52.1878 56.1462 52.4088 57.1815C52.648 58.2974 52.7023 59.5185 53.3125 60.5123C53.4534 60.7409 53.8671 60.7188 53.9279 60.4343C54.1852 59.2275 53.9279 57.8103 53.5103 56.467C55.8219 59.8095 55.668 64.2782 55.3694 68.2688ZM49.8452 47.2633C50.0818 46.8957 50.4528 46.493 50.8756 46.3241C50.9674 46.2865 51.0475 46.2878 51.1225 46.3085C51.3177 47.3231 51.0553 47.9103 51.7935 48.6377C51.4341 48.6416 51.0798 48.6234 50.7566 48.5806C49.4444 48.4117 49.107 48.4117 49.8452 47.2633ZM50.1904 51.9581C49.6965 52.8882 49.7818 54.0262 49.5336 55.042C49.319 55.924 48.9428 56.771 48.3222 57.4608C47.3824 58.5091 45.9654 58.6806 44.6558 58.2831C41.566 57.3413 40.7774 54.121 41.8323 51.5437C42.33 51.454 42.8161 51.3215 43.2531 51.1397C44.0792 51.9854 45.1729 52.7466 46.2266 52.8479C46.489 52.8739 46.683 52.5335 46.5356 52.3296C45.9771 51.5567 45.0734 51.0332 44.3055 50.4096C44.4076 50.1498 44.2007 49.851 43.8956 49.8302C43.8336 49.8251 43.7664 49.838 43.7017 49.8367C42.7037 48.7429 42.2706 47.2815 42.6752 45.8656C42.7929 45.446 42.1684 45.3044 42.012 45.6902C41.394 47.2205 41.4522 48.5962 42.3365 49.9809C42.1387 49.7757 41.7483 49.7172 41.5285 50.0212C41.4768 50.0926 41.4483 50.1706 41.3992 50.2433C40.9777 50.3499 40.5537 50.4473 40.1387 50.4785C39.2027 50.5512 38.2292 50.459 37.3915 50.029C36.0715 49.3548 35.8026 47.8622 36.1232 46.5722C36.5072 45.0355 37.6979 43.804 39.1639 43.1532C39.5065 42.9999 39.862 42.9077 40.2201 42.8401C40.3714 42.8973 40.5459 42.8596 40.6791 42.7648C42.3624 42.5985 44.1387 43.209 45.5711 43.9755C45.6952 44.043 45.8129 44.0495 45.9202 44.0287C45.385 45.5317 46.3003 47.1542 47.2298 48.3299C47.4354 48.5897 47.853 48.6676 48.1348 48.5364C48.2356 49.2665 49.0656 49.6159 50.0016 49.7744C49.9926 50.5161 50.0934 51.215 50.3171 51.836C50.2641 51.8632 50.2188 51.9048 50.1904 51.9581ZM36.8304 51.0916C37.3708 51.3865 37.9874 51.5476 38.6093 51.6333C37.9215 52.075 37.3824 52.67 36.9868 53.3831C37.0088 52.6115 36.9726 51.8399 36.8304 51.0916ZM37.2312 56.0241C37.4328 55.8799 37.6293 55.7331 37.8297 55.5902C38.3818 55.3668 38.7709 54.968 39.1781 54.5627C39.5518 54.2613 39.9112 53.9482 40.2576 53.6143C40.1788 55.1095 40.639 56.5619 41.6629 57.7037C41.2777 57.4881 40.886 57.2958 40.4865 57.1594C39.0243 56.6619 37.6255 56.6281 36.3559 56.9321C36.3895 56.8321 36.427 56.7269 36.4581 56.6294C36.5188 56.4359 36.5563 56.2306 36.6093 56.0306C36.7851 56.1501 37.0101 56.1839 37.2312 56.0241ZM44.5873 62.9376C45.2466 64.5146 45.0682 65.7058 44.2124 66.5918C42.0999 64.3496 37.6927 64.2535 34.6675 66.076C34.5809 66.128 34.5124 66.193 34.4309 66.2475C33.4458 65.6305 32.3184 65.3668 31.1976 65.3992C31.1756 64.043 31.5673 62.6778 32.2641 61.4878C32.5343 61.4593 32.8071 61.4021 33.0928 61.2904C34.3663 60.7954 35.2001 59.6237 35.7806 58.3844C36.9597 57.9129 38.2964 57.7791 39.7224 58.1467C41.9939 58.7313 43.7483 60.9396 44.5873 62.9376ZM42.7101 74.1067C42.6584 73.6495 42.5369 73.213 42.3559 72.8025C42.6571 71.6165 42.5589 70.3941 41.8491 69.5198C41.4432 69.0184 40.8898 68.6053 40.2809 68.2896C41.4664 68.3377 42.6494 68.6469 43.628 69.247C44.1839 69.59 44.5291 70.0056 44.7269 70.446C44.7295 70.5694 44.7528 70.6837 44.7489 70.8098C44.745 70.9137 44.8071 70.9851 44.8859 71.0332C45.0579 72.2933 44.1219 73.6092 42.7101 74.1067ZM39.2376 70.5681C38.5123 70.4746 37.769 70.4941 37.1109 70.6695C37.107 70.663 37.1083 70.6591 37.107 70.6539C36.3895 68.8391 37.5026 68.287 39.1885 68.9807C40.3611 69.4601 41.1445 70.3642 41.3009 71.4203C40.7657 70.9877 40.0883 70.676 39.2376 70.5681ZM37.694 71.7542C39.3979 71.3463 40.4955 72.0581 41.0049 73.1402C40.7541 73.6365 40.3818 74.1301 39.9422 74.5198C38.8162 74.5211 37.6436 74.347 36.5912 73.9833C36.1904 73.0688 36.5421 72.0296 37.694 71.7542ZM38.6507 78.2663C38.6041 78.1896 38.5485 78.1156 38.5046 78.0376C38.2279 77.5362 37.5195 77.8921 37.5996 78.3754C37.1924 78.3663 36.7657 78.3221 36.2926 78.1935C35.7341 78.0428 35.3152 77.7583 34.9855 77.4011C34.948 77.3063 34.8834 77.2348 34.7955 77.1816C34.162 76.3307 33.9913 75.1278 34.0612 73.9924C34.5188 74.3172 35.0398 74.5744 35.5957 74.7861C35.9177 75.3239 36.3637 75.7955 36.8679 76.128C38.2525 77.0439 39.6707 76.6061 40.7412 75.585C40.7799 75.585 40.8213 75.5876 40.8588 75.5863C40.9816 75.5837 41.098 75.5603 41.2195 75.5539C40.9428 76.7931 40.0818 77.9155 38.6507 78.2663ZM40.6209 81.8477C37.5544 84.2548 34.1051 85.1771 30.2797 83.1247C27.2273 81.4853 25.95 78.5131 26.6753 75.6903C27.2868 76.7762 28.0832 77.7557 29.0243 78.4923C30.6585 79.7718 32.9881 79.8355 34.4206 78.4338C35.3126 79.3211 36.6003 79.8043 38.2874 79.5978C38.9105 80.485 39.7121 81.2476 40.6209 81.8477ZM35.2803 111.129C35.469 112.526 35.641 113.926 35.7741 115.325C35.8659 116.272 35.8323 117.218 35.8052 118.162C33.3915 112.575 28.1401 107.905 30.2357 101.02C31.5195 104.53 33.4277 107.916 35.2803 111.129ZM35.5828 126.596C35.0566 125.544 34.4025 124.538 33.7767 123.605C31.014 119.474 28.5473 116.068 30.2241 111.101C31.7703 114.407 33.6009 117.266 34.9545 120.516C34.9571 120.549 34.9351 120.57 34.9454 120.606C35.5673 122.656 35.663 124.606 35.5828 126.596ZM35.3941 135.825C34.9092 134.671 34.2784 133.553 33.6164 132.482C31.1109 128.433 29.4303 125.26 30.3469 120.797C31.2157 122.232 32.2667 123.583 33.1937 124.973C33.7535 125.812 34.162 126.657 34.502 127.517C34.2292 127.582 34.0043 127.878 34.1594 128.204C35.3928 130.803 35.4277 133.255 35.3941 135.825ZM31.0489 140.549C31.0838 138.751 30.7852 136.961 30.8718 135.142C30.9377 133.755 31.0722 132.378 31.1549 130.996C31.7612 131.97 32.4141 132.925 33.0075 133.896C34.2667 135.959 34.7283 138.034 35.1717 140.286C33.8039 140.347 32.427 140.444 31.0489 140.549ZM30.1866 89.4198C30.7321 90.5032 31.3049 91.5801 31.9009 92.6713C34.1581 96.801 34.3908 100.24 33.8466 104.717C31.5466 99.8966 29.0166 95.4513 30.1866 89.4198ZM29.0489 83.5235C30.4891 84.5146 32.215 85.1551 33.9797 85.359C33.8052 85.4525 33.6759 85.6344 33.716 85.8773C34.0082 87.6427 34.1568 89.399 34.1555 91.1839C34.1542 92.1491 34.0276 93.0987 33.9435 94.0522C32.4374 90.5409 30.2357 87.1101 29.0489 83.5235ZM31.8647 70.0576C31.959 70.1641 32.0651 70.207 32.1711 70.2187C32.1672 70.8279 32.2706 71.4554 32.5085 72.0828C32.63 72.3985 32.8033 72.6752 32.992 72.9402C32.7192 74.5705 32.9558 76.2488 33.7082 77.5206C32.1672 78.3442 30.939 78.5533 29.3669 77.1634C28.4284 76.3333 27.7845 75.2187 27.332 74.0509C27.6035 73.5689 27.9384 73.1 28.343 72.6544C28.7761 72.175 28.0638 71.4775 27.6126 71.9529C27.3566 72.2231 27.1278 72.4933 26.917 72.7648C26.8718 72.5933 26.8123 72.4206 26.7761 72.2504C26.153 69.3392 27.9836 67.2816 30.2305 66.7451C30.4684 67.9233 30.9868 69.0612 31.8647 70.0576ZM32.365 68.9456C31.8259 68.2221 31.5053 67.4206 31.332 66.5944C32.0547 66.584 32.78 66.7503 33.46 67.0776C32.948 67.6336 32.568 68.2623 32.365 68.9456ZM35.3061 68.6598C34.4619 69.3808 33.8336 70.32 33.429 71.3528C33.2855 71.0098 33.1782 70.6448 33.1407 70.2382C33.0373 69.1262 33.4781 68.2273 34.1995 67.5271C34.6054 67.8259 34.9765 68.2026 35.3061 68.6598ZM36.0676 71.1722C35.663 71.4853 35.3462 71.9126 35.1885 72.5167C35.1226 72.77 35.1096 73.0233 35.1213 73.2766C34.8084 73.0766 34.5175 72.8544 34.268 72.6024C34.3016 72.4543 34.3326 72.2985 34.3714 72.1634C34.6352 71.267 35.0877 70.5577 35.6539 69.9706C35.7043 70.2733 35.7832 70.5954 35.9319 70.9643C35.9655 71.0475 36.012 71.1163 36.0676 71.1722ZM35.1562 66.7957C36.3637 66.0644 37.897 65.6733 39.1497 65.5954C41.0411 65.4772 42.5433 66.0644 43.513 67.1491C43.2609 67.3101 42.9751 67.4595 42.6623 67.5933C41.213 67.1724 39.5673 67.1439 38.2951 67.3205C37.5104 67.4296 36.8174 67.6895 36.2021 68.0389C35.8944 67.5583 35.5466 67.1439 35.1562 66.7957ZM25.7807 66.1449C25.8647 65.9929 25.9578 65.85 26.0159 65.6772C26.1194 65.3642 25.7354 65.1005 25.4549 65.2616C24.6572 65.7188 24.0522 66.3488 23.1433 66.6307C22.2164 66.9204 21.2235 66.6645 20.3857 66.267C18.6624 65.4538 17.5997 63.6559 17.6488 61.8412C17.6669 61.1631 16.6094 61.1787 16.5629 61.8412C16.5396 62.1802 16.5551 62.5115 16.5926 62.8375C16.581 62.8453 16.5706 62.8531 16.559 62.8596C16.5422 62.7804 16.5073 62.705 16.462 62.6349C16.4581 62.4933 16.4749 62.3608 16.4685 62.2166C16.4491 61.8061 16.0315 61.6515 15.7277 61.7593C13.0218 61.8568 10.943 61.3969 10.144 58.5416C9.72255 57.0425 10.0832 55.5512 11.0477 55.1186C11.6514 55.407 12.3534 55.5707 13.0994 55.6512C13.2028 56.5541 13.6631 57.3738 14.6663 57.7453C14.9572 57.8544 15.2739 57.5271 15.177 57.253C14.9804 56.7009 14.5603 56.2956 14.3366 55.7604C14.0755 55.129 14.1918 54.4951 14.4659 53.8859C14.7348 53.287 13.8518 52.7518 13.5338 53.3623C13.4019 53.6131 13.305 53.8898 13.2261 54.1742C12.4685 53.7845 11.7613 53.6702 11.1447 53.7793C7.93459 51.4281 11.8583 44.5522 16.4297 48.8755C16.2629 49.2496 16.1311 49.6328 16.0819 50.0316C15.8001 52.3439 17.601 54.1002 19.4988 55.2213C22.0974 56.7528 26.003 57.3491 28.7761 56.1709C27.8841 57.3036 26.9442 58.2896 25.2002 58.7391C22.4103 59.4561 20.0108 57.3556 18.7141 55.2434C18.3767 54.6952 17.5053 55.1849 17.8272 55.7409C19.3179 58.3065 21.6747 60.2213 24.8744 59.981C25.9474 59.8991 27.0321 59.46 27.9953 58.8131C28.0108 61.3722 25.9823 62.6492 23.1705 62.5102C21.9759 62.4504 20.7762 62.0802 19.7678 61.4684C18.749 60.85 18.8331 60.2252 18.7374 59.2275C18.6999 58.8326 18.2603 58.639 17.9397 58.9092C16.9223 59.7744 17.6721 61.2462 18.4491 61.9854C19.5919 63.0701 21.3359 63.4897 22.8757 63.6572C26.1026 64.0119 28.4814 62.4231 28.8692 59.8017C29.4833 60.4928 30.2086 61.0955 31.0411 61.3618C30.3921 62.6557 30.0379 64.0924 30.0883 65.5227C28.6998 65.811 27.4251 66.5749 26.5499 67.7115C26.5861 67.5531 26.6275 67.3907 26.6598 67.2387C26.7425 66.8321 26.4865 66.5736 26.1633 66.5125C26.1142 66.3268 25.9772 66.1813 25.7807 66.1449ZM16.7891 77.3842C17.5687 74.7666 18.8744 72.4323 20.7322 70.5642C20.4736 71.0644 21.2648 71.6918 21.8427 71.2566C22.8977 70.4629 23.9048 69.6159 24.9209 68.7781C23.7277 72.6323 21.0089 77.7609 16.7891 77.3842ZM8.88093 76.3398C9.14467 72.5219 10.8551 68.769 13.5299 65.9046C12.2707 68.1493 11.0516 70.4135 9.95396 72.7401C9.61912 73.4481 10.6598 74.0729 11.058 73.3624C12.2668 71.2034 13.4704 69.1678 14.7581 67.1581C13.7639 70.6487 11.6657 73.5988 8.88093 76.3398ZM15.3424 45.9799C15.3683 45.9721 15.3942 45.9617 15.4187 45.9526C15.6721 46.3436 16.0225 46.6697 16.506 46.8736C16.8964 47.0373 17.2636 46.706 17.08 46.3215C16.4336 44.9848 15.7691 44.13 16.5189 42.6439C17.1912 41.3137 18.5086 40.3304 19.866 39.7068C21.0645 39.1586 22.7102 38.9014 23.7794 39.825C25.0903 40.9552 24.9533 43.2194 24.7024 44.9692C24.5137 45.003 24.3185 45.0238 24.1362 45.0732C23.3708 44.9822 22.6016 44.9588 21.8427 45.0433C20.0923 45.2368 18.1401 46.3696 17.0076 47.8973C16.3741 47.3153 15.6863 46.8905 14.9817 46.6151C15.2416 46.4982 15.4071 46.2202 15.3424 45.9799ZM23.2454 24.1339C23.4562 23.2155 23.2118 24.3158 23.5803 25.2784C24.1323 26.7203 24.4995 28.2168 24.8343 29.7172C25.4432 32.453 25.4109 35.2212 24.9507 37.9544C22.1944 33.7221 22.1103 29.0651 23.2454 24.1339ZM25.663 40.8941C25.7199 40.8928 25.7755 40.8889 25.8337 40.8526C27.0528 40.0991 27.663 39.0079 29.2868 39.056C30.8278 39.1015 32.1685 40.3693 33.001 41.4956C35.067 44.2898 34.4994 47.5218 31.738 49.3171C30.961 47.049 28.8614 45.1914 26.3262 44.8926C26.0651 44.864 25.822 44.8783 25.5751 44.8861C25.8815 43.5663 26.025 42.162 25.663 40.8941ZM29.5285 34.5769C29.4587 34.434 29.4096 34.2807 29.3462 34.1313C32.1025 34.3509 34.1982 35.9396 35.9241 37.9323C33.7923 36.8113 31.5725 35.8461 29.5285 34.5769ZM30.9351 54.9264C32.5072 53.7611 32.9054 51.9165 32.1943 50.2187C33.3876 49.5406 34.2266 48.6364 34.7567 47.6154C34.7619 47.9973 34.8213 48.3688 34.9273 48.73C34.8291 48.7417 34.7334 48.7313 34.6352 48.7689C33.9009 49.0378 34.1672 49.8056 34.2654 50.3447C34.2926 50.4992 34.5111 50.6214 34.6636 50.5629C34.9248 50.4603 35.1898 50.3161 35.2712 50.0316C35.2829 49.9874 35.2777 49.9589 35.279 49.9225C35.2868 49.942 35.2842 49.9446 35.2945 49.9666C35.4316 50.281 35.5117 50.6162 35.5944 50.9448C36.0017 52.5621 35.7651 54.3444 35.3643 55.9383C35.2312 56.4657 35.0411 56.9906 34.8213 57.4998C33.5453 58.1363 32.4607 59.1262 31.6513 60.3135C30.6675 60.1446 29.7431 59.2379 29.1252 58.4974C29.058 58.4182 28.9752 58.3805 28.8899 58.3598C28.8821 58.2779 28.8925 58.2052 28.8808 58.122C29.875 57.2244 30.6429 56.1007 30.9351 54.9264ZM20.2215 51.0812C20.6107 54.2717 24.7205 57.3322 27.641 54.412C30.4309 51.6203 25.7496 48.4013 22.93 48.5416C22.6042 48.5572 22.29 48.8014 22.3081 49.1418C22.3456 49.8588 22.4038 50.6214 23.0709 51.0448C23.5557 51.3488 24.0289 50.6837 23.6656 50.3018C23.5803 50.2096 23.5518 49.9874 23.5428 49.7523C24.9765 49.8822 26.2693 50.7071 27.0334 51.8931C27.9978 53.3896 25.769 54.2028 24.63 54.2834C23.4083 54.3678 22.5202 53.4299 21.9681 52.5167C20.9287 50.7941 21.3385 48.7222 22.577 47.2529C23.0347 46.7112 23.5958 46.3917 24.1957 46.2124C24.3262 46.2345 24.4542 46.2722 24.5835 46.2995C24.6869 46.4722 24.9158 46.5242 25.0761 46.4073C26.2293 46.7048 27.3398 47.1815 28.2706 47.7193C29.1678 48.2402 29.994 48.9456 30.6068 49.7809C30.6274 49.851 30.6391 49.9264 30.6572 49.9978C30.5279 50.1992 30.6016 50.4889 30.7813 50.646C30.9558 52.0282 30.5654 53.4546 29.4549 54.4808C27.8686 55.9474 25.1704 55.7928 23.2054 55.3681C21.2661 54.9485 19.2235 53.9846 17.9953 52.44C16.3521 50.3758 17.9074 48.3285 19.7419 47.0282C20.4491 46.5281 21.2442 46.2709 22.0716 46.163C20.7296 47.327 19.9824 49.1249 20.2215 51.0812ZM38.5304 42.162C37.1588 42.7739 36.0443 43.8261 35.3837 45.1212C35.4044 43.7481 34.9726 42.2997 34.0263 40.9201C33.8491 40.6603 33.6436 40.4057 33.4264 40.1615C35.0178 41.0513 36.7774 41.7047 38.5304 42.162ZM47.0863 42.566C47.1354 42.3283 47.0449 42.0464 46.7541 41.9282C45.8349 41.5567 44.7709 40.9747 44.4826 39.9822C44.321 39.4184 44.6183 38.8157 45.098 38.4857C45.6293 38.122 46.2938 38.1272 46.798 38.5351C47.8064 39.3535 47.8749 40.8863 47.9848 42.0425C47.9861 42.0503 47.9913 42.0568 47.9913 42.0659C47.6655 42.1984 47.3656 42.3647 47.0863 42.566ZM50.5343 45.1316C49.8646 45.3018 49.2544 45.8253 48.8109 46.4631C48.7489 46.4982 48.6855 46.5359 48.6222 46.5684C48.4244 46.2826 48.1206 46.0241 47.9848 45.62C47.8607 45.2563 47.4354 45.142 47.1225 45.2524C47.0113 44.3795 47.3552 43.5806 48.5782 43.1142C49.584 42.7336 50.7838 42.6946 51.8878 42.9531C51.7146 43.1649 51.5297 43.3766 51.3332 43.5948C51.0398 43.9196 51.3138 44.4691 51.7844 44.3418C52.4037 44.1716 52.9014 43.8741 53.2905 43.4909C53.553 43.639 53.8051 43.8001 54.0262 43.9937C54.8445 44.7029 55.0371 45.7266 54.8678 46.7346C54.6971 47.7479 53.9447 48.2545 53.0475 48.4844C53.0514 48.4494 53.0747 48.4299 53.0721 48.3935C52.9505 47.0113 52.5523 44.6211 50.5343 45.1316ZM48.2279 34.195C50.0301 34.9484 51.4845 36.4189 52.4631 38.0233C53.425 39.5977 53.2944 40.7694 52.6235 41.9139C51.5892 41.6099 50.4774 41.5177 49.491 41.6528C49.363 41.6697 49.2389 41.7099 49.1122 41.7333C49.0475 40.2784 48.6248 38.5624 47.3772 37.6595C46.5407 37.0529 45.4199 37.0373 44.5382 37.566C43.6539 38.096 43.1691 39.1223 43.3501 40.1082C43.6216 41.5891 45.1432 42.4114 46.4748 42.9025C46.5265 42.9232 46.5718 42.9232 46.6196 42.9258C46.4981 43.048 46.4128 43.2025 46.3106 43.3402C46.2731 43.2506 46.2137 43.1649 46.1038 43.0986C44.396 42.0672 42.4141 41.4138 40.4464 41.6359C37.5738 37.036 43.3152 32.1347 48.2279 34.195ZM40.1788 33.5948C39.703 31.2293 40.4361 27.0256 43.2363 26.3033C43.1367 27.8219 42.8291 29.2846 42.1982 30.7045C41.7082 31.8087 40.9222 32.6738 40.1788 33.5948ZM46.1645 22.6114C47.3423 23.8286 48.1865 25.3446 48.8161 26.9879C48.4489 26.8216 47.9253 26.9866 47.9615 27.4724C47.9641 27.5244 47.9822 27.5725 47.9874 27.6231H47.9822C47.9861 27.6335 47.9887 27.6439 47.9926 27.6543C48.1167 28.8676 48.555 29.9458 49.1988 30.9448C49.4935 31.6826 49.8284 32.4049 50.1878 33.1168C47.4031 30.3446 45.4599 26.4592 46.1645 22.6114ZM42.1141 84.1925C42.1555 84.1236 42.1775 84.0561 42.1891 83.9872C45.204 86.6399 47.9163 90.4707 45.6681 94.1964C42.7347 92.1439 41.8219 88.4988 41.628 85.033C41.7896 84.7537 41.9461 84.4705 42.1141 84.1925ZM49.9732 87.0854C48.5394 87.1153 47.1703 86.5295 46.0404 85.6721C45.4056 85.1888 44.9648 84.6458 44.6377 84.0457C46.9234 83.9054 49.032 85.0758 49.9732 87.0854ZM38.3313 92.6973C38.3688 92.0621 38.4542 91.4346 38.577 90.815C38.7476 90.789 38.9105 90.7085 39.0204 90.5513C39.4445 89.9498 39.7896 89.3263 40.0818 88.682C39.778 90.1291 39.2363 91.5022 38.3313 92.6973ZM2.55516 63.1116C4.55903 62.6765 6.53834 62.809 8.64693 63.1948C9.35152 63.3247 10.0548 63.5286 10.762 63.717C8.05481 64.3249 5.06969 64.1314 2.55516 63.1116ZM6.97402 38.865C8.35863 39.8172 9.85959 40.6629 11.2015 41.6502C11.0645 41.7879 10.9973 41.9814 11.0697 42.2023C11.2946 42.8908 11.6269 43.5935 12.0496 44.2418C9.69411 42.9791 7.48081 41.2994 6.97402 38.865ZM14.9636 31.8749C17.398 33.0297 19.1718 34.9874 21.1356 36.6982C18.6908 35.6629 16.0393 34.2366 14.9636 31.8749ZM36.7399 27.3906C36.8291 29.0573 37.0191 30.7136 37.2234 32.375C37.3462 33.3818 37.4225 34.4015 37.5052 35.4226C35.6358 33.1064 35.2984 29.9562 36.7399 27.3906ZM128.178 22.2529C127.951 22.2854 127.721 22.3334 127.489 22.3919C127.535 22.2737 127.529 22.1373 127.431 21.9918C125.312 18.8624 125.341 14.334 126.799 10.8058C127.24 12.4672 127.856 14.0832 128.381 15.7213C129.185 18.235 129.034 20.2342 128.178 22.2529ZM123.412 24.3262C122.478 24.1196 121.511 24.3015 120.813 24.9471C120.565 25.1757 120.394 25.4485 120.275 25.7434C119.462 25.3745 118.42 24.7588 118.57 23.8351C118.72 22.9128 119.615 22.2438 120.412 21.832C121.179 21.4384 122.173 21.2435 123.007 21.554C123.447 22.123 123.86 22.74 124.297 23.3883C124.348 23.8105 124.357 24.2508 124.42 24.6639C124.05 24.5067 123.697 24.3885 123.412 24.3262ZM113.683 16.5735C112.606 13.8026 112.406 10.6018 113.873 7.99463C114.327 10.8785 113.966 13.7117 113.683 16.5735ZM109.975 16.9385C109.842 16.7528 109.713 16.567 109.579 16.3838C109.197 15.8564 108.304 16.3371 108.671 16.8944C109.112 17.5569 109.559 18.2155 110.004 18.8793C106.902 17.4426 104.03 15.1394 103.615 11.984C105.635 12.7738 107.648 13.6429 109.28 15.0614C109.982 15.672 110.443 16.3449 110.763 17.0593C110.557 16.7696 110.217 16.7749 109.975 16.9385ZM149.331 86.3619C149.847 86.4619 150.225 86.0709 150.137 85.5863C149.417 81.6606 146.562 77.3517 142.516 75.8604C143.092 75.3252 143.603 74.7497 143.987 74.2691C145.657 72.1738 146.787 69.7549 146.663 67.0724C146.646 66.6996 146.253 66.3151 145.837 66.4684C145.048 66.758 144.305 67.1984 143.611 67.731C145.802 63.7066 146.959 58.7625 145.417 54.5912C145.329 54.3587 145.122 54.1664 144.845 54.1742C142.571 54.247 140.932 58.7313 140.266 60.4018C140.09 60.8461 139.946 61.3021 139.819 61.7619C139.581 61.5645 139.326 61.3787 139.061 61.2072C139.745 59.3587 139.061 57.7895 137.842 56.5723C138.003 56.5814 138.165 56.5073 138.202 56.3306C138.856 53.1805 137.598 50.0537 134.408 48.7923C131.183 47.5218 120.706 46.4151 123.987 41.1994C124.045 41.1072 124.066 41.0202 124.071 40.9344C125.69 41.2683 127.312 41.5891 128.891 42.1009C132.006 43.1129 132.933 44.8315 133.536 47.7622C133.626 48.1999 134.299 48.1623 134.414 47.7622C134.822 46.3436 134.732 45.2213 134.295 44.308C136.715 45.4863 139.441 46.1202 141.74 46.0124C142.111 45.9955 142.509 45.6304 142.349 45.2433C140.984 41.9555 138.168 37.3504 134.571 35.7499C137.099 34.5522 139.413 33.022 141.095 30.7525C141.237 30.5603 141.197 30.2017 141.001 30.051C138.971 28.5143 136.558 29.0105 134.39 30.3654C134.561 28.739 134.352 27.0555 133.937 25.8499C133.189 23.6805 131.612 22.4802 129.749 22.2347C131.273 18.1622 128.738 13.1908 127.518 9.02477C127.359 8.48567 126.641 8.55582 126.454 9.02477C124.708 13.396 123.469 18.3753 126.54 22.4919C126.59 22.5569 126.648 22.6062 126.708 22.6413C126.456 22.7349 126.203 22.8141 125.952 22.9388C125.36 23.2298 125.878 24.0469 126.467 23.7858C126.866 23.6091 127.251 23.4805 127.626 23.3935C127.333 23.9274 127.01 24.4665 126.627 25.029C126.624 25.0329 126.627 25.0381 126.624 25.0419C126.566 25.0601 126.507 25.064 126.449 25.0874C126.147 25.1913 126.044 25.4511 126.078 25.6889C125.906 25.5343 125.721 25.3875 125.52 25.255C125.884 24.4444 125.686 23.3142 125.43 22.5179C125.259 21.9892 124.941 21.5488 124.556 21.1578C123.015 18.1869 117.739 16.6592 114.817 18.0752C115.725 14.2976 115.761 9.94319 114.718 6.4072C114.612 6.04997 114.045 5.83043 113.774 6.16688C110.883 9.73925 111.182 14.5301 113.308 18.4C113.361 18.4987 113.434 18.5584 113.513 18.6013C113.5 18.7858 113.497 18.9689 113.489 19.1547C113.304 19.408 113.14 19.686 113.03 20.0056C113.002 19.9991 112.971 19.9887 112.943 19.9796C112.858 14.9146 107.655 12.2113 103.087 10.429C102.676 10.268 102.273 10.6642 102.26 11.0344C102.105 15.8252 106.959 19.4989 111.579 20.8162C111.625 21.2085 111.672 21.6021 111.731 22.0009C111.805 22.4971 112.627 22.4607 112.732 22.0009C112.785 21.7723 112.808 21.5566 112.84 21.3345C112.84 21.5124 112.818 21.6761 112.838 21.8684C112.905 22.5478 114.007 22.5634 113.955 21.8684C113.935 21.619 113.966 21.4059 113.988 21.1903C114.31 21.0318 114.431 20.6135 114.182 20.3797C114.851 18.7546 116.952 18.4207 118.932 18.8416C120.123 19.0949 121.003 19.5782 121.741 20.203C121.086 20.2758 120.438 20.4732 119.877 20.7343C118.657 21.2994 117.471 22.4088 117.314 23.7598C117.125 25.3979 118.64 26.3397 120.063 26.7879C120.034 27.3321 120.096 27.8881 120.18 28.3766C120.309 29.1313 121.489 28.8079 121.368 28.0622C121.112 26.5125 121.566 25.0692 123.443 25.594C123.612 25.6421 123.902 25.7577 124.213 25.9071C124.209 25.911 124.204 25.9097 124.202 25.9136C123.44 26.541 121.105 28.804 123.275 29.36C123.601 29.4431 123.964 29.4405 124.328 29.3768C124.322 29.9237 124.304 30.4537 124.424 30.9993C124.597 31.7801 125.832 31.4475 125.664 30.6694C125.544 30.1121 125.681 29.4795 125.628 28.8988C126.076 28.6312 126.456 28.2856 126.677 27.905C127.048 27.2685 126.904 26.667 126.507 26.1435C126.579 26.15 126.659 26.1461 126.746 26.1215C128.814 25.5473 130.185 26.4709 130.052 28.5649C129.997 29.4184 129.58 30.2303 129.089 30.9214C128.469 31.7905 127.413 32.0892 126.727 32.8271C126.558 33.0077 126.599 33.3662 126.888 33.4182C129.594 33.891 131.378 30.1472 131.377 28.0804C131.373 25.9578 129.873 24.8185 128.05 24.8185C128.535 24.3405 128.92 23.8351 129.229 23.3129C131.026 23.5221 132.367 24.8653 132.955 26.9853C133.32 28.2986 133.233 29.7237 132.937 31.0396C132.893 31.2358 132.812 31.4033 132.746 31.5839C131.29 32.8466 130.068 34.4015 129.308 35.8084C128.968 35.9682 128.624 36.1487 128.277 36.38C128.229 36.4137 128.198 36.4527 128.167 36.4917C127.149 35.7577 125.884 35.355 124.484 35.1355C124.529 35.09 124.56 35.0264 124.565 34.9432C124.764 31.415 122.326 29.6782 118.902 29.3119C114.101 28.7949 108.277 31.1409 104.752 27.1958C104.796 27.188 104.84 27.1854 104.884 27.1802C110.27 26.4358 114.268 25.2862 119.027 28.539C119.356 28.765 119.731 28.3376 119.554 28.0323C118.031 25.4239 115.175 24.8744 112.283 24.9315C112.296 24.8666 112.319 24.8042 112.294 24.7367C110.64 20.3797 107.736 20.0017 104.436 20.8266C104.427 20.8149 104.432 20.8032 104.422 20.7915C103.221 19.356 101.124 18.9014 99.1805 18.9455C98.0001 18.0531 96.2432 17.7128 94.8456 17.3971C92.812 16.9372 90.772 17.0269 88.7926 17.6296C88.4216 17.7439 88.3505 18.096 88.4733 18.3545C87.951 18.5104 87.4365 18.7065 86.931 18.9572C86.9698 18.8507 86.962 18.7351 86.8495 18.6455C85.0564 17.1996 81.8774 17.3386 79.6485 17.9622C73.2232 18.1258 70.5251 27.21 63.84 27.6569C64.0171 27.4504 64.2007 27.2568 64.3739 27.0451C65.6163 25.5187 66.7979 23.9572 68.1567 22.5192C70.2485 20.303 72.6531 19.5418 75.4391 18.4571C75.8011 18.3155 75.7533 17.8271 75.346 17.7972C73.0759 17.6322 71.2 18.3064 69.5309 19.4379C69.6499 19.1885 69.4947 18.8585 69.1328 18.813C66.0636 18.4207 62.8212 20.7109 60.6351 22.5348C59.4573 23.5169 58.392 24.6886 57.5103 25.976C57.6965 24.1872 57.6991 22.3308 57.6448 20.3732C57.6318 19.9068 57.0617 19.686 56.7101 20.0017C54.5795 21.9113 51.6487 25.7525 50.8924 29.3444C50.0378 26.2072 48.7528 23.0804 46.246 21.1019C45.9189 20.8421 45.4044 20.9123 45.279 21.3475C44.0676 25.5551 45.5401 29.7899 48.3752 33.0064C48.3287 32.9895 48.2809 32.9635 48.233 32.9466C45.9848 32.1802 43.6009 32.6387 41.7521 33.7806C43.7638 31.68 44.4684 28.2532 44.511 25.6044C44.5175 25.2953 44.2279 24.9926 43.8956 25.0108C39.6138 25.2511 38.277 30.6356 39.0579 33.9742C39.1277 34.2677 39.3578 34.382 39.5944 34.373C39.3643 34.7588 39.8711 35.1706 40.2538 34.9653C40.2951 34.9432 40.3262 34.9121 40.3675 34.8874C39.8556 35.3927 39.4096 35.9474 39.0928 36.5566C39.0463 32.9336 38.0262 29.1365 37.9034 25.6044C37.8853 25.1225 37.2376 24.7951 36.8666 25.1913C33.5867 28.6974 33.8983 34.143 37.6772 37.1906C37.6772 37.1906 37.6785 37.1906 37.6785 37.1932C37.7198 37.5413 37.769 37.8882 37.8207 38.2363C35.4781 35.2394 32.5563 32.653 28.365 32.8206C27.9461 32.8375 27.6139 33.2116 27.7354 33.6169C27.7897 33.8001 27.8815 33.9573 27.9448 34.1339C27.7031 34.3678 27.6074 34.7549 27.9138 35.0056C28.1297 35.181 28.3572 35.3719 28.5809 35.559C29.142 36.5592 29.8595 37.4491 30.7063 38.2207C30.3353 38.083 29.9565 37.9778 29.5647 37.9362C28.3611 37.8037 26.9235 38.2311 26.0534 39.1132C27.2338 33.5104 26.175 27.9362 23.8388 22.6959C23.76 22.5205 23.5092 22.4036 23.3178 22.4088C23.1886 22.4166 23.0593 22.4179 22.93 22.4166C22.6688 22.4179 22.4219 22.5907 22.356 22.8375C21.1381 27.4075 20.8149 31.9334 22.5667 36.0591C21.6527 35.1836 20.6714 34.3626 19.7251 33.5585C18.0716 32.1542 16.2629 30.9487 14.1595 30.2771C13.6786 30.1225 13.3593 30.5875 13.42 30.9877C14.0005 34.8172 18.1944 36.9217 21.6126 38.0947C21.6372 38.1025 21.6579 38.0986 21.6811 38.1051C21.0153 38.1389 20.3482 38.2779 19.7587 38.4909C17.9255 39.1521 16.2267 40.4901 15.3683 42.201C15.1472 42.6427 15.0089 43.174 14.9572 43.717C12.9662 40.759 9.51312 39.4353 6.67796 37.1321C6.26038 36.7931 5.63207 37.0087 5.60621 37.5595C5.39936 42.0971 9.89709 44.6367 13.7264 46.2995C11.91 46.0929 10.1375 46.9737 9.06839 49.147C8.01991 51.2774 8.52928 53.1727 9.9126 54.3756C9.14725 55.0589 8.70252 56.2332 8.74647 57.6531C8.81499 59.8082 10.1104 61.6541 11.9048 62.5167C8.39741 61.2826 3.81566 61.1553 0.623695 62.3569C0.111739 62.5492 -0.052453 63.2039 0.468553 63.5091C4.18929 65.6811 9.36703 65.8903 13.3683 64.1158C13.4381 64.1158 13.5079 64.1301 13.579 64.1275C9.74323 67.6752 7.33601 72.7947 7.52217 77.9064C7.54157 78.4611 8.21642 78.7352 8.63788 78.352C12.9636 74.4393 15.9682 70.1537 16.431 64.6523C16.5784 64.4393 16.7258 64.2249 16.877 64.0119C17.4071 65.5019 18.5616 66.7477 20.0871 67.4829C20.6456 67.7505 21.292 67.896 21.95 67.9324C18.5551 70.2044 16.3495 73.6975 15.3075 77.7388C15.2248 78.0636 15.4122 78.4364 15.7665 78.5157C20.44 79.5614 23.6566 75.4084 25.3941 71.2735C25.3941 71.2761 25.3941 71.2787 25.3941 71.2813C25.4031 71.823 25.4833 72.3712 25.6048 72.9207C25.4342 72.9207 25.27 72.9882 25.186 73.1649C23.5143 76.7139 22.7464 80.3629 23.0541 84.26C23.1084 84.9342 24.1543 85.1486 24.3353 84.425C24.7141 82.9038 25.3036 81.3047 25.7923 79.6874C26.2719 80.8358 27.0696 81.8737 28.0638 82.7492C27.9086 82.8558 27.8091 83.0376 27.8595 83.2728C28.2344 84.9836 28.8278 86.571 29.5389 88.1156C29.5104 88.1546 29.482 88.1948 29.4652 88.2481C28.1569 92.3673 28.6624 96.4359 30.0004 100.363C29.8272 100.337 29.6307 100.398 29.5466 100.599C28.1582 103.942 28.4051 106.765 29.716 109.946C29.6152 109.98 29.526 110.045 29.4742 110.159C28.0082 113.411 28.0819 116.293 29.6165 119.464C28.3353 122.826 28.4969 125.848 30.1155 129.164C30.1194 129.17 30.1245 129.178 30.1271 129.185C29.8608 132.778 28.6559 137.218 30.1388 140.619C25.7936 140.957 21.4407 141.288 17.2325 140.602C16.6378 140.507 16.378 141.322 16.9804 141.487C27.1368 144.302 37.6694 140.211 48.0391 142.983C48.5511 143.122 48.9144 142.361 48.4089 142.14C44.5227 140.451 40.4192 140.133 36.2408 140.253C36.2719 139.769 36.2745 139.29 36.2227 138.818C37.0889 136.526 37.1057 133.869 36.4839 131.409C36.6365 130.658 36.6171 129.914 36.4878 129.185C36.8976 127.543 36.9765 125.822 36.7606 124.139C36.8459 124.072 36.9144 123.983 36.9222 123.86C37.0049 122.597 36.8368 121.414 36.5343 120.272C37.5104 117.71 37.0902 114.798 36.4219 112.07C36.4684 111.998 36.4942 111.911 36.4736 111.814C35.981 109.552 35.1445 107.506 34.2318 105.538C34.3572 105.533 34.4762 105.494 34.5305 105.371C36.0327 101.948 35.6707 98.7742 34.5822 95.689C35.9603 92.6297 35.4846 88.7599 34.6636 85.6279C34.6416 85.5461 34.6029 85.4824 34.5589 85.4292C36.5925 85.5448 38.6481 85.0304 40.3611 83.6599C40.374 83.8664 40.3792 84.0782 40.3882 84.286C38.0055 87.1244 36.7179 90.6513 37.0463 94.3445C37.0915 94.868 37.7121 95.1759 38.1361 94.7797C39.7948 93.2325 40.6765 91.3567 41.0889 89.3471C41.7198 91.8841 43.0385 94.1756 45.5155 95.6227C45.8336 95.8072 46.1878 95.6695 46.3882 95.4019C48.268 92.8896 48.0365 90.0732 46.7515 87.5791C48.0727 88.2208 49.5776 88.478 51.0566 88.2234C51.403 88.1636 51.6021 87.7583 51.5103 87.4544C50.8484 85.259 48.7967 83.339 46.4464 82.8415C49.6603 81.9373 51.4961 78.7417 50.542 75.5526C50.3972 75.0667 49.6926 75.1875 49.659 75.6669C49.4586 78.6196 48.8846 81.445 45.2932 81.8919C44.8148 81.949 44.3468 81.9399 43.8892 81.8841C43.7987 81.5827 43.4367 81.5775 43.2324 81.762C42.9221 81.6892 42.6183 81.5996 42.3249 81.4827C42.3261 81.4827 42.3261 81.4801 42.3274 81.4788C42.5886 81.067 42.0004 80.6565 41.6513 80.976C41.6073 81.0163 41.5647 81.0501 41.5207 81.0904C40.7295 80.6448 40.0275 80.0498 39.4406 79.3613C41.3475 78.7976 42.4709 77.0854 42.6946 75.3109C44.9648 74.6991 46.5692 73.035 45.8956 70.4174C45.7935 70.0186 45.6241 69.6705 45.4147 69.3574C45.3669 68.7638 45.2259 68.2299 45.0075 67.7557C45.4276 67.3738 45.7159 66.8737 45.9176 66.3216C47.2402 67.1088 48.3184 68.3 49.1264 69.5497C49.606 70.2914 49.9564 71.0942 49.9512 71.9789C49.9499 72.5024 49.6474 72.8376 49.2595 73.1078C49.0876 72.4738 48.8471 71.8542 48.6015 71.3125C48.374 70.8072 47.5 71.1709 47.6823 71.6853C47.9409 72.4206 48.0844 73.1 48.1555 73.7755C48.0753 73.8287 47.9965 73.8807 47.9266 73.9404C47.7379 74.0989 47.8362 74.4367 48.0766 74.486C48.1206 74.4964 48.1555 74.4899 48.1968 74.4977C48.1994 75.2096 48.1141 75.9293 47.8982 76.7165C47.8413 76.923 48.1012 77.166 48.308 77.0205C49.2414 76.3502 49.5207 75.4084 49.4793 74.4172C51.6267 74.1314 52.5601 71.9958 52.2692 70.0394C51.9163 67.6739 49.8193 65.42 47.6254 64.4458C47.0902 64.208 46.6183 64.9524 47.1561 65.2174C48.8782 66.0657 50.1128 67.5972 50.82 69.3081C51.1548 70.1148 51.2039 70.7591 51.0669 71.3177C51.041 70.9786 50.9906 70.6461 50.8833 70.3395C50.1542 68.2766 48.224 66.3709 46.1387 65.4304C46.2137 64.929 46.2382 64.4094 46.1594 63.8703C45.9111 62.1646 44.8497 60.3694 43.4341 59.021C43.6629 59.1418 43.8659 59.286 44.1193 59.386C45.7508 60.0394 47.553 59.7081 48.8924 58.6455C49.2544 58.3571 49.5879 57.9648 49.8853 57.5115C50.0042 62.2556 51.2906 67.7986 55.6073 69.8498C56.0624 70.0667 56.5381 69.7991 56.5756 69.3146C56.9583 64.3782 57.2698 58.5975 53.6448 54.7224C54.383 54.8627 55.2065 54.8393 56.1063 54.5964C57.5569 54.2002 58.851 53.1831 59.4495 51.8464C60.0416 50.5226 59.8775 48.5299 58.7333 47.4907C59.8477 46.593 60.436 45.1771 60.5652 43.7092C61.1987 44.2145 61.6848 44.851 61.7133 45.698C61.7495 46.823 60.3131 47.518 59.5517 48.1389C59.2401 48.3935 59.5827 48.7988 59.915 48.739C61.4767 48.4649 62.7941 47.2646 62.8716 45.698C62.9389 44.3795 61.7197 43.4039 60.5833 42.7842C60.5614 42.3062 60.5032 41.8346 60.3868 41.38C59.7456 38.8832 57.8245 36.8398 55.4327 35.8565C58.1671 34.6912 60.6842 33.1454 62.966 31.2501C63.3681 30.9175 63.05 30.2199 62.5329 30.2446C62.074 30.268 61.6202 30.3381 61.1651 30.4031C61.7714 29.89 62.3442 29.3288 62.8988 28.739C62.9065 28.739 62.913 28.7442 62.9221 28.7455C63.2983 28.7897 63.6628 28.8066 64.0184 28.8092C63.9873 28.8897 63.9731 28.9819 64.0041 29.0911C68.785 46.1332 76.4087 62.8336 87.8683 76.7139C96.1656 86.7646 109.985 97.5063 124.154 97.9545C124.543 100.163 126.387 102.021 128.597 102.682C120.54 112.825 112.244 123.829 109.475 136.45C109.356 136.989 110.136 137.191 110.33 136.674C114.727 124.938 121.003 115.324 128.163 105.366C125.595 111.844 123.154 118.682 121.846 125.228C121.729 125.827 122.64 126.085 122.807 125.481C124.985 117.599 129.784 109.586 130.985 101.461C131.105 101.297 131.224 101.132 131.346 100.964C131.422 100.862 131.44 100.763 131.436 100.67C131.803 100.555 132.15 100.395 132.441 100.15C131.802 101.783 131.542 103.435 132.5 105.089C132.792 105.594 133.129 106.044 133.474 106.471C134.653 109.698 132.586 112.887 134.009 115.988C131.832 119.395 128.972 123.255 132.216 126.78C131.501 127.973 131.188 129.225 132.889 129.895C133.045 129.956 133.187 130.002 133.332 130.05C132.403 132.8 131.275 138.251 133.713 140.577C125.27 139.675 116.944 137.726 108.349 138.192C96.4345 138.841 84.7112 144.659 72.9065 139.839C72.2653 139.577 71.6964 140.466 72.3506 140.758C81.8825 144.978 92.8767 142.089 102.693 140.289C116.958 137.671 130.54 144.22 144.597 141.909C145.185 141.813 145.048 140.87 144.459 140.911C141.405 141.119 138.39 141.015 135.391 140.748C134.412 139.098 133.69 137.866 133.586 135.862C133.493 134.025 133.878 132.137 134.39 130.364C135.408 130.636 136.205 130.874 137.14 132.137C139.107 134.793 137.33 137.247 136.292 139.817C136.14 140.192 136.72 140.498 136.986 140.206C139.319 137.674 140.103 134.484 138.24 131.518C137.651 130.577 136.83 129.673 135.71 129.334C134.025 128.824 132.694 128.83 133.108 127.405C134.057 127.769 135.332 127.671 136.207 127.645C137.12 127.613 138.026 127.552 138.935 127.684C140.588 127.925 140.42 129.482 140.253 130.784C140.14 130.41 140.017 130.047 139.882 129.713C139.66 129.159 138.748 129.372 138.94 129.963C139.423 131.457 139.644 132.942 139.571 134.506C139.493 136.168 138.645 137.506 138.262 139.078C138.173 139.443 138.619 139.694 138.906 139.438C140.893 137.67 141.099 134.689 140.58 132.087C140.721 132.089 140.862 132.048 140.936 131.909C142.169 129.606 141.836 126.607 138.67 126.375C137.082 126.258 135.161 126.719 133.634 126.177C133.717 125.788 133.196 125.527 132.882 125.816C130.217 124.042 133.138 119.568 134.826 116.909C135.068 117.074 135.326 117.219 135.553 117.349C138.723 119.139 137.837 121.953 137.039 124.867C136.907 125.347 137.585 125.605 137.854 125.197C139.136 123.26 140.067 119.886 138.446 117.836C138.476 117.817 138.508 117.818 138.535 117.786C139.368 116.857 139.559 115.589 139.469 114.351C139.793 113.449 139.77 112.557 139.497 111.688C141.89 109.07 142.941 105.349 140.509 102.419C140.181 102.023 139.317 101.572 138.878 101.323C135.701 99.5212 135.983 96.9841 136.499 94.0925C136.782 92.5037 136.717 91.2112 136.291 89.9615C139.063 92.6492 138.851 95.7254 139.792 99.3081C139.909 99.7511 140.579 99.6381 140.596 99.2016C140.703 96.4892 140.565 94.6264 140.001 93.0623C140.115 93.1987 140.231 93.3325 140.345 93.4676C141.281 98.3754 143.285 103.561 147.617 106.479C147.911 106.676 148.359 106.535 148.526 106.25C151.465 101.21 146.988 95.0395 142.16 92.1049C142.708 91.7503 143.223 91.232 143.631 90.9033C144.605 90.1135 145.565 89.299 146.467 88.4338C146.857 88.0597 146.579 87.3582 146.012 87.3738C144.606 87.4141 143.029 87.7103 141.694 88.1597C142.47 85.8682 142.525 83.5572 141.984 81.206C143.633 83.7638 146.194 85.7461 149.331 86.3619Z" fill="#39180E"/>
<path fill-rule="evenodd" clip-rule="evenodd" d="M120.142 68.6289C118.334 60.0875 115.246 51.855 113.801 43.2344C113.741 42.8696 113.104 42.9553 113.152 43.3213C114.294 52.0718 117.292 60.2991 119.567 68.7873C119.667 69.1612 120.221 69.0002 120.142 68.6289Z" fill="#39180E"/>
<path fill-rule="evenodd" clip-rule="evenodd" d="M106.109 74.6686C98.6673 64.511 90.6719 55.2354 84.6185 44.1277C84.4598 43.8381 84.0415 44.0923 84.1758 44.3819C89.3837 55.504 96.6396 66.4781 105.75 74.9412C105.932 75.1102 106.266 74.8822 106.109 74.6686Z" fill="#39180E"/>
<path fill-rule="evenodd" clip-rule="evenodd" d="M90.8986 62.1877C90.6249 61.7549 89.9425 62.1474 90.2111 62.5895C94.9107 70.3143 101.753 77.5526 109.706 81.9647C109.985 82.1193 110.314 81.7295 110.057 81.5064C103.004 75.4669 95.9491 70.1813 90.8986 62.1877Z" fill="#39180E"/>
<path fill-rule="evenodd" clip-rule="evenodd" d="M125.149 74.7362C124.946 71.498 123.969 68.4599 123.616 65.2503C123.573 64.8612 123.12 64.951 123.151 65.3456C123.414 68.5687 123.936 71.8871 124.815 74.8695C124.886 75.109 125.165 74.9919 125.149 74.7362Z" fill="#39180E"/>
<path fill-rule="evenodd" clip-rule="evenodd" d="M126.772 129.807C127.81 124.718 128.866 119.561 129.149 114.396C129.18 113.855 128.252 113.881 128.18 114.396C127.485 119.487 126.093 124.592 126.151 129.736C126.156 130.03 126.711 130.112 126.772 129.807Z" fill="#39180E"/>
<path fill-rule="evenodd" clip-rule="evenodd" d="M119.816 118.117C118.793 120.13 118.176 122.317 118.15 124.805C118.148 125.043 118.384 125.067 118.437 124.857C118.984 122.701 119.426 120.448 120.129 118.371C120.228 118.078 119.951 117.853 119.816 118.117Z" fill="#39180E"/>
<path fill-rule="evenodd" clip-rule="evenodd" d="M119.735 122.175C119.386 123.632 119.048 125.308 119.178 126.825C119.191 126.982 119.384 127.08 119.459 126.913C120.087 125.502 119.891 123.825 120.145 122.305C120.197 121.999 119.809 121.868 119.735 122.175Z" fill="#39180E"/>
<path fill-rule="evenodd" clip-rule="evenodd" d="M72.1582 26.2993C73.1149 30.2598 74.5532 34.2429 76.5455 37.8488C76.7194 38.1609 77.2372 37.9444 77.1369 37.611C75.9728 33.713 74.192 29.9464 72.6533 26.1692C72.5356 25.8796 72.082 25.9872 72.1582 26.2993Z" fill="#39180E"/>
<path fill-rule="evenodd" clip-rule="evenodd" d="M124.15 54.7517C124.156 53.6165 123.73 52.5614 123.709 51.4044C123.699 50.8659 123.14 50.8645 123.15 51.4044C123.172 52.592 123.377 53.9702 123.874 54.9234C123.965 55.0981 124.149 54.9453 124.15 54.7517Z" fill="#39180E"/>
<path fill-rule="evenodd" clip-rule="evenodd" d="M37.9694 62.0043C36.891 61.9448 36.0311 62.5053 35.287 63.2382C34.87 63.6487 35.496 64.2662 35.9224 63.8756C36.5366 63.3151 37.2111 62.8749 38.0745 63.0175C38.7135 63.1254 39.1895 63.6288 39.7813 63.8508C40.0589 63.955 40.216 63.6189 40.1227 63.4031C39.7778 62.6182 38.8187 62.0515 37.9694 62.0043Z" fill="#39180E"/>
</svg>
